<svg width="58" height="58" viewBox="0 0 58 58" fill="none" xmlns="http://www.w3.org/2000/svg">
<g clip-path="url(#clip0_98_11557)">
<path d="M21.75 12.0833C21.75 10.7542 22.8375 9.66667 24.1667 9.66667C25.4958 9.66667 26.5833 10.7542 26.5833 12.0833C26.5833 13.4125 25.4958 14.5 24.1667 14.5C22.8375 14.5 21.75 13.4125 21.75 12.0833ZM58 10.875V27.7917C58 33.785 53.1183 38.6667 47.125 38.6667H22.9583C16.965 38.6667 12.0833 33.785 12.0833 27.7917V10.875C12.0833 4.88167 16.965 0 22.9583 0H47.125C53.1183 0 58 4.88167 58 10.875ZM15.4295 31.6515C15.9563 32.6755 17.3138 32.7112 18.128 31.897L31.5375 18.4875C33.5192 16.5058 36.7333 16.5058 38.715 18.4875L41.2283 21.0008C42.2433 21.9917 43.9833 22.0158 44.9742 21.0008L54.952 11.023C55.3538 10.6212 55.5785 10.065 55.4879 9.50412C54.8386 5.48452 51.3406 2.41667 47.1492 2.41667H22.9583C18.2942 2.41667 14.5 6.21083 14.5 10.875V27.7917C14.5 29.1832 14.8338 30.4938 15.4295 31.6515ZM55.5833 27.7917V18.6276C55.5833 16.8458 53.429 15.9535 52.1691 17.2134L46.6658 22.7167C44.7567 24.6258 41.3975 24.6258 39.4883 22.7167L36.975 20.2033C35.9358 19.1642 34.2442 19.1642 33.2292 20.2033L20.235 33.1975C19.3275 34.105 19.5099 35.6371 20.7476 35.9764C21.4541 36.1701 22.1958 36.2742 22.9583 36.2742H47.125C51.7892 36.2742 55.5833 32.48 55.5833 27.8158V27.7917ZM45.0467 43.5725C44.3942 43.4033 43.7417 43.79 43.5725 44.4425L42.3158 49.3725C41.0833 53.8675 36.4192 56.5258 31.9242 55.2933L8.65166 48.9858C4.15666 47.7533 1.49833 43.0892 2.73083 38.5942L7.17749 22.0883C7.34666 21.4358 6.95999 20.7833 6.33166 20.6142C5.70333 20.445 5.02666 20.8075 4.85749 21.46L0.386659 37.9417C-0.386674 40.745 -0.0241743 43.6692 1.42583 46.2067C2.87583 48.7442 5.19583 50.5325 7.99916 51.3058L31.2717 57.6133C32.2383 57.8792 33.205 58 34.1475 58C38.9325 58 43.3067 54.8342 44.6358 49.9767L45.9167 45.0467C46.0858 44.3942 45.6992 43.7417 45.0467 43.5725Z" fill="url(#paint0_linear_98_11557)"/>
</g>
<defs>
<linearGradient id="paint0_linear_98_11557" x1="-0.0101626" y1="28.9999" x2="45.5145" y2="28.8577" gradientUnits="userSpaceOnUse">
<stop stop-color="#EBEBEB"/>
<stop offset="1" stop-color="#DAE2EE"/>
</linearGradient>
<clipPath id="clip0_98_11557">
<rect width="58" height="58" fill="white"/>
</clipPath>
</defs>
</svg>
