<svg width="188" height="70" viewBox="0 0 188 70" fill="none" xmlns="http://www.w3.org/2000/svg">
<path d="M32.504 69V14.664L41.24 14.856L16.952 44.616L14.648 41.736H59.192V55.176H7.352L0.824 42.6L35.096 1.224H48.248V69H32.504ZM94.9145 69.96C88.8985 69.96 83.7465 68.584 79.4585 65.832C75.2345 63.08 72.0025 59.144 69.7625 54.024C67.5225 48.84 66.4025 42.632 66.4025 35.4C66.4025 28.168 67.5225 21.992 69.7625 16.872C72.0025 11.688 75.2345 7.72 79.4585 4.96799C83.7465 2.216 88.8985 0.839996 94.9145 0.839996C100.931 0.839996 106.083 2.216 110.371 4.96799C114.659 7.72 117.923 11.688 120.163 16.872C122.403 21.992 123.523 28.168 123.523 35.4C123.523 42.632 122.403 48.84 120.163 54.024C117.923 59.144 114.659 63.08 110.371 65.832C106.083 68.584 100.931 69.96 94.9145 69.96ZM94.9145 56.136C99.0745 56.136 102.275 54.344 104.515 50.76C106.819 47.176 107.971 42.056 107.971 35.4C107.971 28.552 106.819 23.304 104.515 19.656C102.275 15.944 99.0745 14.088 94.9145 14.088C90.7545 14.088 87.5225 15.944 85.2185 19.656C82.9785 23.304 81.8585 28.552 81.8585 35.4C81.8585 42.056 82.9785 47.176 85.2185 50.76C87.5225 54.344 90.7545 56.136 94.9145 56.136ZM160.848 69V14.664L169.584 14.856L145.296 44.616L142.992 41.736H187.536V55.176H135.696L129.168 42.6L163.44 1.224H176.592V69H160.848Z" fill="white"/>
</svg>
