<svg width="37" height="11" viewBox="0 0 37 11" fill="none" xmlns="http://www.w3.org/2000/svg">
<g clip-path="url(#clip0_5797_3302)">
<path d="M35.9936 7.9814C35.5552 8.36895 34.9858 8.58477 34.3946 8.58745C33.8988 8.59503 33.4035 8.55521 32.9157 8.46855C32.4674 9.04088 31.8906 9.50514 31.2299 9.8256C30.5691 10.1461 29.8419 10.3142 29.1041 10.3171C27.622 10.3171 26.5122 9.94272 25.7747 9.19402C25.7398 9.15788 25.7162 9.1165 25.6824 9.07983C24.9181 9.78816 23.9114 10.1937 22.8581 10.2175C21.8929 10.2175 21.4103 9.3496 21.4103 7.61369C21.4299 7.00549 21.5039 6.40011 21.6312 5.80445C21.7526 5.2483 21.8267 4.68327 21.8527 4.11517C21.8599 4.01915 21.8442 3.92279 21.8069 3.83367C21.7696 3.74456 21.7117 3.66511 21.6376 3.60156C21.5636 3.53801 21.4755 3.49209 21.3802 3.46742C21.2849 3.44275 21.1851 3.43999 21.0885 3.45936C20.7396 3.45936 20.3507 3.79407 19.9217 4.4635C19.4941 5.12779 19.1816 5.8564 18.9967 6.62002V6.65931C18.9994 7.13061 19.0704 7.59917 19.2074 8.05107C19.3174 8.37361 19.3884 8.70764 19.4187 9.04631C19.4187 9.49679 18.8487 9.9408 17.7087 10.3784C17.5621 10.4387 17.4054 10.4725 17.2464 10.4779C17.0874 10.4818 16.9318 10.4327 16.8051 10.3387C16.6784 10.2448 16.5882 10.1115 16.5493 9.96088C16.4058 9.50738 16.3413 9.03355 16.3584 8.55917C16.3584 7.97006 16.3752 7.41359 16.4088 6.88978C16.4424 6.36598 16.476 5.88233 16.5096 5.43883C16.5429 4.99464 16.5763 4.6037 16.6099 4.26602C16.6432 3.92816 16.6603 3.65369 16.6603 3.44102C16.6774 3.35444 16.6737 3.26515 16.6495 3.1802C16.6253 3.09524 16.5812 3.01694 16.5208 2.95144C16.4603 2.88595 16.3852 2.83504 16.3012 2.80275C16.2172 2.77045 16.1266 2.75763 16.0367 2.76531C15.6209 2.76531 15.1383 3.24564 14.5889 4.20631C14.1316 4.89331 13.8489 5.67699 13.7641 6.49221C13.7591 7.01947 13.8302 7.5448 13.9754 8.05264C14.0854 8.37518 14.1563 8.70921 14.1867 9.04788C14.1867 9.49836 13.6167 9.94237 12.4766 10.3799C12.3299 10.4404 12.173 10.4741 12.0139 10.4795C11.8554 10.4827 11.7005 10.4333 11.5744 10.3394C11.4484 10.2455 11.3587 10.1126 11.32 9.96245C11.2538 9.76735 11.2088 9.56596 11.1859 9.36164C10.9125 9.54443 10.6245 9.70557 10.3247 9.84355C9.82356 10.0837 9.2742 10.2125 8.71605 10.2207C8.00572 10.2207 7.52973 9.60452 7.28807 8.37217C6.94663 8.93442 6.47889 9.41354 5.92014 9.77336C5.23727 10.169 4.45017 10.3592 3.65724 10.3202C3.23533 10.338 2.81427 10.2694 2.42113 10.1187C2.028 9.96808 1.67147 9.73874 1.37449 9.44545C1.09265 9.16597 0.872298 8.83315 0.726967 8.46743C0.581636 8.10171 0.514402 7.71082 0.529398 7.31879C0.529398 5.0664 1.2871 3.29069 2.80249 1.99164C3.32339 1.52036 3.9354 1.15546 4.60262 0.918355C5.17233 0.744261 5.76614 0.657157 6.36306 0.660119C6.88535 0.639289 7.40446 0.748707 7.87148 0.978069C7.91183 0.832342 7.99374 0.700817 8.10767 0.598807C8.22159 0.496797 8.36284 0.428502 8.51496 0.401879C8.76798 0.410729 9.01663 0.468905 9.24629 0.572983C9.47596 0.67706 9.682 0.824941 9.85232 1.00793C10.03 1.148 10.1775 1.32108 10.2863 1.51717C10.3951 1.71326 10.463 1.92847 10.4861 2.15036C10.2448 2.69035 9.96938 3.21517 9.66143 3.72179C9.53741 4.57086 9.48362 5.42832 9.50056 6.28583C9.50056 7.38583 9.64159 7.93566 9.92365 7.93531C10.3958 7.78316 10.817 7.50893 11.1425 7.14174C11.1446 6.19025 11.2143 5.24004 11.3511 4.29798C11.5571 3.05262 12.0227 1.86185 12.719 0.799452C12.7901 0.648916 12.8996 0.518726 13.037 0.421329C13.1743 0.323933 13.335 0.262587 13.5035 0.243164C13.9465 0.243164 14.3554 0.600928 14.7304 1.31645C14.8279 1.4806 14.9089 1.65356 14.9723 1.83293C15.2277 1.47282 15.5669 1.17699 15.962 0.969664C16.3572 0.762343 16.7969 0.649441 17.2454 0.640213C17.8151 0.63785 18.3661 0.839476 18.794 1.20698C19.0113 1.37732 19.1859 1.5939 19.3045 1.84018C19.423 2.08646 19.4825 2.35594 19.4782 2.62807V2.8465C19.8197 2.38102 20.2695 2.00139 20.7905 1.73885C21.3116 1.47632 21.889 1.33837 22.4752 1.33636C22.7744 1.31551 23.0748 1.3541 23.3583 1.4498C23.6418 1.5455 23.9025 1.69632 24.1247 1.89316C24.3088 2.07254 24.4537 2.28659 24.5506 2.52232C24.6474 2.75805 24.6943 3.01055 24.6883 3.2645C24.6923 3.75732 24.6518 4.24952 24.5671 4.73536C24.4866 5.17221 24.3962 5.58288 24.2957 5.96736C24.1953 6.35183 24.1045 6.69178 24.0233 6.98721C23.9546 7.21352 23.9139 7.44706 23.9021 7.68283C23.9021 7.8494 23.9558 7.93164 24.063 7.93164C24.3481 7.89249 24.611 7.75922 24.8078 7.55397L24.8368 7.52831C24.7355 7.1608 24.6852 6.78167 24.6872 6.40107C24.6433 4.9052 25.1824 3.44884 26.1956 2.32636C26.6898 1.76753 27.3059 1.32394 27.9986 1.02817C28.6913 0.732396 29.443 0.591959 30.1986 0.617166C30.8147 0.595 31.4294 0.689447 32.0089 0.895308C32.8004 1.21309 33.1959 1.51113 33.1956 1.78945C33.1956 2.00177 32.6425 2.11107 31.5365 2.11736C31.0187 2.10859 30.5047 2.20474 30.0269 2.39975C29.5491 2.59475 29.1179 2.88438 28.7604 3.25036C28.3898 3.62563 28.1001 4.06967 27.9082 4.55623C27.7163 5.04279 27.6263 5.56198 27.6434 6.08312C27.6268 6.63064 27.8178 7.16488 28.1797 7.58331C28.3684 7.78863 28.602 7.94978 28.8633 8.05479C29.1245 8.1598 29.4066 8.20598 29.6886 8.18988C30.2561 8.21098 30.8179 8.07283 31.3075 7.79179C30.8454 7.49108 30.471 7.07853 30.2207 6.59437C29.9705 6.11022 29.8529 5.57097 29.8795 5.02921C29.8696 4.38329 30.1186 3.75918 30.5734 3.29016C30.8006 3.03506 31.0822 2.83167 31.3985 2.6943C31.7148 2.55693 32.058 2.48891 32.4041 2.49502C32.7009 2.46375 33.001 2.50252 33.2792 2.60807C33.5575 2.71362 33.8058 2.88287 34.0031 3.10159C34.3404 3.56064 34.5103 4.1169 34.4857 4.68141C34.4727 5.38403 34.3153 6.07693 34.023 6.71903H34.1442C34.7158 6.71309 35.2631 6.49229 35.6724 6.1025C35.8336 5.94326 35.9713 5.80358 36.0853 5.68345C36.1279 5.63129 36.1812 5.58844 36.2418 5.55767C36.3024 5.52691 36.3689 5.5089 36.4371 5.50483C36.6248 5.50483 36.7186 5.72344 36.7186 6.16064C36.7447 6.49776 36.6931 6.8363 36.5676 7.15139C36.4422 7.46647 36.246 7.75009 35.9936 7.9814ZM4.69377 3.55888C4.29283 3.97213 3.97973 4.4589 3.77255 4.99107C3.56536 5.52324 3.46822 6.09024 3.48672 6.65931C3.48672 7.68004 3.86888 8.1904 4.63319 8.1904C5.05872 8.17001 5.47108 8.03964 5.82814 7.8126C6.1852 7.58557 6.47416 7.27001 6.6655 6.89817C6.87179 6.56407 7.02748 6.20256 7.12773 5.82488C7.10557 4.54158 7.24077 3.26031 7.53044 2.0084C6.44149 2.22256 5.4491 2.7659 4.69377 3.5615V3.55888ZM32.6341 4.09579C32.5633 4.10474 32.4967 4.13407 32.443 4.18006C32.3892 4.22604 32.3507 4.28659 32.3322 4.35403C32.256 4.50934 32.215 4.6789 32.2121 4.85112C32.2041 5.09258 32.2464 5.33312 32.3362 5.55819C32.4261 5.78327 32.5617 5.98822 32.7349 6.16064C32.9523 5.72712 33.0691 5.25209 33.0771 4.76941C33.0771 4.32033 32.9294 4.09579 32.6341 4.09579Z" fill="#0080BD"/>
</g>
<defs>
<clipPath id="clip0_5797_3302">
<rect width="37" height="11" fill="white"/>
</clipPath>
</defs>
</svg>
