<svg width="33" height="15" viewBox="0 0 33 15" fill="none" xmlns="http://www.w3.org/2000/svg">
<g clip-path="url(#clip0_5815_7714)">
<path d="M2.69077 12.2027V7.73976H3.77853C4.75178 7.73976 5.55329 7.85274 6.12579 8.1917C6.6983 8.53067 7.0418 9.0956 7.0418 9.9995C7.0418 11.5248 6.12579 12.2027 3.95028 12.2027H2.69077ZM0.0572504 14.3495H3.89303C8.18681 14.3495 9.73257 12.4852 9.73257 9.88651C9.73257 8.13521 8.98831 6.94885 7.67155 6.27093C6.64105 5.70599 5.32429 5.53651 3.72128 5.53651H2.69077V2.1469H8.47306L9.16006 0.0566406H0V14.3495H0.0572504Z" fill="#0BBBEF"/>
<path d="M11.2339 14.3493H21.31V12.1461H14.6689C15.5849 8.53052 21.1955 7.73961 21.1955 3.72857C21.1955 1.58182 19.7069 0 16.5582 0C14.6117 0 12.8941 0.564935 11.7491 1.12987L12.4362 3.16364C13.4667 2.65519 14.6689 2.20325 16.1574 2.20325C17.3024 2.20325 18.3902 2.71169 18.3902 4.01104C18.3902 6.9487 11.8064 7.17467 11.2339 14.3493ZM21.5962 10.8468H28.0655V14.3493H30.6418V10.8468H32.8173V8.7H30.6418V0H28.7525L21.5962 9.15195V10.8468ZM24.516 8.81299L28.18 3.95455C28.18 4.35 28.0655 5.59286 28.0655 6.72273V8.75649H26.348C25.8327 8.75649 24.8595 8.81299 24.516 8.81299Z" fill="#005893"/>
</g>
<defs>
<clipPath id="clip0_5815_7714">
<rect width="33" height="15" fill="white"/>
</clipPath>
</defs>
</svg>
