<svg width="20" height="20" viewBox="0 0 20 20" fill="none" xmlns="http://www.w3.org/2000/svg">
<path fill-rule="evenodd" clip-rule="evenodd" d="M5 4V3.5C5 1.84315 6.34315 0.5 8 0.5H12C13.6569 0.5 15 1.84315 15 3.5V4H18C19.1046 4 20 4.89543 20 6V16C20 17.1046 19.1046 18 18 18H2C0.895431 18 0 17.1046 0 16V6C0 4.89543 0.895431 4 2 4H5ZM7 3.5C7 2.94772 7.44772 2.5 8 2.5H12C12.5523 2.5 13 2.94772 13 3.5V4H7V3.5ZM10 10C10.8284 10 11.5 9.32843 11.5 8.5C11.5 7.67157 10.8284 7 10 7C9.17157 7 8.5 7.67157 8.5 8.5C8.5 9.32843 9.17157 10 10 10Z" fill="white"/>
</svg>
