<svg width="16" height="16" viewBox="0 0 16 16" fill="none" xmlns="http://www.w3.org/2000/svg">
<rect width="16" height="16" fill="white"/>
<path fill-rule="evenodd" clip-rule="evenodd" d="M7.05788 0.400024C6.84974 0.400024 6.68102 0.56875 6.68102 0.776884V2.19817C6.09375 2.34332 5.53152 2.57563 5.01308 2.88734L4.01148 1.88314C3.94083 1.81232 3.84493 1.77249 3.7449 1.77242C3.64486 1.77236 3.54891 1.81207 3.47817 1.8828L1.8828 3.47817C1.81207 3.54891 1.77236 3.64486 1.77242 3.7449C1.77249 3.84493 1.81232 3.94083 1.88314 4.01148L2.88734 5.01308C2.57563 5.53152 2.34332 6.09375 2.19817 6.68102H0.776884C0.56875 6.68102 0.400024 6.84974 0.400024 7.05788V8.94217C0.400024 9.15031 0.56875 9.31903 0.776884 9.31903H2.19817C2.34332 9.90629 2.57563 10.4685 2.88734 10.987L1.88314 11.9886C1.81232 12.0592 1.77249 12.1551 1.77242 12.2552C1.77236 12.3552 1.81207 12.4511 1.8828 12.5219L3.47817 14.1172C3.54891 14.188 3.64486 14.2277 3.7449 14.2276C3.84493 14.2276 3.94083 14.1877 4.01148 14.1169L5.01308 13.1127C5.53152 13.4244 6.09375 13.6567 6.68102 13.8019V15.2232C6.68102 15.4313 6.84974 15.6 7.05788 15.6H8.94217C9.15031 15.6 9.31903 15.4313 9.31903 15.2232V13.8019C9.90629 13.6567 10.4685 13.4244 10.987 13.1127L11.9886 14.1169C12.0592 14.1877 12.1551 14.2276 12.2552 14.2276C12.3552 14.2277 12.4511 14.188 12.5219 14.1172L14.1172 12.5219C14.188 12.4511 14.2277 12.3552 14.2276 12.2552C14.2276 12.1551 14.1877 12.0592 14.1169 11.9886L13.1127 10.987C13.4244 10.4685 13.6567 9.90629 13.8019 9.31903H15.2232C15.4313 9.31903 15.6 9.15031 15.6 8.94217V7.05788C15.6 6.84974 15.4313 6.68102 15.2232 6.68102H13.8019C13.6567 6.09375 13.4244 5.53152 13.1127 5.01308L14.1169 4.01148C14.1877 3.94083 14.2276 3.84493 14.2276 3.7449C14.2277 3.64486 14.188 3.54891 14.1172 3.47817L12.5219 1.8828C12.4511 1.81207 12.3552 1.77236 12.2552 1.77242C12.1551 1.77249 12.0592 1.81232 11.9886 1.88314L10.987 2.88734C10.4685 2.57563 9.90629 2.34332 9.31903 2.19817V0.776884C9.31903 0.56875 9.15031 0.400024 8.94217 0.400024H7.05788ZM5.36201 8.00002C5.36201 6.54309 6.54309 5.36201 8.00002 5.36201C9.45696 5.36201 10.638 6.54309 10.638 8.00002C10.638 9.45696 9.45696 10.638 8.00002 10.638C6.54309 10.638 5.36201 9.45696 5.36201 8.00002Z" fill="#D2D8DE"/>
</svg>
