<svg width="16" height="16" viewBox="0 0 16 16" fill="none" xmlns="http://www.w3.org/2000/svg">
<path fill-rule="evenodd" clip-rule="evenodd" d="M9.33058 2.4H2.85124C2.59563 2.4 2.38843 2.60893 2.38843 2.86666V9.4C2.38843 9.65773 2.59563 9.86666 2.85124 9.86666H9.33058C9.58617 9.86666 9.79339 9.65773 9.79339 9.4V2.86666C9.79339 2.60893 9.58617 2.4 9.33058 2.4ZM2.85124 1C1.82883 1 1 1.83574 1 2.86666V9.4C1 10.4309 1.82883 11.2667 2.85124 11.2667H9.33058C10.353 11.2667 11.1818 10.4309 11.1818 9.4V2.86666C11.1818 1.83574 10.353 1 9.33058 1H2.85124Z" fill="#D2D8DE"/>
<path fill-rule="evenodd" clip-rule="evenodd" d="M4.81812 12.2001V13.1334C4.81812 14.1644 5.64695 15.0001 6.66936 15.0001H13.1487C14.1711 15.0001 14.9999 14.1644 14.9999 13.1334V6.60006C14.9999 5.56913 14.1711 4.7334 13.1487 4.7334H12.2231V6.1334H13.1487C13.4043 6.1334 13.6115 6.34233 13.6115 6.60006V13.1334C13.6115 13.3911 13.4043 13.6001 13.1487 13.6001H6.66936C6.41375 13.6001 6.20655 13.3911 6.20655 13.1334V12.2001H4.81812Z" fill="#D2D8DE"/>
</svg>
