<svg width="14" height="14" viewBox="0 0 14 14" fill="none" xmlns="http://www.w3.org/2000/svg">
<g clip-path="url(#clip0_5101_42260)">
<path d="M7.58329 11.6667C8.35656 11.6658 9.09789 11.3582 9.64467 10.8114C10.1914 10.2646 10.499 9.52327 10.5 8.75001V3.64176C10.5009 3.33514 10.4409 3.03138 10.3235 2.7481C10.2062 2.46483 10.0338 2.20766 9.81629 1.99151L8.50846 0.683677C8.29231 0.466195 8.03514 0.293778 7.75187 0.176422C7.46859 0.0590653 7.16483 -0.000897138 6.85821 1.01439e-05H4.08329C3.31003 0.000936394 2.5687 0.308525 2.02192 0.855305C1.47514 1.40209 1.16755 2.14341 1.16663 2.91668V8.75001C1.16755 9.52327 1.47514 10.2646 2.02192 10.8114C2.5687 11.3582 3.31003 11.6658 4.08329 11.6667H7.58329ZM2.33329 8.75001V2.91668C2.33329 2.45255 2.51767 2.00743 2.84586 1.67924C3.17404 1.35105 3.61916 1.16668 4.08329 1.16668C4.08329 1.16668 6.95271 1.17484 6.99996 1.18068V2.33334C6.99996 2.64276 7.12288 2.93951 7.34167 3.1583C7.56046 3.37709 7.85721 3.50001 8.16663 3.50001H9.31929C9.32513 3.54726 9.33329 8.75001 9.33329 8.75001C9.33329 9.21414 9.14892 9.65926 8.82073 9.98745C8.49254 10.3156 8.04742 10.5 7.58329 10.5H4.08329C3.61916 10.5 3.17404 10.3156 2.84586 9.98745C2.51767 9.65926 2.33329 9.21414 2.33329 8.75001ZM12.8333 4.66668V11.0833C12.8324 11.8566 12.5248 12.5979 11.978 13.1447C11.4312 13.6915 10.6899 13.9991 9.91663 14H4.66663C4.51192 14 4.36354 13.9386 4.25415 13.8292C4.14475 13.7198 4.08329 13.5714 4.08329 13.4167C4.08329 13.262 4.14475 13.1136 4.25415 13.0042C4.36354 12.8948 4.51192 12.8333 4.66663 12.8333H9.91663C10.3808 12.8333 10.8259 12.649 11.1541 12.3208C11.4823 11.9926 11.6666 11.5475 11.6666 11.0833V4.66668C11.6666 4.51197 11.7281 4.36359 11.8375 4.2542C11.9469 4.1448 12.0953 4.08334 12.25 4.08334C12.4047 4.08334 12.553 4.1448 12.6624 4.2542C12.7718 4.36359 12.8333 4.51197 12.8333 4.66668Z" fill="#D2D8DE"/>
</g>
<defs>
<clipPath id="clip0_5101_42260">
<rect width="14" height="14" fill="white"/>
</clipPath>
</defs>
</svg>
