<svg width="16" height="16" viewBox="0 0 16 16" fill="none" xmlns="http://www.w3.org/2000/svg">
<path fill-rule="evenodd" clip-rule="evenodd" d="M3.36363 1.77778C3.36363 1.34822 3.72994 1 4.18181 1H11.8182C12.2701 1 12.6364 1.34822 12.6364 1.77778C12.6364 2.20733 12.2701 2.55556 11.8182 2.55556H4.18181C3.72994 2.55556 3.36363 2.20733 3.36363 1.77778ZM2.81818 5.66667H2V4.11111H14V5.66667H13.1818V12.1481C13.1818 13.7232 11.8387 15 10.1818 15H5.81818C4.16132 15 2.81818 13.7232 2.81818 12.1481V5.66667ZM11.5455 5.66667H4.45455V12.1481C4.45455 12.8641 5.06508 13.4444 5.81818 13.4444H10.1818C10.9349 13.4444 11.5455 12.8641 11.5455 12.1481V5.66667Z" fill="#D2D8DE"/>
</svg>
