<svg width="10" height="10" viewBox="0 0 10 10" fill="none" xmlns="http://www.w3.org/2000/svg">
<path d="M5.33331 1.01683L8.98252 1L8.99998 4.55237L5.33331 1.01683Z" fill="#D2D8DE"/>
<path fill-rule="evenodd" clip-rule="evenodd" d="M3.64007 5.47307L7.30674 1.93754L8.0266 2.63165L4.35993 6.16719L3.64007 5.47307Z" fill="#D2D8DE"/>
<path fill-rule="evenodd" clip-rule="evenodd" d="M0.5 1.5C0.5 0.947715 0.947715 0.5 1.5 0.5H4.5V1.5H2C1.72386 1.5 1.5 1.72386 1.5 2V8C1.5 8.27614 1.72386 8.5 2 8.5H8C8.27614 8.5 8.5 8.27614 8.5 8V5.5H9.5V8.5C9.5 9.05229 9.05229 9.5 8.5 9.5H1.5C0.947715 9.5 0.5 9.05229 0.5 8.5V1.5Z" fill="#D2D8DE"/>
</svg>
