<svg width="14" height="13" viewBox="0 0 14 13" fill="none" xmlns="http://www.w3.org/2000/svg">
<path d="M7.7 3.15001C7.7 4.50311 8.7969 5.60001 10.15 5.60001C11.5031 5.60001 12.6 4.50311 12.6 3.15001C12.6 1.79691 11.5031 0.700012 10.15 0.700012C8.7969 0.700012 7.7 1.79691 7.7 3.15001Z" fill="#535C69"/>
<path d="M2.1 2.80001H3.5V4.90001H5.6V6.30001H3.5V8.40001H2.1V6.30001H0V4.90001H2.1V2.80001Z" fill="#535C69"/>
<path d="M13.3 9.10001C13.3 8.32681 12.6732 7.70001 11.9 7.70001H8.4C6.0804 7.70001 4.2 9.58042 4.2 11.9V12.6H13.3V9.10001Z" fill="#535C69"/>
</svg>
