<svg width="20" height="34" viewBox="0 0 20 34" fill="none" xmlns="http://www.w3.org/2000/svg">
<g clip-path="url(#clip0_5815_1503)">
<path fill-rule="evenodd" clip-rule="evenodd" d="M13.592 28.8011L12.2908 32.2523C11.8733 33.3598 10.6306 33.9215 9.51523 33.507C8.93436 33.291 8.47524 32.8372 8.25515 32.2615L2.84254 18.1018C2.47275 17.1344 2.96279 16.0526 3.93707 15.6854C4.15097 15.6048 4.37785 15.5635 4.60663 15.5635H15.8617C16.9038 15.5635 17.7486 16.4023 17.7486 17.437C17.7486 17.6613 17.708 17.8838 17.6288 18.0938C17.3527 18.8263 16.6559 19.3105 15.8782 19.3105H8.95653C8.28661 19.3105 7.74353 19.8498 7.74353 20.515C7.74353 21.1801 8.28661 21.7194 8.95653 21.7194H13.9964C14.8768 21.7194 15.5905 22.4383 15.5905 23.3253C15.5905 24.2122 14.8768 24.9311 13.9964 24.9311H10.5739C9.90394 24.9311 9.36086 25.4704 9.36086 26.1355C9.36086 26.8007 9.90394 27.34 10.5739 27.34H12.5914C13.1825 27.34 13.6617 27.8227 13.6617 28.4183C13.6617 28.5491 13.6381 28.6788 13.592 28.8011Z" fill="#FFE53B"/>
<path fill-rule="evenodd" clip-rule="evenodd" d="M9.15269 8.90912C9.15269 11.3323 7.17516 13.2971 4.73764 13.2971C2.29882 13.2971 0.321289 11.3323 0.321289 8.90912C0.321289 6.48728 2.29882 4.52246 4.73764 4.52246C7.17516 4.52246 9.15269 6.48728 9.15269 8.90912Z" fill="#40BDFF"/>
<path fill-rule="evenodd" clip-rule="evenodd" d="M16.9032 6.53279C16.9032 9.91295 14.1444 12.6512 10.7418 12.6512C7.33789 12.6512 4.5791 9.91295 4.5791 6.53279C4.5791 3.15263 7.33789 0.413086 10.7418 0.413086C14.1444 0.413086 16.9032 3.15263 16.9032 6.53279Z" fill="#FF5E86"/>
<path fill-rule="evenodd" clip-rule="evenodd" d="M19.931 9.56961C19.931 11.6282 18.2509 13.2974 16.179 13.2974C14.1071 13.2974 12.4258 11.6282 12.4258 9.56961C12.4258 7.50974 14.1071 5.8418 16.179 5.8418C18.2509 5.8418 19.931 7.50974 19.931 9.56961Z" fill="#FF92BB"/>
</g>
<defs>
<clipPath id="clip0_5815_1503">
<rect width="20" height="34" fill="white"/>
</clipPath>
</defs>
</svg>
