<svg width="20" height="20" viewBox="0 0 20 20" fill="none" xmlns="http://www.w3.org/2000/svg">
<path fill-rule="evenodd" clip-rule="evenodd" d="M9.99998 6C7.77205 6 5.59687 6.9496 3.9367 8.7223L2.74012 9.99998L3.9367 11.2777C5.60258 13.0565 7.67481 14 9.99998 14C12.3252 14 14.3974 13.0565 16.0633 11.2777L17.2599 9.99998L16.0633 8.7223C14.4031 6.9496 12.2279 6 9.99998 6ZM20 9.99998L17.5231 12.6448C15.5084 14.7961 12.9198 16 9.99998 16C7.08018 16 4.49163 14.7961 2.47691 12.6448L0 9.99998L2.47691 7.35518C4.4944 5.20094 7.18913 4 9.99998 4C12.8108 4 15.5056 5.20094 17.5231 7.35518L20 9.99998Z" fill="white"/>
<path d="M10.0001 6.84607C9.68466 6.84607 9.36928 6.9512 9.0539 6.9512C9.57954 7.16146 10.0001 7.79223 10.0001 8.423C10.0001 9.26403 9.26415 9.99993 8.42312 9.99993C7.79235 9.99993 7.26671 9.57942 6.95133 9.05378C6.8462 9.36916 6.84619 9.68454 6.84619 9.99993C6.84619 11.7871 8.21286 13.1538 10.0001 13.1538C11.7872 13.1538 13.1539 11.7871 13.1539 9.99993C13.1539 8.21274 11.7872 6.84607 10.0001 6.84607Z" fill="white"/>
</svg>
