<svg width="232" height="232" viewBox="0 0 232 232" fill="none" xmlns="http://www.w3.org/2000/svg">
<mask id="mask0_1339_59699" style="mask-type:luminance" maskUnits="userSpaceOnUse" x="0" y="0" width="232" height="232">
<path d="M232 0H0V232H232V0Z" fill="white"/>
</mask>
<g mask="url(#mask0_1339_59699)">
<path d="M232 116C232.045 85.2349 219.866 55.7121 198.143 33.9263C176.421 12.1405 146.934 -0.123721 116.168 -0.16838C85.4033 -0.213039 55.8805 11.9656 34.0947 33.6882C12.3089 55.4108 0.0446597 84.8981 0 115.663C0 115.663 0 115.663 0 115.888C0 116.112 0 115.888 0 116.112V232H116.337C147.043 231.911 176.462 219.65 198.144 197.906C219.825 176.161 232 146.707 232 116Z" fill="#6266EA"/>
<g style="mix-blend-mode:multiply" opacity="0.4">
<path d="M116.374 232C139.38 231.927 161.845 225.014 180.913 212.141C199.98 199.268 214.79 181.016 223.458 159.705C232.126 138.394 234.261 114.987 229.592 92.4597C224.923 69.9321 213.661 49.3017 197.237 33.191L0.0373535 232H116.374Z" fill="white"/>
</g>
<path d="M174.026 75.3481C173.256 74.5521 172.22 74.0744 171.121 74.008C170.022 73.9416 168.937 74.2911 168.078 74.9886L101.01 135.01L65.0236 118.229C64.1594 117.538 63.0719 117.196 61.9726 117.271C60.8733 117.345 59.8408 117.831 59.0758 118.634C58.3834 119.41 58 120.418 58 121.464C58 122.51 58.3834 123.518 59.0758 124.294L93.4647 155.586C93.4647 155.586 93.8198 155.811 93.9529 155.946C94.0861 156.081 94.1748 156.35 94.3524 156.485C94.7615 156.773 95.1919 157.028 95.6396 157.249C96.1719 157.628 96.7363 157.959 97.3263 158.237C97.952 158.491 98.6091 158.657 99.2793 158.731C100.512 159.09 101.819 159.09 103.052 158.731C103.722 158.657 104.379 158.491 105.005 158.237C105.595 157.959 106.16 157.628 106.692 157.249C107.14 157.028 107.57 156.773 107.979 156.485C107.979 156.485 108.201 156.125 108.379 155.946C108.556 155.766 108.734 155.946 108.867 155.586L174.026 80.9639C174.657 80.167 175 79.1767 175 78.156C175 77.1352 174.657 76.1449 174.026 75.3481Z" fill="white"/>
</g>
</svg>
