<svg width="95" height="95" viewBox="0 0 95 95" fill="none" xmlns="http://www.w3.org/2000/svg">
<g clip-path="url(#clip0_222_13445)">
<path d="M71.25 53.4375C71.25 52.345 72.1367 51.4583 73.2292 51.4583H77.1875C78.28 51.4583 79.1667 52.345 79.1667 53.4375C79.1667 54.53 78.28 55.4167 77.1875 55.4167H73.2292C72.1367 55.4167 71.25 54.53 71.25 53.4375ZM73.2292 71.25H77.1875C78.28 71.25 79.1667 70.3633 79.1667 69.2708C79.1667 68.1783 78.28 67.2917 77.1875 67.2917H73.2292C72.1367 67.2917 71.25 68.1783 71.25 69.2708C71.25 70.3633 72.1367 71.25 73.2292 71.25ZM57.3958 23.75H61.3542C62.4467 23.75 63.3333 22.8633 63.3333 21.7708C63.3333 20.6783 62.4467 19.7917 61.3542 19.7917H57.3958C56.3033 19.7917 55.4167 20.6783 55.4167 21.7708C55.4167 22.8633 56.3033 23.75 57.3958 23.75ZM73.2292 23.75H77.1875C78.28 23.75 79.1667 22.8633 79.1667 21.7708C79.1667 20.6783 78.28 19.7917 77.1875 19.7917H73.2292C72.1367 19.7917 71.25 20.6783 71.25 21.7708C71.25 22.8633 72.1367 23.75 73.2292 23.75ZM73.2292 39.5833H77.1875C78.28 39.5833 79.1667 38.6967 79.1667 37.6042C79.1667 36.5117 78.28 35.625 77.1875 35.625H73.2292C72.1367 35.625 71.25 36.5117 71.25 37.6042C71.25 38.6967 72.1367 39.5833 73.2292 39.5833ZM61.3542 35.625H57.3958C56.3033 35.625 55.4167 36.5117 55.4167 37.6042C55.4167 38.6967 56.3033 39.5833 57.3958 39.5833H61.3542C62.4467 39.5833 63.3333 38.6967 63.3333 37.6042C63.3333 36.5117 62.4467 35.625 61.3542 35.625ZM77.1875 0H57.3958C47.5752 0 39.5833 7.99188 39.5833 17.8125V29.6875C39.5833 30.78 40.47 31.6667 41.5625 31.6667C42.655 31.6667 43.5417 30.78 43.5417 29.6875V17.8125C43.5417 10.1729 49.7562 3.95833 57.3958 3.95833H77.1875C84.8271 3.95833 91.0417 10.1729 91.0417 17.8125V77.1875C91.0417 84.8271 84.8271 91.0417 77.1875 91.0417H65.3125C64.22 91.0417 63.3333 91.9283 63.3333 93.0208C63.3333 94.1133 64.22 95 65.3125 95H77.1875C87.0081 95 95 87.0081 95 77.1875V17.8125C95 7.99188 87.0081 0 77.1875 0ZM59.375 62.7317V79.1667C59.375 87.8988 52.2738 95 43.5417 95H15.8333C7.10125 95 0 87.8988 0 79.1667V62.7317C0 57.2177 2.49375 52.1035 6.83604 48.7033L18.711 39.4092C25.175 34.3544 34.2079 34.3544 40.664 39.4092L52.5429 48.7033C56.8852 52.1035 59.379 57.2177 59.379 62.7317H59.375ZM55.4167 62.7317C55.4167 58.4448 53.481 54.4667 50.0967 51.8185L38.2217 42.5244C35.7081 40.561 32.6958 39.5754 29.6875 39.5754C26.6792 39.5754 23.6669 40.561 21.1494 42.5244L9.27833 51.8185C5.89792 54.4667 3.95833 58.4448 3.95833 62.7317V79.1667C3.95833 85.7137 9.28625 91.0417 15.8333 91.0417H43.5417C50.0887 91.0417 55.4167 85.7137 55.4167 79.1667V62.7317ZM39.5833 65.3125V73.2292C39.5833 76.5027 36.9194 79.1667 33.6458 79.1667H25.7292C22.4556 79.1667 19.7917 76.5027 19.7917 73.2292V65.3125C19.7917 62.039 22.4556 59.375 25.7292 59.375H33.6458C36.9194 59.375 39.5833 62.039 39.5833 65.3125ZM35.625 65.3125C35.625 64.224 34.7344 63.3333 33.6458 63.3333H25.7292C24.6406 63.3333 23.75 64.224 23.75 65.3125V73.2292C23.75 74.3177 24.6406 75.2083 25.7292 75.2083H33.6458C34.7344 75.2083 35.625 74.3177 35.625 73.2292V65.3125Z" fill="#AFB6C1"/>
</g>
<defs>
<clipPath id="clip0_222_13445">
<rect width="95" height="95" fill="white"/>
</clipPath>
</defs>
</svg>
