<svg width="12" height="12" viewBox="0 0 12 12" fill="none" xmlns="http://www.w3.org/2000/svg">
<path d="M9.43907 1.2001H11.3996V2.4001H9.43907C9.23158 2.75878 8.84378 3.0001 8.39961 3.0001C7.95544 3.0001 7.56763 2.75878 7.36015 2.4001H0.599609V1.2001H7.36015C7.56763 0.841417 7.95544 0.600098 8.39961 0.600098C8.84378 0.600098 9.23158 0.841417 9.43907 1.2001Z" fill="#AFB6C1"/>
<path d="M11.3996 5.4001H4.63907C4.43158 5.04142 4.04378 4.8001 3.59961 4.8001C3.15544 4.8001 2.76763 5.04142 2.56015 5.4001H0.599609V6.6001H2.56015C2.76763 6.95878 3.15544 7.2001 3.59961 7.2001C4.04378 7.2001 4.43158 6.95878 4.63907 6.6001H11.3996V5.4001Z" fill="#AFB6C1"/>
<path d="M4.96015 9.6001H0.599609V10.8001H4.96015C5.16763 11.1588 5.55544 11.4001 5.99961 11.4001C6.44378 11.4001 6.83159 11.1588 7.03907 10.8001H11.3996V9.6001H7.03907C6.83158 9.24142 6.44378 9.0001 5.99961 9.0001C5.55544 9.0001 5.16763 9.24142 4.96015 9.6001Z" fill="#AFB6C1"/>
</svg>
