<svg width="86" height="86" viewBox="0 0 86 86" fill="none" xmlns="http://www.w3.org/2000/svg">
<path d="M85.0253 45.2933L72.1397 26.875L84.9967 8.55342C86.1541 6.90867 86.2938 4.773 85.3657 2.9885C84.4377 1.20042 82.6102 0.0895844 80.5963 0.0895844H12.5273C5.6115 0.0895844 -0.0143356 5.719 -0.0143356 12.6348L-2.2985e-06 84.2083C-2.2985e-06 85.1973 0.802664 86 1.79166 86C2.78066 86 3.58333 85.1973 3.58333 84.2083V53.75H80.6178C82.6317 53.75 84.4556 52.6392 85.3872 50.8582C86.3153 49.0737 86.1792 46.9417 85.0253 45.2898V45.2933ZM82.2088 49.2063C81.8935 49.8083 81.2987 50.1703 80.6178 50.1703H3.57616L3.569 12.6384C3.569 7.69342 7.5895 3.67292 12.5273 3.67292H80.5927C81.2736 3.67292 81.8684 4.03483 82.1837 4.64042C82.4955 5.246 82.4525 5.93758 82.0619 6.49658L68.4847 25.8466C68.0511 26.4629 68.0511 27.2835 68.4847 27.9034L82.0906 47.3466C82.4812 47.9056 82.5242 48.6008 82.2124 49.2063H82.2088Z" fill="#AFB6C1"/>
</svg>
