<svg width="34" height="21" viewBox="0 0 34 21" fill="none" xmlns="http://www.w3.org/2000/svg">
<g clip-path="url(#clip0_5815_2634)">
<path d="M33.3453 19.4826C33.3453 20.2694 32.6982 20.8689 31.9369 20.8689H1.40842C0.647112 20.9063 0 20.2694 0 19.4826V1.38626C0 0.636931 0.647112 0 1.40842 0H31.8988C32.6982 0 33.3072 0.636931 33.3072 1.38626V19.4826H33.3453Z" fill="#00BAFF"/>
<path d="M33.0405 0.524414C29.0817 6.55653 22.9532 12.1016 16.6344 11.9517C14.3124 11.9142 11.6478 11.2398 9.40193 9.44145C7.72705 8.09266 6.05217 5.99453 5.40506 2.99721C5.13861 2.99721 4.94828 2.99721 4.71989 2.99721C3.69212 2.99721 3.08307 3.8964 3.19727 4.72067C3.23534 4.908 3.2734 5.1328 3.31147 5.3576C3.80632 8.27999 5.55732 11.577 8.48836 13.7126C10.7723 15.3612 13.5891 16.4477 16.6724 16.4477C22.23 16.4477 28.1682 12.9633 33.3451 4.0088V1.38614C33.3451 1.08641 33.2309 0.749213 33.0405 0.524414Z" fill="white"/>
</g>
<defs>
<clipPath id="clip0_5815_2634">
<rect width="34" height="21" fill="white"/>
</clipPath>
</defs>
</svg>
