<svg width="18" height="18" viewBox="0 0 18 18" fill="none" xmlns="http://www.w3.org/2000/svg">
<g clip-path="url(#clip0_87_12167)">
<path d="M3.98918 10.8777L3.36263 13.2167L1.07258 13.2651C0.388195 11.9957 0 10.5434 0 9.00004C0 7.50762 0.362953 6.10025 1.00631 4.86102H1.0068L3.04559 5.2348L3.9387 7.26135C3.75177 7.80631 3.64989 8.39131 3.64989 9.00004C3.64996 9.66069 3.76963 10.2937 3.98918 10.8777Z" fill="#FBBB00"/>
<path d="M17.8427 7.31866C17.9461 7.86309 18 8.42535 18 8.99998C18 9.64432 17.9323 10.2728 17.8032 10.8791C17.3651 12.9422 16.2203 14.7437 14.6344 16.0185L14.6339 16.018L12.066 15.887L11.7025 13.6182C12.7548 13.001 13.5772 12.0353 14.0104 10.8791H9.19786V7.31866H14.0806H17.8427Z" fill="#518EF8"/>
<path d="M14.6339 16.018L14.6344 16.0185C13.0921 17.2582 11.1328 18 9 18C5.57259 18 2.59271 16.0843 1.07259 13.2651L3.98918 10.8776C4.74923 12.9061 6.70599 14.35 9 14.35C9.98603 14.35 10.9098 14.0835 11.7025 13.6182L14.6339 16.018Z" fill="#28B446"/>
<path d="M14.7447 2.07197L11.8291 4.45894C11.0087 3.94615 10.0389 3.64992 9.00001 3.64992C6.65406 3.64992 4.6607 5.16013 3.93874 7.26131L1.00681 4.86098H1.00632C2.50418 1.97307 5.52165 0 9.00001 0C11.1837 0 13.186 0.777867 14.7447 2.07197Z" fill="#F14336"/>
</g>
<defs>
<clipPath id="clip0_87_12167">
<rect width="18" height="18" fill="white"/>
</clipPath>
</defs>
</svg>
