<svg width="16" height="16" viewBox="0 0 16 16" fill="none" xmlns="http://www.w3.org/2000/svg">
<path d="M0.799805 1.90005C0.799805 1.01636 1.51615 0.300049 2.3998 0.300049H8.7998C9.68346 0.300049 10.3998 1.01636 10.3998 1.90005V6.70005C10.3998 7.58374 9.68346 8.30005 8.7998 8.30005H6.3998L2.3998 11.5L3.1998 8.30005H2.3998C1.51615 8.30005 0.799805 7.58374 0.799805 6.70005V1.90005Z" fill="#6266EA"/>
<path d="M5.5998 10.7V9.90005H8.7998C10.3998 9.90005 11.9998 9.10005 11.9998 7.50005V4.30005H13.5998C14.4835 4.30005 15.1998 5.01636 15.1998 5.90005V10.7C15.1998 11.5837 14.4835 12.3 13.5998 12.3H12.7998L13.5998 15.5L9.5998 12.3H7.1998C6.31615 12.3 5.5998 11.5837 5.5998 10.7Z" fill="#6266EA"/>
</svg>
