<svg width="14" height="14" viewBox="0 0 14 14" fill="none" xmlns="http://www.w3.org/2000/svg">
<g opacity="0.6" clip-path="url(#clip0_4163_7512)">
<path d="M13.8366 6.52116C13.6239 6.17809 13.2479 5.97301 12.8309 5.97301H3.54598C3.08573 5.97301 2.66713 6.23245 2.47925 6.63417L0.0234375 11.7832C0.11615 12.1603 0.468308 12.4419 0.887757 12.4419H10.7662C11.1886 12.4419 11.5746 12.2031 11.7632 11.8252L13.8859 7.57069C14.0535 7.23402 14.0349 6.84171 13.8366 6.52116Z" fill="#7D8790" fill-opacity="0.6"/>
<path d="M1.97975 5.84217C2.16742 5.44056 2.58612 5.18101 3.04648 5.18101H11.7898V4.06269C11.7898 3.60169 11.4009 3.22657 10.9229 3.22657H5.82476C5.81728 3.22657 5.81215 3.22464 5.81023 3.22326L4.89774 1.94739C4.73613 1.72106 4.46921 1.58594 4.18402 1.58594H0.867096C0.388901 1.58594 0 1.96106 0 2.42206V9.99287L1.97975 5.84217Z" fill="#7D8790" fill-opacity="0.6"/>
</g>
<defs>
<clipPath id="clip0_4163_7512">
<rect width="14" height="14" fill="white"/>
</clipPath>
</defs>
</svg>
