<svg width="16" height="15" viewBox="0 0 16 15" fill="none" xmlns="http://www.w3.org/2000/svg">
<path d="M7.9998 9.10005H15.1998V10.7H7.9998V9.10005Z" fill="#464AD9"/>
<path d="M7.9998 12.3H12.7998V13.9H7.9998V12.3Z" fill="#464AD9"/>
<path d="M0.799805 9.90005C0.799805 9.45822 1.15798 9.10005 1.5998 9.10005H5.5998C6.04163 9.10005 6.3998 9.45822 6.3998 9.90005V13.9C6.3998 14.3419 6.04163 14.7 5.5998 14.7H1.5998C1.15798 14.7 0.799805 14.3419 0.799805 13.9V9.90005Z" fill="#464AD9"/>
<path d="M7.9998 3.50005H12.7998V5.10005H7.9998V3.50005Z" fill="#464AD9"/>
<path d="M7.9998 0.300049H15.1998V1.90005H7.9998V0.300049Z" fill="#464AD9"/>
<path d="M0.799805 1.10005C0.799805 0.658221 1.15798 0.300049 1.5998 0.300049H5.5998C6.04163 0.300049 6.3998 0.658221 6.3998 1.10005V5.10005C6.3998 5.54188 6.04163 5.90005 5.5998 5.90005H1.5998C1.15798 5.90005 0.799805 5.54188 0.799805 5.10005V1.10005Z" fill="#464AD9"/>
</svg>
