<svg width="16" height="13" viewBox="0 0 16 13" fill="none" xmlns="http://www.w3.org/2000/svg">
<path d="M12.8 3.69998C12.8 4.80454 11.9046 5.69998 10.8 5.69998C9.69543 5.69998 8.8 4.80454 8.8 3.69998C8.8 2.59541 9.69543 1.69998 10.8 1.69998C11.9046 1.69998 12.8 2.59541 12.8 3.69998Z" fill="#6266EA"/>
<path d="M5.6 7.29998H1.6C0.716344 7.29998 0 8.01632 0 8.89997V12.9H10.4V12.1C10.4 9.44901 8.25097 7.29998 5.6 7.29998Z" fill="#6266EA"/>
<path d="M16 11.3C16 9.09084 14.2091 7.29998 12 7.29998H8C10.4 7.29998 12.8 9.26465 12.8 12.3233V12.9H16V11.3Z" fill="#6266EA"/>
<path d="M7.2 2.89998C7.2 4.44637 5.9464 5.69998 4.4 5.69998C2.8536 5.69998 1.6 4.44637 1.6 2.89998C1.6 1.35358 2.8536 0.0999756 4.4 0.0999756C5.9464 0.0999756 7.2 1.35358 7.2 2.89998Z" fill="#6266EA"/>
</svg>
