<svg width="1em" height="1em" viewBox="0 0 20 20" fill="currentColor" stroke="currentColor" stroke-width="0" xmlns="http://www.w3.org/2000/svg">
<path fill-rule="evenodd" clip-rule="evenodd" d="M3.6 11.6C4.48 11.6 5.2 10.88 5.2 10C5.2 9.12 4.48 8.4 3.6 8.4C2.72 8.4 2 9.12 2 10C2 10.88 2.72 11.6 3.6 11.6ZM10 11.6C10.88 11.6 11.6 10.88 11.6 10C11.6 9.12001 10.88 8.40001 10 8.40001C9.12 8.40001 8.4 9.12001 8.4 10C8.4 10.88 9.12 11.6 10 11.6ZM16.4 11.6C17.28 11.6 18 10.88 18 10C18 9.12001 17.28 8.40001 16.4 8.40001C15.52 8.40001 14.8 9.12001 14.8 10C14.8 10.88 15.52 11.6 16.4 11.6Z"/>
</svg>
