<svg width="32" height="35" viewBox="0 0 32 35" fill="none" xmlns="http://www.w3.org/2000/svg">
<g clip-path="url(#clip0_5815_6998)">
<path d="M7.18991 18.1232C6.94345 18.1105 6.69639 18.1276 6.45384 18.1741C6.04921 18.2408 5.66163 18.3891 5.31366 18.6104C4.96569 18.8318 4.6643 19.1216 4.42705 19.4631C4.1898 19.8047 4.02144 20.191 3.93177 20.5997C3.8421 21.0084 3.83291 21.4312 3.90475 21.8436C4.0811 23.5442 5.85532 24.9782 7.49777 25.0209C7.66634 25.0253 7.83494 25.0138 8.00147 24.9867C9.77879 24.6927 10.2441 22.8211 9.95118 20.9827C9.62025 18.907 8.17254 18.1753 7.18991 18.1232ZM8.93143 23.041C8.8564 23.1558 8.75226 23.2476 8.63013 23.3066C8.50801 23.3655 8.37249 23.3895 8.23807 23.3759C8.00178 23.3568 7.78143 23.2466 7.62166 23.0677C7.46188 22.8887 7.37463 22.6545 7.37758 22.4123C7.37347 22.0895 7.43436 21.7693 7.55647 21.4716C7.63273 21.2825 7.64006 21.0717 7.57713 20.8776C7.5142 20.6834 7.38519 20.5188 7.21354 20.4135C7.00263 20.2799 6.74958 20.2342 6.5066 20.2856C6.27127 20.3318 6.06332 20.4711 5.92803 20.6732C5.83671 20.8241 5.76541 20.9867 5.71602 21.1568C5.7064 21.1866 5.69876 21.2099 5.69295 21.2251C5.61242 21.435 5.48391 21.4964 5.39702 21.485C5.36502 21.479 5.33538 21.4637 5.31164 21.441C5.2879 21.4183 5.27106 21.389 5.26313 21.3568C5.21806 21.0766 5.23918 20.7895 5.32473 20.5194C5.41028 20.2492 5.55778 20.0039 5.75494 19.8039C5.92665 19.6288 6.13521 19.496 6.36473 19.4157C6.59425 19.3354 6.83868 19.3098 7.07938 19.3406C7.33215 19.3717 7.57372 19.4651 7.78324 19.6129C7.99276 19.7607 8.16392 19.9584 8.28195 20.1889C8.39551 20.4663 8.44145 20.7677 8.41581 21.0673C8.39017 21.3669 8.29373 21.6556 8.13476 21.9087C8.11467 21.9525 8.09626 21.9925 8.08055 22.0284C8.02338 22.1275 7.99182 22.2399 7.98885 22.3549C7.98588 22.4699 8.01159 22.5839 8.06357 22.686C8.1093 22.7482 8.16901 22.7983 8.23765 22.8321C8.3063 22.8658 8.38187 22.8822 8.45801 22.8799C8.53071 22.8789 8.60303 22.8691 8.67342 22.8505C8.76471 22.8299 8.85911 22.8087 8.91657 22.8785C8.93563 22.9005 8.94735 22.9281 8.95002 22.9573C8.9527 22.9865 8.94618 23.0158 8.93143 23.041V23.041Z" fill="white"/>
<path d="M29.9022 26.5285C30.273 25.5669 30.4874 24.5498 30.5368 23.5175C30.5368 22.2483 29.8336 21.7222 29.3858 21.7222C29.3721 21.6732 29.2836 21.3423 29.1616 20.9439C29.0918 20.7128 29.0091 20.4861 28.9137 20.2649C29.2801 19.7475 29.4352 19.1048 29.3461 18.4727C29.2728 17.9853 29.046 17.5356 28.7001 17.1917C28.0436 16.6222 27.2602 16.2263 26.4188 16.0387C26.292 16.0025 25.8742 15.8855 25.8375 15.874C25.8347 15.8496 25.807 14.4759 25.7818 13.8861C25.771 13.2947 25.6847 12.7073 25.5253 12.1387C25.3271 11.3227 24.9174 10.5764 24.3392 9.97827C25.7867 8.44713 26.6904 6.76052 26.6882 5.31361C26.6841 2.531 23.3351 1.68895 19.2082 3.43283C19.2037 3.43479 18.3399 3.80846 18.3337 3.81167C18.3299 3.80776 16.7529 2.22899 16.7292 2.20776C12.024 -1.98017 -2.68781 14.7063 2.01583 18.759L3.04376 19.6476C2.76638 20.4071 2.66844 21.2229 2.75793 22.0284C2.89727 23.2004 3.46415 24.2754 4.34535 25.0389C5.20068 25.8321 6.30572 26.2862 7.46035 26.3187C9.29075 30.623 13.4728 33.2634 18.3765 33.412C23.6366 33.5714 28.0521 31.0528 29.9022 26.5285ZM30.9819 21.4348C31.4325 22.029 31.6643 22.7662 31.6369 23.5175C31.5895 24.6894 31.3497 25.8447 30.9275 26.9353L30.9175 26.9609C29.9631 29.3064 28.2966 31.2765 26.1637 32.5811C23.9436 33.9006 21.4143 34.5784 18.8463 34.5418H18.8457C18.6796 34.5418 18.5108 34.5392 18.3439 34.5341C15.8094 34.48 13.3353 33.7337 11.1784 32.3727C9.27973 31.1569 7.74327 29.4328 6.73577 27.3876C5.57504 27.2034 4.49139 26.6795 3.61584 25.8793C2.52727 24.9289 1.82994 23.5936 1.66333 22.1405C1.58908 21.4344 1.62914 20.7207 1.78188 20.0279L1.30467 19.6156C0.918403 19.2747 0.604495 18.8566 0.382272 18.387C0.160049 17.9175 0.0342132 17.4064 0.0125093 16.8853C-0.0266446 15.8037 0.156293 14.7256 0.549545 13.7205C1.52915 10.9875 3.78269 7.73316 6.57819 5.01494C7.82569 3.77788 9.20955 2.69305 10.702 1.78225C11.9467 0.96867 13.3763 0.498125 14.8518 0.416373C15.8033 0.391011 16.7302 0.727957 17.4523 1.36177C17.4935 1.39852 18.1113 2.01596 18.5799 2.48502C18.6975 2.43431 18.7821 2.39784 18.7846 2.39688C20.1708 1.77983 21.6606 1.44199 23.1721 1.40187C25.9728 1.40187 27.7847 2.93663 27.7883 5.31192C27.7905 6.77754 27.0863 8.42056 25.7882 10.0111C26.1413 10.5691 26.4085 11.1793 26.5803 11.8203C26.7647 12.4765 26.8657 13.1542 26.8808 13.8368C26.8934 14.1304 26.9063 14.6016 26.9167 15.0174C27.8744 15.2651 28.7595 15.7454 29.4967 16.4175C29.9965 16.9242 30.3243 17.5813 30.432 18.2923C30.5402 18.9941 30.4341 19.713 30.1281 20.3509C30.1553 20.4308 30.1837 20.5176 30.2119 20.6095C30.2364 20.6897 30.2595 20.7669 30.2811 20.8403C30.5507 20.9894 30.7888 21.1914 30.9819 21.4348H30.9819Z" fill="white"/>
<path d="M27.6475 20.0448C27.8259 19.8735 27.965 19.664 28.0549 19.4313C28.1449 19.1986 28.1834 18.9485 28.1677 18.6988C28.132 18.4472 28.0171 18.2143 27.8404 18.0353C27.3219 17.5955 26.7049 17.2936 26.0446 17.1565C25.7429 17.0691 25.5383 17.0131 25.3178 16.9381C24.9257 16.8048 24.732 16.6974 24.6881 15.9357C24.6689 15.6026 24.6127 14.4421 24.5924 13.9626C24.5567 13.1223 24.4587 11.9738 23.7691 11.4996C23.5936 11.3807 23.3896 11.3133 23.1793 11.3049C23.0615 11.2975 22.9433 11.3094 22.8293 11.3402C22.4792 11.4238 22.1606 11.6099 21.9124 11.8756C21.5912 12.1754 21.2124 12.4037 20.8001 12.5459C20.3879 12.6881 19.9513 12.7411 19.5179 12.7016C19.0352 12.6807 18.5236 12.603 17.9372 12.5671C17.8231 12.5602 17.7087 12.5529 17.5944 12.5467C16.8367 12.5696 16.1122 12.8701 15.5532 13.3933C14.9941 13.9165 14.6378 14.6277 14.5491 15.397C14.2133 17.7834 15.886 19.0166 16.3689 19.7402C16.4435 19.8326 16.4898 19.9454 16.5018 20.0646C16.4893 20.1968 16.4278 20.3191 16.3299 20.4064L16.33 20.4071C15.6613 21.1764 15.1918 22.1045 14.9645 23.1069C14.7371 24.1092 14.759 25.1538 15.0283 26.1452C15.0921 26.3833 15.1739 26.616 15.273 26.8412C16.4935 29.7879 20.2797 31.1602 23.9787 29.9122C24.4633 29.7486 24.9334 29.5434 25.384 29.2987C26.195 28.8845 26.9245 28.3212 27.536 27.6372C28.4901 26.6483 29.1167 25.3786 29.3277 24.0068C29.4391 23.2474 29.2759 22.9535 29.0538 22.8121C28.8969 22.7219 28.7151 22.6877 28.5371 22.7147C28.4429 22.1185 28.2777 21.5363 28.045 20.9812L27.6475 20.0448Z" fill="white"/>
<path d="M21.5857 8.66445C21.6454 8.67845 21.6833 8.57309 21.6299 8.5425C20.7462 8.07454 19.7715 7.81387 18.7768 7.7795C18.7672 7.77935 18.7579 7.77651 18.7498 7.77128C18.7417 7.76605 18.7352 7.75864 18.731 7.74987C18.7268 7.74109 18.725 7.7313 18.7259 7.72157C18.7268 7.71184 18.7303 7.70254 18.736 7.69471C18.8906 7.48818 19.0711 7.30333 19.2729 7.14489C19.2819 7.13773 19.2885 7.12779 19.2916 7.11654C19.2947 7.10529 19.2942 7.09332 19.2902 7.08237C19.2862 7.07143 19.2788 7.06209 19.2692 7.05572C19.2596 7.04935 19.2483 7.04628 19.2369 7.04697C18.0189 7.16922 16.848 7.59105 15.8243 8.27639C15.8156 8.28241 15.8053 8.28562 15.7947 8.28559C15.7842 8.28556 15.7739 8.28231 15.7652 8.27624C15.7565 8.27018 15.7498 8.26159 15.7459 8.25158C15.7421 8.24157 15.7412 8.2306 15.7435 8.2201C15.826 7.90585 15.9474 7.60364 16.1047 7.32078C16.1098 7.31107 16.1118 7.29991 16.1103 7.28896C16.1089 7.278 16.104 7.26783 16.0964 7.25992C16.0888 7.25202 16.079 7.24682 16.0683 7.24507C16.0576 7.24333 16.0466 7.24514 16.037 7.25023C14.5587 8.07994 13.2412 9.17861 12.1493 10.4921C12.1407 10.5021 12.1361 10.515 12.1362 10.5283C12.1364 10.5415 12.1413 10.5543 12.15 10.5641C12.1587 10.5739 12.1707 10.5801 12.1836 10.5815C12.1965 10.5829 12.2095 10.5794 12.22 10.5716C13.4854 9.66803 14.911 9.02502 16.417 8.67854C18.1171 8.2778 19.8836 8.27298 21.5857 8.66443" fill="white"/>
<path d="M17.2317 4.40206C17.2317 4.40206 15.951 2.88699 15.5645 2.77524C13.1861 2.11939 8.04847 5.73496 4.76811 10.5118C3.44079 12.4445 1.54071 15.8672 2.44927 17.6276C2.77221 18.0229 3.13625 18.381 3.53497 18.6958C4.14372 17.8239 5.0599 17.2274 6.09049 17.0321C7.3839 13.337 9.65431 10.0805 12.6496 7.62442C14.0869 6.42235 15.6195 5.34452 17.2317 4.40206Z" fill="white"/>
<path d="M8.84532 22.9759C8.86377 22.9988 8.87502 23.0267 8.8776 23.0562C8.88018 23.0857 8.87396 23.1153 8.85976 23.1411C8.79073 23.2556 8.69176 23.3481 8.57403 23.4082C8.4563 23.4683 8.32449 23.4936 8.19344 23.4813C7.9599 23.4555 7.74462 23.3402 7.59111 23.1585C7.4376 22.9768 7.35731 22.7424 7.36646 22.5025C7.3625 22.1756 7.4209 21.8511 7.53839 21.5471C7.61256 21.3566 7.6203 21.1458 7.56031 20.9501C7.50032 20.7545 7.37626 20.5859 7.20897 20.4727C7.10996 20.4057 6.99884 20.3597 6.88215 20.3374C6.76546 20.3151 6.64557 20.3168 6.52957 20.3427C6.41592 20.3671 6.3082 20.4145 6.21274 20.4821C6.11729 20.5497 6.03602 20.6361 5.97373 20.7363C5.88562 20.8904 5.81711 21.0555 5.76986 21.2273C5.76074 21.2576 5.75339 21.2814 5.74782 21.2967C5.6704 21.5101 5.54699 21.5723 5.46337 21.5609C5.42384 21.5553 5.36948 21.5282 5.33464 21.4306C5.29091 21.1483 5.31075 20.8595 5.39267 20.5861C5.47458 20.3128 5.61641 20.0622 5.80737 19.8533C5.96774 19.6773 6.1668 19.5429 6.38809 19.4611C6.60938 19.3794 6.84654 19.3526 7.07996 19.383C7.32725 19.4178 7.56224 19.5146 7.7639 19.6649C7.96557 19.8153 8.1276 20.0143 8.2355 20.2443C8.34477 20.527 8.38886 20.8316 8.36436 21.1346C8.33986 21.4375 8.24743 21.7306 8.09422 21.9911C8.07484 22.0354 8.0571 22.076 8.04214 22.1128C7.98705 22.2145 7.9568 22.3284 7.95396 22.4446C7.95111 22.5609 7.97576 22.6761 8.0258 22.7806C8.06811 22.8429 8.12488 22.8934 8.19101 22.9278C8.25715 22.9622 8.33059 22.9792 8.40477 22.9775C8.47469 22.9764 8.54421 22.9664 8.61167 22.9476C8.69948 22.9265 8.7902 22.905 8.84532 22.9759L8.84532 22.9759ZM30.4897 23.5281C30.4406 24.5581 30.2276 25.5729 29.8592 26.5329C28.0211 31.0476 23.6346 33.561 18.409 33.4019C13.5375 33.2536 9.38266 30.6187 7.56423 26.3235C6.41627 26.2906 5.31806 25.8374 4.46977 25.0463C3.59348 24.2829 3.03046 23.2104 2.89269 22.0422C2.80378 21.2384 2.90105 20.4246 3.17666 19.6663L2.15543 18.7796C-2.51736 14.7354 12.0979 -1.91602 16.7725 2.2632C16.796 2.28424 18.3626 3.85984 18.3665 3.86372C18.3727 3.86047 19.2309 3.48749 19.2352 3.48567C23.3352 1.74541 26.6621 2.58567 26.6663 5.3623C26.6685 6.80633 25.7708 8.48944 24.3328 10.0172C24.9075 10.615 25.3144 11.3596 25.5109 12.1731C25.6695 12.7406 25.7551 13.3268 25.7658 13.917C25.7908 14.5054 25.8184 15.8763 25.8212 15.9007C25.8577 15.912 26.2728 16.0288 26.3986 16.065C27.2351 16.2525 28.0135 16.6477 28.665 17.2157C29.009 17.5593 29.2342 18.0079 29.3068 18.4939C29.3955 19.1243 29.2415 19.7654 28.8773 20.2823C28.972 20.5032 29.0543 20.7294 29.1236 20.96C29.2446 21.3576 29.3326 21.6876 29.3462 21.7366C29.791 21.7366 30.4897 22.2615 30.4897 23.5281L30.4897 23.5281ZM9.83943 21.0507C9.52166 18.9426 8.13034 18.1996 7.18628 18.1466C6.9493 18.1337 6.71168 18.151 6.47889 18.1981C4.79388 18.5466 3.84222 20.0158 4.02948 21.9249C4.16586 22.7812 4.58082 23.5655 5.20731 24.1511C5.83379 24.7367 6.6352 25.0893 7.482 25.1519C7.64406 25.1563 7.80615 25.1446 7.966 25.1171C9.67383 24.8185 10.121 22.9177 9.83943 21.0507ZM12.7195 7.66801C14.1469 6.46886 15.6695 5.39328 17.2715 4.45242C17.2715 4.45242 15.9995 2.94059 15.6153 2.82918C13.2525 2.1745 8.14846 5.78254 4.88967 10.5493C3.57107 12.478 1.68346 15.8936 2.58596 17.6502C2.90658 18.0445 3.26825 18.4019 3.66458 18.7162C4.26796 17.8471 5.17839 17.2518 6.20345 17.0561C7.48587 13.3721 9.74116 10.1228 12.7195 7.66801ZM17.8548 24.351C17.9174 24.6312 18.0529 24.8889 18.247 25.0968C18.4411 25.3048 18.6865 25.4554 18.9574 25.5325C19.2393 25.6399 19.53 25.7208 19.8262 25.7744C23.5636 26.4333 27.0577 24.2429 27.8444 23.6912C27.9035 23.6498 27.9425 23.6902 27.8951 23.7633C27.8714 23.8022 27.8457 23.8398 27.8181 23.8759C26.8553 25.1489 24.2669 26.6231 20.8992 26.6226C19.4305 26.6223 17.9625 26.0919 17.4235 25.277C16.5873 24.0124 17.3821 22.1667 18.7755 22.359C18.7771 22.3593 19.2522 22.4145 19.3858 22.4297C21.5518 22.6425 23.735 22.2844 25.7269 21.3896C27.628 20.485 28.3461 19.4896 28.2384 18.6837C28.2024 18.4335 28.0873 18.2021 27.9106 18.0249C27.3908 17.5876 26.7735 17.2879 26.1134 17.1523C25.8114 17.0654 25.6066 17.01 25.3858 16.9354C24.9934 16.803 24.7995 16.6963 24.7555 15.94C24.7364 15.6092 24.6801 14.4569 24.6597 13.9806C24.6238 13.1462 24.526 12.0057 23.8355 11.5348C23.6597 11.4165 23.4556 11.3497 23.2453 11.3414C23.1274 11.3341 23.0091 11.3459 22.8949 11.3766C22.5451 11.4593 22.2263 11.644 21.9773 11.9083C21.6546 12.2063 21.2751 12.433 20.8626 12.5742C20.4501 12.7153 20.0136 12.7678 19.5803 12.7284C19.0972 12.7078 18.5852 12.6306 17.9983 12.5949C17.8842 12.588 17.7695 12.5807 17.6551 12.5748C16.8994 12.595 16.176 12.8919 15.6165 13.4114C15.0571 13.9309 14.6988 14.6384 14.6069 15.4051C14.2708 17.7749 15.9451 18.9994 16.4285 19.718C16.5031 19.8095 16.5495 19.9217 16.5615 20.0402C16.5488 20.1717 16.4872 20.2931 16.3894 20.3796V20.3803C15.7209 21.1415 15.251 22.0627 15.0232 23.0587C14.7955 24.0547 14.8173 25.0933 15.0866 26.0784C15.1505 26.315 15.2323 26.546 15.3315 26.7696C16.5531 29.6958 20.3429 31.0584 24.0454 29.8189C24.5302 29.6567 25.0008 29.453 25.4521 29.2101C26.2629 28.7994 26.993 28.2401 27.6062 27.56C28.5597 26.5806 29.1872 25.3193 29.3995 23.9549C29.511 23.2006 29.3478 22.9089 29.1253 22.7685C28.9681 22.679 28.7863 22.6449 28.6081 22.6716C28.5138 22.0793 28.3484 21.5012 28.1156 20.9502C27.0582 21.7656 25.8628 22.375 24.5894 22.7479C23.0572 23.1903 21.4633 23.3669 19.8739 23.2705C18.8514 23.1858 18.175 22.8798 17.9205 23.7274C19.4672 24.2559 21.1094 24.4272 22.7286 24.2287C22.74 24.2275 22.7515 24.2286 22.7625 24.232C22.7735 24.2354 22.7837 24.2409 22.7925 24.2483C22.8014 24.2557 22.8088 24.2649 22.8142 24.2752C22.8196 24.2855 22.8229 24.2968 22.824 24.3084C22.8258 24.328 22.8215 24.3476 22.8118 24.3646C22.8021 24.3816 22.7876 24.3951 22.7701 24.4033C22.7701 24.4033 20.8709 25.3071 17.8548 24.351ZM12.2926 10.609C13.5488 9.70785 14.9652 9.06617 16.4622 8.72008C18.1509 8.32017 19.9062 8.31533 21.597 8.70593C21.6562 8.71982 21.694 8.61476 21.641 8.58438C20.7636 8.11753 19.7951 7.85732 18.8064 7.82282C18.7969 7.82265 18.7876 7.81979 18.7796 7.81457C18.7715 7.80934 18.7651 7.80195 18.7609 7.79321C18.7567 7.78447 18.7549 7.77471 18.7558 7.76502C18.7567 7.75533 18.7602 7.74607 18.7659 7.73828C18.9194 7.53229 19.0988 7.34781 19.2994 7.18958C19.3084 7.18241 19.3149 7.1725 19.318 7.16128C19.3211 7.15007 19.3206 7.13814 19.3166 7.12723C19.3126 7.11632 19.3053 7.107 19.2958 7.10063C19.2862 7.09425 19.2749 7.09115 19.2636 7.09179C18.0529 7.2141 16.8894 7.63514 15.8733 8.3187C15.8646 8.32471 15.8543 8.32791 15.8438 8.32788C15.8334 8.32785 15.8231 8.3246 15.8145 8.31855C15.8058 8.3125 15.7991 8.30392 15.7953 8.29394C15.7915 8.28396 15.7907 8.27304 15.7931 8.26259C15.8749 7.94913 15.9954 7.64757 16.1517 7.36519C16.1569 7.35554 16.1589 7.34443 16.1575 7.33352C16.156 7.3226 16.1512 7.31245 16.1437 7.30456C16.1362 7.29666 16.1264 7.29144 16.1157 7.28966C16.1051 7.28788 16.0942 7.28964 16.0846 7.29467C14.615 8.1236 13.3061 9.22006 12.2223 10.53C12.2138 10.5399 12.2092 10.5527 12.2093 10.5659C12.2095 10.5791 12.2143 10.5918 12.223 10.6015C12.2317 10.6113 12.2436 10.6175 12.2564 10.6188C12.2693 10.6202 12.2822 10.6167 12.2926 10.609ZM22.1348 18.653C22.2371 18.7192 22.3597 18.7446 22.4791 18.7243C22.5985 18.704 22.7065 18.6395 22.7823 18.5431C22.8766 18.3566 22.7397 18.1037 22.4765 17.9781C22.3741 17.912 22.2516 17.8866 22.1321 17.9069C22.0127 17.9273 21.9048 17.9918 21.8289 18.0883C21.7346 18.2747 21.8716 18.5276 22.1348 18.653ZM22.9423 15.6294C23.0054 15.9651 23.1417 16.282 23.3409 16.5566C23.5468 16.5307 23.755 16.5307 23.9609 16.5566C24.0813 16.1881 24.0918 15.7914 23.9912 15.4168C23.8424 14.7255 23.641 14.3072 23.2249 14.3722C22.8089 14.4374 22.7936 14.9382 22.9423 15.6294ZM23.8275 17.2173C23.7225 17.1865 23.6108 17.1901 23.508 17.2276C23.4051 17.265 23.3164 17.3345 23.2541 17.4262C23.1919 17.5178 23.1594 17.6271 23.1611 17.7387C23.1628 17.8502 23.1986 17.9584 23.2636 18.0481C23.3285 18.1377 23.4194 18.2043 23.5233 18.2385C23.6272 18.2727 23.739 18.2728 23.8429 18.2387C23.9469 18.2046 24.0378 18.1381 24.1029 18.0485C24.1679 17.9589 24.2039 17.8508 24.2057 17.7392C24.2208 17.6192 24.1898 17.4978 24.1193 17.4005C24.0488 17.3032 23.9442 17.2376 23.8275 17.2173Z" fill="black"/>
<path d="M16.919 17.1554C16.8526 17.1458 16.8243 17.1168 16.816 17.0784C16.7902 16.9591 16.9696 16.7629 17.1588 16.6212C17.4349 16.4149 17.7583 16.2847 18.0979 16.243C18.4375 16.2014 18.7819 16.2497 19.0979 16.3833C19.3932 16.5078 19.6471 16.7166 19.8292 16.9848C19.8968 17.0976 19.9099 17.185 19.8662 17.2308C19.7981 17.3043 19.6243 17.2202 19.3415 17.0934C19.0017 16.923 18.6263 16.8404 18.248 16.8527C17.7998 16.9281 17.3561 17.0291 16.919 17.1554ZM19.7381 17.7485C19.6158 17.6172 19.4637 17.5189 19.2952 17.4625C19.1267 17.406 18.9471 17.3932 18.7726 17.4251C18.5152 17.453 18.2713 17.5569 18.0706 17.724C17.9771 17.7926 17.9129 17.8952 17.891 18.0106C17.8905 18.0235 17.8928 18.0363 17.8976 18.0481C17.9025 18.06 17.9099 18.0706 17.9192 18.0792C17.9358 18.0946 17.9574 18.103 17.9798 18.1028C18.0724 18.0889 18.163 18.0633 18.2494 18.0264C18.6275 17.8808 19.036 17.8374 19.4354 17.9006C19.6205 17.9218 19.7079 17.9336 19.7485 17.8687C19.7589 17.85 19.7635 17.8284 19.7616 17.8069C19.7598 17.7854 19.7515 17.765 19.7381 17.7485Z" fill="black"/>
<path d="M19.2141 17.9219C19.3309 17.4971 19.3376 17.0487 19.2336 16.6205C19.083 15.9282 18.8553 15.5326 18.4334 15.5978C18.0115 15.6629 18.0006 16.2208 18.1366 16.916C18.1991 17.2346 18.3209 17.538 18.4953 17.8096C18.8311 18.2884 19.0587 18.1645 19.2135 17.9219L19.2141 17.9219Z" fill="black"/>
</g>
<defs>
<clipPath id="clip0_5815_6998">
<rect width="32" height="35" fill="white"/>
</clipPath>
</defs>
</svg>
