<svg width="179" height="162" viewBox="0 0 179 162" fill="none" xmlns="http://www.w3.org/2000/svg">
<g clip-path="url(#clip0_87_12076)">
<path opacity="0.42" d="M40.42 157.93H137.73C159.42 142.98 173.6 118.32 173.6 90.41C173.6 44.79 135.76 1.26001 89.08 1.26001C42.4 1.26001 4.54999 44.79 4.54999 90.41C4.55999 118.32 18.74 142.98 40.42 157.93Z" fill="url(#paint0_linear_87_12076)"/>
<path opacity="0.43" d="M89.08 161.68C138.278 161.68 178.16 160.109 178.16 158.17C178.16 156.232 138.278 154.66 89.08 154.66C39.8825 154.66 0 156.232 0 158.17C0 160.109 39.8825 161.68 89.08 161.68Z" fill="#A9A9FF"/>
<path d="M60.01 115.92H55.96V154.68H60.01V115.92Z" fill="#AAC6CE"/>
<path d="M60.01 115.92H55.96V121.37H60.01V115.92Z" fill="#85B0BA"/>
<path d="M41.64 154.69H75.64C76.2581 154.687 76.8524 154.928 77.2941 155.361C77.7359 155.793 77.9895 156.382 78 157V158.21H39.29V157C39.3005 156.384 39.5527 155.796 39.9923 155.364C40.4318 154.932 41.0236 154.69 41.64 154.69Z" fill="#AAC6CE"/>
<path d="M48.42 115.97H76.51C66.29 112.3 70.24 77.72 72.13 64.62C72.2189 63.9984 72.1731 63.365 71.9957 62.7626C71.8183 62.1603 71.5134 61.6031 71.1018 61.1289C70.6902 60.6547 70.1815 60.2745 69.61 60.0142C69.0386 59.7539 68.4179 59.6194 67.79 59.62H49.09C47.2217 59.601 45.4108 60.2654 43.9982 61.4883C42.5856 62.7112 41.6687 64.4082 41.42 66.26C39.78 78.17 37.19 102.86 42.32 112.42C42.918 113.51 43.802 114.417 44.8768 115.043C45.9516 115.668 47.1765 115.989 48.42 115.97Z" fill="#AAC6CE"/>
<path d="M37.1185 38.8818C47.7311 36.5096 54.4112 25.9833 52.039 15.3707C49.6668 4.75813 39.1406 -1.92201 28.528 0.450181C17.9154 2.82238 11.2352 13.3486 13.6074 23.9612C15.9796 34.5738 26.5059 41.254 37.1185 38.8818Z" fill="#A9A9FF"/>
<path d="M32.83 35.76C41.7052 35.76 48.9 28.5652 48.9 19.69C48.9 10.8148 41.7052 3.62 32.83 3.62C23.9548 3.62 16.76 10.8148 16.76 19.69C16.76 28.5652 23.9548 35.76 32.83 35.76Z" fill="#F0F0FD"/>
<path d="M28.27 25.17C28.1384 25.1708 28.0079 25.1455 27.886 25.0958C27.7642 25.046 27.6534 24.9727 27.56 24.88C27.3737 24.6926 27.2692 24.4392 27.2692 24.175C27.2692 23.9108 27.3737 23.6574 27.56 23.47L31.75 19.27V8.26001C31.75 7.99479 31.8553 7.74044 32.0428 7.5529C32.2304 7.36537 32.4848 7.26001 32.75 7.26001C33.0152 7.26001 33.2696 7.36537 33.4571 7.5529C33.6446 7.74044 33.75 7.99479 33.75 8.26001V19.69C33.7508 19.8216 33.7255 19.9521 33.6758 20.0739C33.626 20.1958 33.5526 20.3066 33.46 20.4L28.98 24.88C28.8865 24.9727 28.7757 25.046 28.6539 25.0958C28.532 25.1455 28.4016 25.1708 28.27 25.17Z" fill="#A9A9FF"/>
<path d="M34.93 19.4C34.932 18.9423 34.7979 18.4943 34.5449 18.1129C34.2918 17.7315 33.9311 17.4338 33.5086 17.2578C33.0861 17.0817 32.6209 17.0351 32.1718 17.1239C31.7228 17.2127 31.3103 17.4329 30.9866 17.7566C30.6629 18.0803 30.4427 18.4928 30.3539 18.9418C30.2651 19.3908 30.3117 19.8561 30.4877 20.2786C30.6638 20.7011 30.9615 21.0618 31.3429 21.3149C31.7243 21.5679 32.1723 21.702 32.63 21.7C33.2392 21.6974 33.8227 21.4542 34.2534 21.0234C34.6842 20.5927 34.9274 20.0092 34.93 19.4Z" fill="#383874"/>
<path d="M144.93 38.01H111.33C110.502 38.01 109.709 38.3387 109.124 38.9238C108.539 39.509 108.21 40.3025 108.21 41.13V56.26C108.213 57.0858 108.542 57.8768 109.127 58.4597C109.712 59.0427 110.504 59.37 111.33 59.37H113.68V63.03C113.677 63.1472 113.709 63.2626 113.771 63.3617C113.834 63.4607 113.925 63.5388 114.032 63.586C114.139 63.6332 114.258 63.6474 114.374 63.6267C114.489 63.6061 114.596 63.5515 114.68 63.47L119.22 59.37H144.95C145.776 59.37 146.568 59.0427 147.153 58.4597C147.737 57.8768 148.067 57.0858 148.07 56.26V41.13C148.07 40.7186 147.989 40.3112 147.831 39.9314C147.673 39.5516 147.441 39.2067 147.149 38.9167C146.857 38.6268 146.511 38.3974 146.13 38.2417C145.749 38.0861 145.341 38.0074 144.93 38.01Z" fill="#F0F0FD"/>
<path d="M119.96 50.29C120.717 50.29 121.33 49.6766 121.33 48.92C121.33 48.1634 120.717 47.55 119.96 47.55C119.203 47.55 118.59 48.1634 118.59 48.92C118.59 49.6766 119.203 50.29 119.96 50.29Z" fill="#34648C"/>
<path d="M128.41 50.29C129.167 50.29 129.78 49.6766 129.78 48.92C129.78 48.1634 129.167 47.55 128.41 47.55C127.653 47.55 127.04 48.1634 127.04 48.92C127.04 49.6766 127.653 50.29 128.41 50.29Z" fill="#34648C"/>
<path d="M136.29 50.29C137.047 50.29 137.66 49.6766 137.66 48.92C137.66 48.1634 137.047 47.55 136.29 47.55C135.533 47.55 134.92 48.1634 134.92 48.92C134.92 49.6766 135.533 50.29 136.29 50.29Z" fill="#34648C"/>
<path d="M34.92 78.68C34.92 74.97 32.3 71.26 29.08 71.26C25.86 71.26 23.23 74.97 23.23 78.68C23.23 82.39 25.85 85.38 29.08 85.38C32.31 85.38 34.92 82.38 34.92 78.68Z" fill="#67B8EF"/>
<path opacity="0.25" d="M29.08 71.26C28.5676 71.2669 28.0603 71.3616 27.58 71.54C30.08 72.46 31.92 75.54 31.92 78.68C31.9766 80.0794 31.5867 81.4606 30.8065 82.6237C30.0263 83.7868 28.8963 84.6716 27.58 85.15C28.0653 85.3025 28.5712 85.3801 29.08 85.38C32.3 85.38 34.92 82.38 34.92 78.68C34.92 74.98 32.3 71.26 29.08 71.26Z" fill="#34648C"/>
<path d="M22.42 83.06L23.42 92.54C23.484 93.1128 23.7572 93.6418 24.1872 94.0256C24.6172 94.4094 25.1736 94.6211 25.75 94.62H31.75C32.327 94.6233 32.8847 94.4124 33.3151 94.0282C33.7456 93.6439 34.0181 93.1137 34.08 92.54L35.08 83.06C35.0971 82.9356 35.0874 82.809 35.0516 82.6887C35.0157 82.5684 34.9545 82.4571 34.8721 82.3624C34.7897 82.2677 34.688 82.1917 34.5738 82.1395C34.4596 82.0874 34.3355 82.0603 34.21 82.06H23.28C23.1547 82.06 23.031 82.0871 22.9172 82.1393C22.8034 82.1916 22.7023 82.2678 22.6206 82.3627C22.539 82.4577 22.4788 82.5691 22.4441 82.6895C22.4095 82.8098 22.4013 82.9362 22.42 83.06Z" fill="#CEE5ED"/>
<path d="M23.28 83.51H34.34C34.5002 83.5107 34.6569 83.5572 34.7916 83.644C34.9262 83.7308 35.0332 83.8543 35.1 84L35.21 83.06C35.2271 82.9356 35.2174 82.809 35.1816 82.6887C35.1457 82.5684 35.0845 82.4571 35.0021 82.3624C34.9197 82.2677 34.818 82.1917 34.7038 82.1395C34.5896 82.0874 34.4655 82.0603 34.34 82.06H23.28C23.1547 82.06 23.031 82.0871 22.9172 82.1393C22.8034 82.1916 22.7023 82.2678 22.6206 82.3627C22.539 82.4577 22.4788 82.5691 22.4441 82.6895C22.4095 82.8098 22.4013 82.9362 22.42 83.06L22.52 84C22.5867 83.8543 22.6938 83.7308 22.8284 83.644C22.9631 83.5572 23.1197 83.5107 23.28 83.51Z" fill="#AAC6CE"/>
<path d="M34.34 82.09H30.51C30.6352 82.0901 30.7589 82.1171 30.8727 82.1694C30.9865 82.2216 31.0877 82.2978 31.1694 82.3927C31.251 82.4877 31.3112 82.5991 31.3458 82.7195C31.3804 82.8398 31.3887 82.9662 31.37 83.09L30.32 92.57C30.2583 93.142 29.9872 93.6709 29.5588 94.0549C29.1305 94.4389 28.5753 94.6509 28 94.65H31.83C32.4069 94.6534 32.9646 94.4425 33.3951 94.0582C33.8255 93.674 34.0981 93.1437 34.16 92.57L35.16 83.09C35.1767 82.9697 35.1684 82.8472 35.1356 82.7303C35.1027 82.6133 35.0459 82.5045 34.9689 82.4105C34.8918 82.3166 34.7962 82.2396 34.688 82.1844C34.5798 82.1293 34.4612 82.0971 34.34 82.09Z" fill="#AAC6CE"/>
<path d="M82.76 148.96L82.36 151.7L84.45 154.37L89.74 151.78L90.31 149.27L83.73 148.28L82.76 148.96Z" fill="#F2BF75"/>
<path d="M87.0299 157.78L87.5799 157.1C87.6043 157.072 87.6344 157.05 87.668 157.035C87.7016 157.02 87.7381 157.012 87.7749 157.012C87.8118 157.012 87.8483 157.02 87.8819 157.035C87.9156 157.05 87.9456 157.072 87.97 157.1L88.5199 157.74C88.629 157.869 88.7655 157.972 88.9195 158.041C89.0736 158.11 89.2411 158.144 89.41 158.14L101.7 157.93C101.82 157.807 101.887 157.642 101.887 157.47C101.887 157.298 101.82 157.133 101.7 157.01C99.9 155.19 90.2 152.01 89.7 151.78C89.2 151.55 86.2499 153.78 82.3299 151.7C81.9817 153.373 81.7379 155.067 81.6 156.77C81.5889 156.962 81.6176 157.155 81.6843 157.335C81.751 157.516 81.8542 157.681 81.9875 157.819C82.1207 157.958 82.2812 158.068 82.4588 158.142C82.6365 158.216 82.8275 158.253 83.0199 158.25L86.1399 158.2C86.3104 158.202 86.479 158.165 86.6331 158.092C86.7872 158.019 86.9229 157.913 87.0299 157.78Z" fill="#1E394C"/>
<path d="M60.2099 102.65C60.2099 102.65 55.1099 108.29 64.4599 114.42C71.0099 118.72 76.17 117.42 80.29 120.02C80.7757 120.289 81.1894 120.671 81.4958 121.134C81.8022 121.598 81.9923 122.128 82.05 122.68L82.26 149.04L82.76 149.29C83.9814 149.9 85.3255 150.224 86.6907 150.238C88.0559 150.252 89.4064 149.955 90.6399 149.37L94.36 119.26C94.49 117.19 93.3599 115.44 92.0899 113.81C84.9399 104.72 72.2999 101.64 69.0899 101.12C64.9299 100.46 60.2099 102.65 60.2099 102.65Z" fill="#383874"/>
<path d="M62.44 148.96L62.01 151.69L64.06 154.39L69.38 151.87L69.99 149.37L63.42 148.29L62.44 148.96Z" fill="#F2BF75"/>
<path d="M66.5899 157.84L67.1499 157.17C67.1722 157.139 67.2015 157.114 67.2354 157.096C67.2693 157.079 67.3068 157.07 67.345 157.07C67.3831 157.07 67.4207 157.079 67.4546 157.096C67.4885 157.114 67.5177 157.139 67.54 157.17L68.0799 157.82C68.1878 157.948 68.3226 158.052 68.4746 158.122C68.6266 158.193 68.7922 158.23 68.9599 158.23H81.25C81.3727 158.106 81.4416 157.939 81.4416 157.765C81.4416 157.591 81.3727 157.424 81.25 157.3C79.47 155.46 69.8199 152.18 69.3399 151.91C68.8599 151.64 65.87 153.91 61.97 151.73C61.5999 153.398 61.3361 155.088 61.18 156.79C61.1663 156.981 61.192 157.173 61.2555 157.354C61.3191 157.535 61.4192 157.701 61.5495 157.842C61.6798 157.982 61.8376 158.095 62.0132 158.172C62.1887 158.249 62.3783 158.289 62.57 158.29H65.69C65.8647 158.29 66.0371 158.25 66.1933 158.172C66.3496 158.094 66.4854 157.98 66.5899 157.84Z" fill="#1E394C"/>
<path d="M44.71 97.74C44.71 97.74 38.52 104.63 47.46 112.41C53.73 117.87 59.36 115.53 63.31 118.86C63.7832 119.212 64.164 119.673 64.4201 120.204C64.6761 120.735 64.7995 121.321 64.78 121.91L61.96 148.73L62.17 148.87C63.3845 149.656 64.7791 150.12 66.2225 150.218C67.6659 150.316 69.1104 150.045 70.42 149.43L77.42 121.17C77.85 119.01 76.93 117.01 75.81 115.11C69.61 104.54 59.87 98.23 56.58 97.22C52.29 95.91 44.71 97.74 44.71 97.74Z" fill="#383874"/>
<path d="M78.81 119.26C78.3408 119.064 77.8599 118.897 77.37 118.76C77.0479 117.466 76.5177 116.234 75.8 115.11C72.9923 110.387 69.401 106.177 65.18 102.66C67.42 102.28 68.56 101.8 69.18 101.17C71.463 101.591 73.7073 102.199 75.89 102.99C78.93 108.07 78.92 116.32 78.81 119.26Z" fill="#2E2E70"/>
<path d="M61.35 61.26C61.35 61.26 52.43 60.08 48.73 67.02C45.03 73.96 39.4899 101.2 44.3299 102.02C46.4699 102.39 52.18 103.83 58.51 103.36C67.22 102.73 69.11 101.93 69.73 100.27L75.2799 74.89C75.3566 73.1615 75.0137 71.4401 74.2806 69.8728C73.5475 68.3056 72.4459 66.939 71.07 65.89C68.1337 63.7766 64.8413 62.2083 61.35 61.26Z" fill="#CEE5ED"/>
<path d="M75.24 72.68C75.24 72.68 75.36 87.96 80.17 88.89C84.98 89.82 97.77 89.53 97.77 89.53V94.39H70.32L75.24 72.68Z" fill="#AAC6CE"/>
<path d="M68.6 65.75L69.68 60.34L62.68 55L61.34 61.37C61.34 61.37 63.54 71.1 68.6 65.75Z" fill="#EA9249"/>
<path d="M77.54 50.04C77.54 50.04 73.88 51.82 68.54 48.55C67.3166 50.3585 65.6457 51.8193 63.69 52.79C63.69 52.79 61.82 49.65 60.75 52C60.4583 52.6008 60.2883 53.2533 60.25 53.92C56.88 49.57 59.25 43.83 62.4 40.73C65.4 37.8 71.83 38.96 75.86 40.58C80.14 42.3 80.93 39.31 80.93 39.31C86.29 46.92 77.54 50.04 77.54 50.04Z" fill="#1E394C"/>
<path d="M63.65 52.79C63.65 52.79 61.78 49.65 60.65 52C59.35 54.85 60.82 56.64 62.59 56.64C62.59 56.64 64 64.06 70.81 63.53C77.62 63 78.61 52.07 77.49 50.04C77.49 50.04 73.82 51.82 68.49 48.55C67.2694 50.3572 65.602 51.8178 63.65 52.79Z" fill="#F2BF75"/>
<path d="M122.72 70.14H94.27C93.5896 70.1382 92.9297 70.3725 92.4026 70.8028C91.8756 71.2332 91.5142 71.833 91.38 72.5L87.6 91.06H122.06L125.61 73.68C125.688 73.2525 125.673 72.8131 125.565 72.3922C125.456 71.9712 125.258 71.5789 124.983 71.2422C124.708 70.9055 124.363 70.6326 123.973 70.4423C123.582 70.252 123.155 70.1488 122.72 70.14Z" fill="#CEE5ED"/>
<path d="M121.96 91.06H74.94C74.1668 91.06 73.54 91.6868 73.54 92.46V92.92C73.54 93.6932 74.1668 94.32 74.94 94.32H121.96C122.733 94.32 123.36 93.6932 123.36 92.92V92.46C123.36 91.6868 122.733 91.06 121.96 91.06Z" fill="#80A9B2"/>
<path d="M121.95 91.06H87.22C87.5913 91.06 87.9474 91.2075 88.21 91.47C88.4725 91.7326 88.62 92.0887 88.62 92.46V92.92C88.62 93.2913 88.4725 93.6474 88.21 93.9099C87.9474 94.1725 87.5913 94.32 87.22 94.32H121.95C122.322 94.32 122.679 94.1728 122.943 93.9106C123.208 93.6483 123.357 93.2922 123.36 92.92V92.46C123.357 92.0878 123.208 91.7317 122.943 91.4694C122.679 91.2072 122.322 91.06 121.95 91.06Z" fill="#AAC6CE"/>
<path d="M76.42 90.06C70.88 89.42 55.35 87.83 52.68 87.56C49.33 87.21 56.62 73.66 57.43 69.03C58.24 64.4 54.7099 64.23 54.7099 64.23C53.5425 64.0077 52.3347 64.1586 51.2578 64.6611C50.1809 65.1637 49.2895 65.9925 48.7099 67.03C44.9199 72.78 40.71 89.56 42.92 93.71C43.0495 93.9467 43.2405 94.1441 43.4728 94.2814C43.7051 94.4187 43.9701 94.4907 44.24 94.49H76.42V90.06Z" fill="#CEE5ED"/>
<path d="M76.42 90.06C76.42 90.06 56.42 88.69 52.1 88.06C48.76 87.61 55.73 73.73 56.54 69.06C57.35 64.39 53.76 64.62 53.76 64.62C52.711 64.5292 51.6542 64.6274 50.64 64.91C51.8535 64.1557 53.3047 63.8811 54.71 64.14C54.71 64.14 58.24 64.31 57.43 68.94C56.62 73.57 50.37 86.83 52.48 87.35C55.12 88.08 70.92 89.42 76.42 90.06Z" fill="#AAC6CE"/>
<path d="M76.42 94.56H83.88C84.0076 94.5616 84.1332 94.5283 84.2433 94.4636C84.3533 94.399 84.4436 94.3055 84.5043 94.1933C84.5651 94.081 84.594 93.9543 84.588 93.8268C84.5819 93.6994 84.5411 93.576 84.47 93.47C83.77 92.4 82.67 90.88 81.86 90.63C80.0463 90.5274 78.2274 90.5675 76.42 90.75V94.56Z" fill="#F2BF75"/>
<path opacity="0.67" d="M77.54 50.04C77.0003 50.2622 76.4309 50.4038 75.85 50.46C75.76 50.96 75.6 51.93 75.51 52.85C75.39 54.17 76.04 58.23 75.64 58.26C75.2236 58.2812 74.8064 58.2812 74.39 58.26C74.39 58.26 73.76 64.13 67.89 63.2H67.74C68.7392 63.5557 69.804 63.6888 70.86 63.59C77.68 63.01 78.66 52.07 77.54 50.04Z" fill="#EA9249"/>
<path d="M163.07 135.4C163.07 135.4 172.44 130.75 169.89 123.71C167.34 116.67 165.77 116.36 170.64 112.39C175.51 108.42 182.56 98.44 173.64 97.69C164.72 96.94 165.17 108.79 157.75 110.44C150.33 112.09 146.28 143.12 163.07 135.4Z" fill="#67B8EF"/>
<path opacity="0.25" d="M155.7 136.1C157.5 136.93 159.92 136.85 163.07 135.4C163.07 135.4 172.44 130.75 169.89 123.71C167.34 116.67 165.77 116.36 170.64 112.39C175.51 108.42 182.56 98.44 173.64 97.69C172.845 97.6189 172.043 97.6626 171.26 97.82C173.78 98.82 176.26 100.93 173.04 104.76C167.67 111.14 164.8 113.38 165.42 117.51C166.04 121.64 165.68 130.66 155.7 136.1Z" fill="#34648C"/>
<path d="M147.18 135.18C147.18 135.18 138.93 134.88 139.38 128.95C139.83 123.02 140.06 122.8 134.88 120.95C125.74 117.65 132.98 100.09 140.43 111.13C145.6 118.8 147.85 117.07 151.23 117.67C154.61 118.27 161.95 137.8 147.18 135.18Z" fill="#67B8EF"/>
<path opacity="0.29" d="M151.23 117.65C147.85 117.05 145.6 118.78 140.43 111.11C136.53 105.33 132.69 107.39 131.23 111.11C133.42 110.44 136.75 110.03 137.17 113.61C137.71 118.24 148.55 125.85 148.33 135.31H148.75C150.33 131.15 152.41 125.76 154.19 121.16C153.24 119.26 152.1 117.81 151.23 117.65Z" fill="#34648C"/>
<path d="M149.09 134.91C149.09 134.91 138.86 124.91 142.34 123.22C145.82 121.53 152.69 127.04 148.87 121.08C145.05 115.12 140.59 105.84 145.87 107.3C151.15 108.76 151.53 110.37 150.87 103.43C150.02 94.43 155.03 89.82 159.75 92.74C164.47 95.66 155.75 115.46 158.97 113.32C162.19 111.18 164.97 109.39 165.6 111.97C166.23 114.55 156.26 124.72 159.98 122.97C164.59 120.84 165.26 124.66 163.8 126.97C162.34 129.28 156.29 143.46 149.09 134.91Z" fill="#34648C"/>
<path opacity="0.48" d="M163.82 127.04C165.28 124.68 164.61 120.86 160 123.04C156.28 124.77 166.3 114.61 165.62 112.04C164.94 109.47 162.25 111.26 158.99 113.39C155.73 115.52 164.5 95.74 159.77 92.81C158.845 92.1655 157.724 91.8646 156.601 91.9596C155.478 92.0545 154.423 92.5393 153.62 93.33C156.07 93.93 158.03 95.89 156.62 101.21C153.75 112.45 151.99 121.83 157.25 119.08C162.19 116.49 151.5 128.43 151.39 137.03C157.58 140.47 162.52 129.14 163.82 127.04Z" fill="#1E394C"/>
<path d="M142 136.09L144 154.02C144.123 155.102 144.639 156.101 145.45 156.828C146.261 157.554 147.311 157.957 148.4 157.96H159.83C160.92 157.959 161.971 157.557 162.782 156.83C163.594 156.103 164.109 155.103 164.23 154.02L166.23 136.09C166.255 135.86 166.232 135.626 166.161 135.406C166.09 135.185 165.973 134.981 165.819 134.809C165.664 134.636 165.474 134.498 165.263 134.403C165.051 134.309 164.822 134.26 164.59 134.26H143.64C143.408 134.26 143.179 134.309 142.967 134.403C142.755 134.498 142.566 134.636 142.411 134.809C142.257 134.981 142.14 135.185 142.069 135.406C141.998 135.626 141.975 135.86 142 136.09Z" fill="#CEE5ED"/>
<path d="M164.55 134.26H157.3C157.532 134.26 157.761 134.309 157.973 134.403C158.184 134.498 158.374 134.636 158.529 134.809C158.683 134.981 158.8 135.185 158.871 135.406C158.942 135.626 158.965 135.86 158.94 136.09L156.94 154.02C156.819 155.103 156.304 156.103 155.492 156.83C154.681 157.557 153.63 157.959 152.54 157.96H159.79C160.88 157.959 161.931 157.557 162.742 156.83C163.554 156.103 164.069 155.103 164.19 154.02L166.19 136.09C166.215 135.86 166.192 135.626 166.121 135.406C166.05 135.185 165.933 134.981 165.779 134.809C165.624 134.636 165.434 134.498 165.223 134.403C165.011 134.309 164.782 134.26 164.55 134.26Z" fill="#AAC6CE"/>
<path d="M142.32 94.5H19.76C18.3848 94.5 17.27 95.6148 17.27 96.99V97.8C17.27 99.1752 18.3848 100.29 19.76 100.29H142.32C143.695 100.29 144.81 99.1752 144.81 97.8V96.99C144.81 95.6148 143.695 94.5 142.32 94.5Z" fill="#3E8CCC"/>
<path d="M142.32 94.51H19.76C19.0996 94.51 18.4662 94.7724 17.9993 95.2393C17.5323 95.7063 17.27 96.3396 17.27 97V97.8C17.2717 98.0587 17.3156 98.3154 17.4 98.56C17.5573 98.0568 17.8709 97.6168 18.2953 97.3039C18.7197 96.991 19.2328 96.8215 19.76 96.82H142.32C142.847 96.8215 143.36 96.991 143.785 97.3039C144.209 97.6168 144.523 98.0568 144.68 98.56C144.764 98.3154 144.808 98.0587 144.81 97.8V97C144.811 96.6727 144.748 96.3483 144.623 96.0456C144.498 95.7429 144.315 95.4679 144.084 95.2364C143.852 95.0049 143.577 94.8215 143.274 94.6969C142.972 94.5722 142.647 94.5087 142.32 94.51Z" fill="#2173AA"/>
<path d="M58.5 158.04H54.4L25.9 100.32H30L58.5 158.04Z" fill="#34648C"/>
<path d="M13.4 158.04H17.49L45.99 100.32H41.9L13.4 158.04Z" fill="#34648C"/>
<path d="M146.73 158.04H142.63L114.13 100.32H118.23L146.73 158.04Z" fill="#34648C"/>
<path d="M101.63 158.04H105.72L134.22 100.32H130.13L101.63 158.04Z" fill="#34648C"/>
<path d="M31.13 102.61L30 100.32H25.9L27.03 102.61H31.13Z" fill="#1A3651"/>
<path d="M44.86 102.61L45.99 100.32H41.9L40.77 102.61H44.86Z" fill="#1A3651"/>
<path d="M119.36 102.61L118.23 100.32H114.13L115.26 102.61H119.36Z" fill="#1A3651"/>
<path d="M133.09 102.61L134.22 100.32H130.13L129 102.61H133.09Z" fill="#1A3651"/>
</g>
<defs>
<linearGradient id="paint0_linear_87_12076" x1="89.09" y1="145.93" x2="89.09" y2="-28.07" gradientUnits="userSpaceOnUse">
<stop stop-color="#A9A9FF" stop-opacity="0.15"/>
<stop offset="0.13" stop-color="#A9A9FF" stop-opacity="0.15"/>
<stop offset="0.31" stop-color="#A9A9FF" stop-opacity="0.25"/>
<stop offset="0.52" stop-color="#A9A9FF" stop-opacity="0.5"/>
<stop offset="0.75" stop-color="#A9A9FF" stop-opacity="0.75"/>
<stop offset="1" stop-color="#A9A9FF"/>
</linearGradient>
<clipPath id="clip0_87_12076">
<rect width="178.17" height="161.69" fill="white"/>
</clipPath>
</defs>
</svg>
