<svg width="407" height="150" viewBox="0 0 407 150" fill="none" xmlns="http://www.w3.org/2000/svg">
<mask id="mask0_5101_42387" style="mask-type:luminance" maskUnits="userSpaceOnUse" x="0" y="0" width="407" height="150">
<path d="M407 0H0V150H407V0Z" fill="white"/>
</mask>
<g mask="url(#mask0_5101_42387)">
<path d="M402 0H5C2.23858 0 0 2.23858 0 5V145C0 147.761 2.23858 150 5 150H402C404.761 150 407 147.761 407 145V5C407 2.23858 404.761 0 402 0Z" fill="#FAFAFA"/>
<path d="M230 20H23C21.3431 20 20 21.3431 20 23V57C20 58.6569 21.3431 60 23 60H230C231.657 60 233 58.6569 233 57V23C233 21.3431 231.657 20 230 20Z" fill="#F3F5F6"/>
<path d="M35.5986 44.5H31.4014V34.6973H35.3867C36.1797 34.6973 36.8564 34.9593 37.417 35.4834C37.9775 36.0075 38.2578 36.609 38.2578 37.2881C38.2578 37.68 38.1758 38.04 38.0117 38.3682C37.8522 38.6963 37.6927 38.9242 37.5332 39.0518L37.2803 39.25C37.3167 39.2682 37.3669 39.3001 37.4307 39.3457C37.499 39.3867 37.6198 39.4801 37.793 39.626C37.9661 39.7673 38.1143 39.9245 38.2373 40.0977C38.3649 40.2708 38.4811 40.4964 38.5859 40.7744C38.6953 41.0479 38.75 41.3327 38.75 41.6289C38.75 42.4128 38.4492 43.0872 37.8477 43.6523C37.2461 44.2174 36.4964 44.5 35.5986 44.5ZM32.9395 43.167H35.5986C36.0544 43.167 36.4372 43.0143 36.7471 42.709C37.057 42.3991 37.2119 42.0163 37.2119 41.5605C37.2119 41.1048 37.057 40.722 36.7471 40.4121C36.4417 40.1022 36.0589 39.9473 35.5986 39.9473H32.9395V43.167ZM35.3867 36.0303H32.9395V38.6895H35.3867C35.7695 38.6895 36.0863 38.5641 36.3369 38.3135C36.5921 38.0583 36.7197 37.7415 36.7197 37.3633C36.7197 36.9805 36.5921 36.6637 36.3369 36.4131C36.0863 36.1579 35.7695 36.0303 35.3867 36.0303ZM41.8945 43.3105H43.3643C43.6833 43.3105 43.9499 43.2035 44.1641 42.9893C44.3783 42.7751 44.4854 42.5085 44.4854 42.1895C44.4854 41.8704 44.3783 41.6038 44.1641 41.3896C43.9499 41.1755 43.6833 41.0684 43.3643 41.0684H41.8945V43.3105ZM45.1895 40.5352C45.6543 40.9681 45.8867 41.5218 45.8867 42.1963C45.8867 42.8662 45.6543 43.4176 45.1895 43.8506C44.7292 44.2835 44.1208 44.5 43.3643 44.5H40.4932V37.7803H41.8945V39.8789H43.3643C44.1208 39.8789 44.7292 40.0977 45.1895 40.5352ZM48.2656 37.7803V44.5H46.8643V37.7803H48.2656ZM56.9473 41.2119C56.9473 42.1553 56.6146 42.9619 55.9492 43.6318C55.2884 44.3018 54.5023 44.6367 53.5908 44.6367C52.5381 44.6367 51.6904 44.2607 51.0479 43.5088C50.4098 42.7523 50.0908 41.6585 50.0908 40.2275C50.0908 38.596 50.3939 37.3724 51 36.5566C51.6061 35.7409 52.4697 35.2396 53.5908 35.0527C54.0876 34.9707 54.5319 34.8659 54.9238 34.7383C55.3203 34.6107 55.5938 34.5036 55.7441 34.417L55.9697 34.2803L56.5986 35.333C56.5713 35.3695 56.5143 35.4219 56.4277 35.4902C56.3457 35.5586 56.0609 35.6816 55.5732 35.8594C55.0902 36.0371 54.4749 36.1875 53.7275 36.3105C53.085 36.4154 52.5677 36.682 52.1758 37.1104C51.7839 37.5387 51.5537 38.113 51.4854 38.833C51.5036 38.8057 51.5355 38.7692 51.5811 38.7236C51.6312 38.6735 51.7292 38.5892 51.875 38.4707C52.0208 38.3477 52.1735 38.2406 52.333 38.1494C52.4971 38.0537 52.7044 37.9694 52.9551 37.8965C53.2103 37.819 53.4678 37.7803 53.7275 37.7803C54.5752 37.7803 55.3226 38.1198 55.9697 38.7988C56.6214 39.4733 56.9473 40.2777 56.9473 41.2119ZM52.21 39.667C51.8226 40.0817 51.6289 40.5967 51.6289 41.2119C51.6289 41.8271 51.8226 42.3421 52.21 42.7568C52.5973 43.1715 53.0553 43.3789 53.584 43.3789C54.1172 43.3789 54.5775 43.1715 54.9648 42.7568C55.3522 42.3421 55.5459 41.8271 55.5459 41.2119C55.5459 40.5967 55.3522 40.0817 54.9648 39.667C54.5775 39.2477 54.1172 39.0381 53.584 39.0381C53.0553 39.0381 52.5973 39.2477 52.21 39.667ZM62.1904 44.6367C61.9398 44.6367 61.696 44.6071 61.459 44.5479C61.222 44.4886 61.0192 44.4157 60.8506 44.3291C60.682 44.238 60.5316 44.1468 60.3994 44.0557C60.2718 43.96 60.1784 43.8848 60.1191 43.8301L60.0234 43.7275V47.4395H58.6221V37.7803H60.0234V38.5527C60.0872 38.4889 60.1761 38.4046 60.29 38.2998C60.4085 38.195 60.6569 38.0583 61.0352 37.8896C61.4134 37.721 61.7985 37.6367 62.1904 37.6367C63.0791 37.6367 63.8493 37.9785 64.501 38.6621C65.1572 39.3411 65.4854 40.166 65.4854 41.1367C65.4854 42.1074 65.1572 42.9346 64.501 43.6182C63.8493 44.2972 63.0791 44.6367 62.1904 44.6367ZM63.4688 39.5576C63.0586 39.1201 62.5869 38.9014 62.0537 38.9014C61.5205 38.9014 61.0488 39.1201 60.6387 39.5576C60.2285 39.9951 60.0234 40.5238 60.0234 41.1436C60.0234 41.7588 60.2285 42.2852 60.6387 42.7227C61.0488 43.1602 61.5205 43.3789 62.0537 43.3789C62.5869 43.3789 63.0586 43.1602 63.4688 42.7227C63.8789 42.2852 64.084 41.7588 64.084 41.1436C64.084 40.5238 63.8789 39.9951 63.4688 39.5576ZM72.4102 44.5H71.0088V43.8027C70.9906 43.821 70.9587 43.8506 70.9131 43.8916C70.8721 43.9326 70.7855 44.001 70.6533 44.0967C70.5257 44.1878 70.3867 44.2721 70.2363 44.3496C70.0859 44.4225 69.8968 44.4886 69.6689 44.5479C69.4411 44.6071 69.2109 44.6367 68.9785 44.6367C68.2949 44.6367 67.7275 44.4385 67.2764 44.042C66.8252 43.6455 66.5996 43.1921 66.5996 42.6816C66.5996 42.1302 66.7728 41.6676 67.1191 41.2939C67.4701 40.9202 67.9486 40.6833 68.5547 40.583L71.0088 40.1592C71.0088 39.8037 70.8766 39.5052 70.6123 39.2637C70.3525 39.0221 70.0176 38.9014 69.6074 38.9014C69.252 38.9014 68.9284 38.9766 68.6367 39.127C68.3496 39.2728 68.1514 39.4209 68.042 39.5713L67.8574 39.8105L66.9482 38.9014C66.9756 38.8649 67.012 38.8193 67.0576 38.7646C67.1077 38.7054 67.2148 38.6051 67.3789 38.4639C67.5475 38.318 67.7253 38.1882 67.9121 38.0742C68.099 37.9603 68.3451 37.86 68.6504 37.7734C68.9603 37.6823 69.2793 37.6367 69.6074 37.6367C70.4277 37.6367 71.0999 37.8805 71.624 38.3682C72.1481 38.8512 72.4102 39.4482 72.4102 40.1592V44.5ZM69.1904 43.3789C69.7601 43.3789 70.2044 43.2103 70.5234 42.873C70.847 42.5312 71.0088 42.0459 71.0088 41.417V41.2803L68.835 41.6289C68.5843 41.6745 68.3815 41.777 68.2266 41.9365C68.0716 42.096 67.9941 42.2965 67.9941 42.5381C67.9941 42.7614 68.1012 42.9574 68.3154 43.126C68.5342 43.2946 68.8258 43.3789 69.1904 43.3789ZM73.6748 39.0381V37.7803H79.6904V39.0381H77.3799V44.5H75.9854V39.0381H73.6748ZM82.3496 43.3105H83.8877C84.2067 43.3105 84.4733 43.2035 84.6875 42.9893C84.9017 42.7751 85.0088 42.5085 85.0088 42.1895C85.0088 41.8704 84.9017 41.6038 84.6875 41.3896C84.4733 41.1755 84.2067 41.0684 83.8877 41.0684H82.3496V43.3105ZM85.7129 40.5352C86.1777 40.9681 86.4102 41.5218 86.4102 42.1963C86.4102 42.8662 86.1777 43.4176 85.7129 43.8506C85.2526 44.2835 84.6442 44.5 83.8877 44.5H80.9482V37.7803H82.3496V39.8789H83.8877C84.6442 39.8789 85.2526 40.0977 85.7129 40.5352ZM94.251 47.4395V44.6367C93.0843 44.6367 92.1387 44.304 91.4141 43.6387C90.694 42.9733 90.334 42.1416 90.334 41.1436C90.334 40.141 90.694 39.307 91.4141 38.6416C92.1387 37.9717 93.0843 37.6367 94.251 37.6367V34.6973H95.6523V37.6367C96.819 37.6367 97.7624 37.9717 98.4824 38.6416C99.207 39.307 99.5693 40.141 99.5693 41.1436C99.5693 42.1416 99.207 42.9733 98.4824 43.6387C97.7624 44.304 96.819 44.6367 95.6523 44.6367V47.4395H94.251ZM94.251 43.3789V38.9014C93.458 38.9014 92.8382 39.1042 92.3916 39.5098C91.9495 39.9154 91.7285 40.46 91.7285 41.1436C91.7285 41.8226 91.9495 42.3649 92.3916 42.7705C92.8382 43.1761 93.458 43.3789 94.251 43.3789ZM95.6523 38.9014V43.3789C96.4453 43.3789 97.0628 43.1761 97.5049 42.7705C97.9515 42.3649 98.1748 41.8226 98.1748 41.1436C98.1748 40.46 97.9515 39.9154 97.5049 39.5098C97.0628 39.1042 96.4453 38.9014 95.6523 38.9014ZM106.016 37.7803H107.273V44.5H105.872V40.0908L102.372 44.5H101.114V37.7803H102.516V42.1895L106.016 37.7803ZM110.008 37.7803H115.189V44.5H113.788V39.0381H111.409V39.7422C111.409 41.0228 111.307 42.0345 111.102 42.7773C110.901 43.5156 110.641 44.0101 110.322 44.2607C110.008 44.5114 109.6 44.6367 109.099 44.6367C108.976 44.6367 108.843 44.6253 108.702 44.6025C108.565 44.5798 108.458 44.5547 108.381 44.5273L108.258 44.5V43.167C108.445 43.2126 108.606 43.2376 108.743 43.2422C109.03 43.2422 109.256 43.1647 109.42 43.0098C109.589 42.8548 109.728 42.513 109.837 41.9844C109.951 41.4512 110.008 40.7038 110.008 39.7422V37.7803ZM122.053 37.7803H123.311V44.5H121.909V40.0908L118.409 44.5H117.151V37.7803H118.553V42.1895L122.053 37.7803ZM130.666 44.5H129.265V43.8027C129.246 43.821 129.215 43.8506 129.169 43.8916C129.128 43.9326 129.041 44.001 128.909 44.0967C128.782 44.1878 128.643 44.2721 128.492 44.3496C128.342 44.4225 128.153 44.4886 127.925 44.5479C127.697 44.6071 127.467 44.6367 127.234 44.6367C126.551 44.6367 125.983 44.4385 125.532 44.042C125.081 43.6455 124.855 43.1921 124.855 42.6816C124.855 42.1302 125.029 41.6676 125.375 41.2939C125.726 40.9202 126.204 40.6833 126.811 40.583L129.265 40.1592C129.265 39.8037 129.132 39.5052 128.868 39.2637C128.608 39.0221 128.273 38.9014 127.863 38.9014C127.508 38.9014 127.184 38.9766 126.893 39.127C126.605 39.2728 126.407 39.4209 126.298 39.5713L126.113 39.8105L125.204 38.9014C125.231 38.8649 125.268 38.8193 125.313 38.7646C125.364 38.7054 125.471 38.6051 125.635 38.4639C125.803 38.318 125.981 38.1882 126.168 38.0742C126.355 37.9603 126.601 37.86 126.906 37.7734C127.216 37.6823 127.535 37.6367 127.863 37.6367C128.684 37.6367 129.356 37.8805 129.88 38.3682C130.404 38.8512 130.666 39.4482 130.666 40.1592V44.5ZM127.446 43.3789C128.016 43.3789 128.46 43.2103 128.779 42.873C129.103 42.5312 129.265 42.0459 129.265 41.417V41.2803L127.091 41.6289C126.84 41.6745 126.637 41.777 126.482 41.9365C126.327 42.096 126.25 42.2965 126.25 42.5381C126.25 42.7614 126.357 42.9574 126.571 43.126C126.79 43.2946 127.082 43.3789 127.446 43.3789ZM133.4 37.7803H138.582V44.5H137.181V39.0381H134.802V39.7422C134.802 41.0228 134.699 42.0345 134.494 42.7773C134.294 43.5156 134.034 44.0101 133.715 44.2607C133.4 44.5114 132.993 44.6367 132.491 44.6367C132.368 44.6367 132.236 44.6253 132.095 44.6025C131.958 44.5798 131.851 44.5547 131.773 44.5273L131.65 44.5V43.167C131.837 43.2126 131.999 43.2376 132.136 43.2422C132.423 43.2422 132.648 43.1647 132.812 43.0098C132.981 42.8548 133.12 42.513 133.229 41.9844C133.343 41.4512 133.4 40.7038 133.4 39.7422V37.7803Z" fill="#7D838C"/>
<path d="M218.8 38.6L216 41.932L213.2 38.6H218.8Z" fill="#AFB6C1"/>
<path d="M384 90H177C175.343 90 174 91.3431 174 93V127C174 128.657 175.343 130 177 130H384C385.657 130 387 128.657 387 127V93C387 91.3431 385.657 90 384 90Z" fill="#F3F5F6"/>
<path d="M189.599 114.5H185.401V104.697H189.387C190.18 104.697 190.856 104.959 191.417 105.483C191.978 106.007 192.258 106.609 192.258 107.288C192.258 107.68 192.176 108.04 192.012 108.368C191.852 108.696 191.693 108.924 191.533 109.052L191.28 109.25C191.317 109.268 191.367 109.3 191.431 109.346C191.499 109.387 191.62 109.48 191.793 109.626C191.966 109.767 192.114 109.924 192.237 110.098C192.365 110.271 192.481 110.496 192.586 110.774C192.695 111.048 192.75 111.333 192.75 111.629C192.75 112.413 192.449 113.087 191.848 113.652C191.246 114.217 190.496 114.5 189.599 114.5ZM186.939 113.167H189.599C190.054 113.167 190.437 113.014 190.747 112.709C191.057 112.399 191.212 112.016 191.212 111.561C191.212 111.105 191.057 110.722 190.747 110.412C190.442 110.102 190.059 109.947 189.599 109.947H186.939V113.167ZM189.387 106.03H186.939V108.689H189.387C189.77 108.689 190.086 108.564 190.337 108.313C190.592 108.058 190.72 107.742 190.72 107.363C190.72 106.98 190.592 106.664 190.337 106.413C190.086 106.158 189.77 106.03 189.387 106.03ZM195.895 113.311H197.364C197.683 113.311 197.95 113.203 198.164 112.989C198.378 112.775 198.485 112.508 198.485 112.189C198.485 111.87 198.378 111.604 198.164 111.39C197.95 111.175 197.683 111.068 197.364 111.068H195.895V113.311ZM199.189 110.535C199.654 110.968 199.887 111.522 199.887 112.196C199.887 112.866 199.654 113.418 199.189 113.851C198.729 114.284 198.121 114.5 197.364 114.5H194.493V107.78H195.895V109.879H197.364C198.121 109.879 198.729 110.098 199.189 110.535ZM202.266 107.78V114.5H200.864V107.78H202.266ZM210.947 111.212C210.947 112.155 210.615 112.962 209.949 113.632C209.288 114.302 208.502 114.637 207.591 114.637C206.538 114.637 205.69 114.261 205.048 113.509C204.41 112.752 204.091 111.659 204.091 110.228C204.091 108.596 204.394 107.372 205 106.557C205.606 105.741 206.47 105.24 207.591 105.053C208.088 104.971 208.532 104.866 208.924 104.738C209.32 104.611 209.594 104.504 209.744 104.417L209.97 104.28L210.599 105.333C210.571 105.369 210.514 105.422 210.428 105.49C210.346 105.559 210.061 105.682 209.573 105.859C209.09 106.037 208.475 106.188 207.728 106.311C207.085 106.415 206.568 106.682 206.176 107.11C205.784 107.539 205.554 108.113 205.485 108.833C205.504 108.806 205.535 108.769 205.581 108.724C205.631 108.674 205.729 108.589 205.875 108.471C206.021 108.348 206.174 108.241 206.333 108.149C206.497 108.054 206.704 107.969 206.955 107.896C207.21 107.819 207.468 107.78 207.728 107.78C208.575 107.78 209.323 108.12 209.97 108.799C210.621 109.473 210.947 110.278 210.947 111.212ZM206.21 109.667C205.823 110.082 205.629 110.597 205.629 111.212C205.629 111.827 205.823 112.342 206.21 112.757C206.597 113.172 207.055 113.379 207.584 113.379C208.117 113.379 208.577 113.172 208.965 112.757C209.352 112.342 209.546 111.827 209.546 111.212C209.546 110.597 209.352 110.082 208.965 109.667C208.577 109.248 208.117 109.038 207.584 109.038C207.055 109.038 206.597 109.248 206.21 109.667ZM216.19 114.637C215.94 114.637 215.696 114.607 215.459 114.548C215.222 114.489 215.019 114.416 214.851 114.329C214.682 114.238 214.532 114.147 214.399 114.056C214.272 113.96 214.178 113.885 214.119 113.83L214.023 113.728V117.439H212.622V107.78H214.023V108.553C214.087 108.489 214.176 108.405 214.29 108.3C214.409 108.195 214.657 108.058 215.035 107.89C215.413 107.721 215.799 107.637 216.19 107.637C217.079 107.637 217.849 107.979 218.501 108.662C219.157 109.341 219.485 110.166 219.485 111.137C219.485 112.107 219.157 112.935 218.501 113.618C217.849 114.297 217.079 114.637 216.19 114.637ZM217.469 109.558C217.059 109.12 216.587 108.901 216.054 108.901C215.521 108.901 215.049 109.12 214.639 109.558C214.229 109.995 214.023 110.524 214.023 111.144C214.023 111.759 214.229 112.285 214.639 112.723C215.049 113.16 215.521 113.379 216.054 113.379C216.587 113.379 217.059 113.16 217.469 112.723C217.879 112.285 218.084 111.759 218.084 111.144C218.084 110.524 217.879 109.995 217.469 109.558ZM226.41 114.5H225.009V113.803C224.991 113.821 224.959 113.851 224.913 113.892C224.872 113.933 224.785 114.001 224.653 114.097C224.526 114.188 224.387 114.272 224.236 114.35C224.086 114.423 223.897 114.489 223.669 114.548C223.441 114.607 223.211 114.637 222.979 114.637C222.295 114.637 221.728 114.438 221.276 114.042C220.825 113.646 220.6 113.192 220.6 112.682C220.6 112.13 220.773 111.668 221.119 111.294C221.47 110.92 221.949 110.683 222.555 110.583L225.009 110.159C225.009 109.804 224.877 109.505 224.612 109.264C224.353 109.022 224.018 108.901 223.607 108.901C223.252 108.901 222.928 108.977 222.637 109.127C222.35 109.273 222.151 109.421 222.042 109.571L221.857 109.811L220.948 108.901C220.976 108.865 221.012 108.819 221.058 108.765C221.108 108.705 221.215 108.605 221.379 108.464C221.548 108.318 221.725 108.188 221.912 108.074C222.099 107.96 222.345 107.86 222.65 107.773C222.96 107.682 223.279 107.637 223.607 107.637C224.428 107.637 225.1 107.881 225.624 108.368C226.148 108.851 226.41 109.448 226.41 110.159V114.5ZM223.19 113.379C223.76 113.379 224.204 113.21 224.523 112.873C224.847 112.531 225.009 112.046 225.009 111.417V111.28L222.835 111.629C222.584 111.674 222.382 111.777 222.227 111.937C222.072 112.096 221.994 112.297 221.994 112.538C221.994 112.761 222.101 112.957 222.315 113.126C222.534 113.295 222.826 113.379 223.19 113.379ZM227.675 109.038V107.78H233.69V109.038H231.38V114.5H229.985V109.038H227.675ZM236.35 113.311H237.888C238.207 113.311 238.473 113.203 238.688 112.989C238.902 112.775 239.009 112.508 239.009 112.189C239.009 111.87 238.902 111.604 238.688 111.39C238.473 111.175 238.207 111.068 237.888 111.068H236.35V113.311ZM239.713 110.535C240.178 110.968 240.41 111.522 240.41 112.196C240.41 112.866 240.178 113.418 239.713 113.851C239.253 114.284 238.644 114.5 237.888 114.5H234.948V107.78H236.35V109.879H237.888C238.644 109.879 239.253 110.098 239.713 110.535ZM249.864 104.561C250.361 104.561 250.837 104.627 251.293 104.759C251.749 104.886 252.125 105.044 252.421 105.23C252.722 105.417 252.984 105.602 253.207 105.784C253.43 105.966 253.594 106.124 253.699 106.256L253.85 106.447L252.872 107.432C252.845 107.395 252.804 107.345 252.749 107.281C252.699 107.213 252.58 107.092 252.394 106.919C252.207 106.746 252.006 106.598 251.792 106.475C251.578 106.347 251.298 106.231 250.951 106.126C250.609 106.017 250.247 105.962 249.864 105.962C248.848 105.962 247.987 106.315 247.28 107.021C246.574 107.723 246.221 108.582 246.221 109.599C246.221 110.615 246.572 111.476 247.273 112.183C247.98 112.889 248.843 113.242 249.864 113.242C250.247 113.242 250.612 113.19 250.958 113.085C251.309 112.976 251.598 112.846 251.826 112.695C252.059 112.545 252.261 112.397 252.435 112.251C252.612 112.101 252.744 111.973 252.831 111.868L252.94 111.697L253.925 112.682C253.888 112.736 253.831 112.809 253.754 112.9C253.681 112.987 253.515 113.142 253.255 113.365C253 113.589 252.726 113.787 252.435 113.96C252.147 114.133 251.769 114.29 251.3 114.432C250.835 114.568 250.356 114.637 249.864 114.637C248.397 114.637 247.166 114.149 246.173 113.174C245.179 112.199 244.683 111.007 244.683 109.599C244.683 108.19 245.179 106.999 246.173 106.023C247.166 105.048 248.397 104.561 249.864 104.561ZM259.947 112.729C260.362 112.297 260.569 111.768 260.569 111.144C260.569 110.515 260.362 109.984 259.947 109.551C259.533 109.118 259.04 108.901 258.471 108.901C257.901 108.901 257.407 109.118 256.987 109.551C256.573 109.984 256.365 110.515 256.365 111.144C256.365 111.768 256.573 112.297 256.987 112.729C257.407 113.162 257.901 113.379 258.471 113.379C259.04 113.379 259.533 113.162 259.947 112.729ZM256.01 113.598C255.317 112.9 254.971 112.082 254.971 111.144C254.971 110.2 255.317 109.38 256.01 108.683C256.707 107.985 257.527 107.637 258.471 107.637C259.414 107.637 260.232 107.985 260.925 108.683C261.622 109.38 261.971 110.2 261.971 111.144C261.971 112.082 261.622 112.9 260.925 113.598C260.232 114.29 259.414 114.637 258.471 114.637C257.527 114.637 256.707 114.29 256.01 113.598ZM262.812 109.038V107.78H268.827V109.038H266.517V114.5H265.122V109.038H262.812ZM273.653 114.637C273.403 114.637 273.159 114.607 272.922 114.548C272.685 114.489 272.482 114.416 272.313 114.329C272.145 114.238 271.994 114.147 271.862 114.056C271.735 113.96 271.641 113.885 271.582 113.83L271.486 113.728V117.439H270.085V107.78H271.486V108.553C271.55 108.489 271.639 108.405 271.753 108.3C271.871 108.195 272.12 108.058 272.498 107.89C272.876 107.721 273.261 107.637 273.653 107.637C274.542 107.637 275.312 107.979 275.964 108.662C276.62 109.341 276.948 110.166 276.948 111.137C276.948 112.107 276.62 112.935 275.964 113.618C275.312 114.297 274.542 114.637 273.653 114.637ZM274.932 109.558C274.521 109.12 274.05 108.901 273.517 108.901C272.983 108.901 272.512 109.12 272.102 109.558C271.691 109.995 271.486 110.524 271.486 111.144C271.486 111.759 271.691 112.285 272.102 112.723C272.512 113.16 272.983 113.379 273.517 113.379C274.05 113.379 274.521 113.16 274.932 112.723C275.342 112.285 275.547 111.759 275.547 111.144C275.547 110.524 275.342 109.995 274.932 109.558ZM280.093 115.197L280.373 114.5L277.639 107.78H279.108L281.07 112.682L283.032 107.78H284.502L281.487 115.197C281.141 116.027 280.797 116.608 280.455 116.94C280.118 117.273 279.694 117.439 279.184 117.439C278.997 117.439 278.821 117.428 278.657 117.405C278.493 117.382 278.372 117.357 278.295 117.33L278.199 117.303V116.038C278.432 116.129 278.666 116.177 278.903 116.182C279.437 116.177 279.833 115.849 280.093 115.197ZM284.639 113.242H285.124C285.151 113.215 285.19 113.172 285.24 113.112C285.295 113.049 285.386 112.91 285.514 112.695C285.646 112.481 285.76 112.251 285.855 112.005C285.956 111.754 286.045 111.426 286.122 111.021C286.204 110.615 286.245 110.189 286.245 109.742V107.78H291.146V113.242H292.124V116.182H290.729V114.5H286.04V116.182H284.639V113.242ZM287.646 109.038V109.742C287.646 110.189 287.608 110.613 287.53 111.014C287.457 111.415 287.364 111.747 287.25 112.012C287.141 112.271 287.029 112.497 286.915 112.688C286.806 112.88 286.715 113.017 286.642 113.099L286.525 113.242H289.745V109.038H287.646ZM294.934 111.697V114.5H293.532V107.78H294.934V110.439H298.222V107.78H299.623V114.5H298.222V111.697H294.934ZM306.486 107.78H307.744V114.5H306.343V110.091L302.843 114.5H301.585V107.78H302.986V112.189L306.486 107.78ZM315.66 107.78L313.069 110.583L315.865 114.5H314.327L312.16 111.492L311.107 112.613V114.5H309.706V107.78H311.107V110.788L313.979 107.78H315.66ZM322.373 114.5H320.972V113.803C320.953 113.821 320.922 113.851 320.876 113.892C320.835 113.933 320.748 114.001 320.616 114.097C320.489 114.188 320.35 114.272 320.199 114.35C320.049 114.423 319.86 114.489 319.632 114.548C319.404 114.607 319.174 114.637 318.941 114.637C318.258 114.637 317.69 114.438 317.239 114.042C316.788 113.646 316.562 113.192 316.562 112.682C316.562 112.13 316.736 111.668 317.082 111.294C317.433 110.92 317.911 110.683 318.518 110.583L320.972 110.159C320.972 109.804 320.84 109.505 320.575 109.264C320.315 109.022 319.98 108.901 319.57 108.901C319.215 108.901 318.891 108.977 318.6 109.127C318.312 109.273 318.114 109.421 318.005 109.571L317.82 109.811L316.911 108.901C316.938 108.865 316.975 108.819 317.021 108.765C317.071 108.705 317.178 108.605 317.342 108.464C317.51 108.318 317.688 108.188 317.875 108.074C318.062 107.96 318.308 107.86 318.613 107.773C318.923 107.682 319.242 107.637 319.57 107.637C320.391 107.637 321.063 107.881 321.587 108.368C322.111 108.851 322.373 109.448 322.373 110.159V114.5ZM319.153 113.379C319.723 113.379 320.167 113.21 320.486 112.873C320.81 112.531 320.972 112.046 320.972 111.417V111.28L318.798 111.629C318.547 111.674 318.344 111.777 318.189 111.937C318.035 112.096 317.957 112.297 317.957 112.538C317.957 112.761 318.064 112.957 318.278 113.126C318.497 113.295 318.789 113.379 319.153 113.379Z" fill="#7D838C"/>
<path d="M372.8 108.6L370 111.932L367.2 108.6H372.8Z" fill="#AFB6C1"/>
<g filter="url(#filter0_d_5101_42387)">
<path fill-rule="evenodd" clip-rule="evenodd" d="M200.836 61L199.949 59.6453C199.344 58.7203 198.054 58.3829 197.068 58.89L197.298 58.7718C197.053 58.8977 196.935 59.2114 197.036 59.4721L198.263 62.6474C198.458 63.1508 198.955 63.8627 199.367 64.2203C199.367 64.2203 201.836 66.2639 201.836 67.03V68H205.836L206.836 66L207.836 68H208.836V67.03C208.836 66.2639 210.344 63.8507 210.344 63.8507C210.622 63.3816 210.854 62.5552 210.854 62.0066V57.9718C210.836 57.0785 210.076 56.3545 209.139 56.3545C208.671 56.3545 208.291 56.7165 208.291 57.1634V57.4866C208.291 56.5933 207.532 55.8693 206.595 55.8693C206.126 55.8693 205.746 56.2313 205.746 56.6782V57.0013C205.746 56.108 204.987 55.3841 204.05 55.3841C203.581 55.3841 203.201 55.7461 203.201 56.193V56.5161C203.201 56.3726 203.186 56.2584 203.157 56.168L202.898 52.0012C202.863 51.4378 202.388 51 201.836 51C201.279 51 200.836 51.4476 200.836 51.9998V56V61ZM207.854 60H208.854V64H207.854V60ZM205.854 60H206.854V64H205.854V60ZM203.854 60H204.854V64H203.854V60Z" fill="white"/>
<mask id="mask1_5101_42387" style="mask-type:luminance" maskUnits="userSpaceOnUse" x="196" y="50" width="16" height="19">
<path d="M212 50H196V69H212V50Z" fill="white"/>
<path fill-rule="evenodd" clip-rule="evenodd" d="M200.836 61L199.949 59.6453C199.344 58.7203 198.054 58.3829 197.068 58.89L197.298 58.7718C197.053 58.8977 196.935 59.2114 197.036 59.4721L198.263 62.6474C198.458 63.1508 198.955 63.8627 199.367 64.2203C199.367 64.2203 201.836 66.2639 201.836 67.03V68H205.836L206.836 66L207.836 68H208.836V67.03C208.836 66.2639 210.344 63.8507 210.344 63.8507C210.622 63.3816 210.854 62.5552 210.854 62.0066V57.9718C210.836 57.0785 210.076 56.3545 209.139 56.3545C208.671 56.3545 208.291 56.7165 208.291 57.1634V57.4866C208.291 56.5933 207.532 55.8693 206.595 55.8693C206.126 55.8693 205.746 56.2313 205.746 56.6782V57.0013C205.746 56.108 204.987 55.3841 204.05 55.3841C203.581 55.3841 203.201 55.7461 203.201 56.193V56.5161C203.201 56.3726 203.186 56.2584 203.157 56.168L202.898 52.0012C202.863 51.4378 202.388 51 201.836 51C201.279 51 200.836 51.4476 200.836 51.9998V56V61ZM207.854 60H208.854V64H207.854V60ZM205.854 60H206.854V64H205.854V60ZM203.854 60H204.854V64H203.854V60Z" fill="black"/>
</mask>
<g mask="url(#mask1_5101_42387)">
<path d="M200.836 61L199.999 61.5476L201.836 64.354V61H200.836ZM199.367 64.2203L198.711 64.9753L198.72 64.9831L198.729 64.9907L199.367 64.2203ZM201.836 68H200.836V69H201.836V68ZM205.836 68V69H206.454L206.73 68.4472L205.836 68ZM206.836 66L207.73 65.5528L206.836 63.7639L205.941 65.5528L206.836 66ZM207.836 68L206.941 68.4472L207.218 69H207.836V68ZM208.836 68V69H209.836V68H208.836ZM210.344 63.8507L211.192 64.3808L211.199 64.3706L211.205 64.3602L210.344 63.8507ZM210.854 57.9718H211.854V57.9617L211.853 57.9516L210.854 57.9718ZM203.157 56.168L202.158 56.23L202.166 56.3578L202.206 56.4795L203.157 56.168ZM208.854 60H209.854V59H208.854V60ZM208.854 64V65H209.854V64H208.854ZM207.854 64H206.854V65H207.854V64ZM206.854 60H207.854V59H206.854V60ZM206.854 64V65H207.854V64H206.854ZM205.854 64H204.854V65H205.854V64ZM204.854 60H205.854V59H204.854V60ZM204.854 64V65H205.854V64H204.854ZM203.854 64H202.854V65H203.854V64ZM201.672 60.4524L200.786 59.0977L199.112 60.193L199.999 61.5476L201.672 60.4524ZM200.786 59.0977C199.898 57.7415 198.049 57.2611 196.61 58.0006L197.525 59.7793C198.059 59.5047 198.789 59.6992 199.112 60.193L200.786 59.0977ZM197.525 59.7793L197.755 59.6612L196.84 57.8825L196.61 58.0006L197.525 59.7793ZM196.84 57.8825C196.131 58.2471 195.822 59.1052 196.103 59.8327L197.969 59.1116C198.014 59.2295 198.005 59.3396 197.974 59.4213C197.944 59.5027 197.876 59.5986 197.755 59.6612L196.84 57.8825ZM196.103 59.8327L197.331 63.0079L199.196 62.2869L197.969 59.1116L196.103 59.8327ZM197.331 63.0079C197.583 63.6618 198.175 64.5096 198.711 64.9753L200.022 63.4653C199.735 63.2158 199.333 62.6398 199.196 62.2869L197.331 63.0079ZM199.367 64.2203C198.729 64.9907 198.729 64.9907 198.729 64.9907C198.729 64.9908 198.729 64.9909 198.73 64.9912C198.73 64.9919 198.732 64.993 198.734 64.9947C198.738 64.9979 198.744 65.003 198.752 65.0099C198.768 65.0237 198.793 65.0445 198.825 65.0716C198.889 65.1259 198.981 65.205 199.092 65.3025C199.315 65.4985 199.609 65.7648 199.9 66.051C200.196 66.3416 200.468 66.6324 200.659 66.8795C200.755 67.0037 200.813 67.0948 200.843 67.1524C200.884 67.23 200.836 67.1741 200.836 67.03H202.836C202.836 66.6944 202.71 66.407 202.616 66.2262C202.511 66.0255 202.376 65.8312 202.241 65.6561C201.969 65.3045 201.624 64.9407 201.302 64.6247C200.976 64.3042 200.653 64.0118 200.413 63.8007C200.292 63.6947 200.191 63.6081 200.12 63.5476C200.085 63.5174 200.056 63.4935 200.037 63.477C200.027 63.4687 200.019 63.4623 200.014 63.4577C200.011 63.4555 200.009 63.4537 200.007 63.4524C200.006 63.4517 200.006 63.4512 200.005 63.4508C200.005 63.4506 200.005 63.4509 200.005 63.4508C200.005 63.4507 200.004 63.4501 200.004 63.4501C200.004 63.45 200.004 63.45 199.367 64.2203ZM200.836 67.03V68H202.836V67.03H200.836ZM201.836 69H205.836V67H201.836V69ZM206.73 68.4472L207.73 66.4472L205.941 65.5528L204.941 67.5528L206.73 68.4472ZM205.941 66.4472L206.941 68.4472L208.73 67.5528L207.73 65.5528L205.941 66.4472ZM207.836 69H208.836V67H207.836V69ZM209.836 68V67.03H207.836V68H209.836ZM209.836 67.03C209.836 67.0658 209.846 66.9439 209.992 66.6C210.116 66.3073 210.288 65.9649 210.47 65.6279C210.65 65.2941 210.831 64.9809 210.968 64.7503C211.037 64.6354 211.093 64.5418 211.133 64.4775C211.152 64.4453 211.168 64.4206 211.178 64.4041C211.183 64.3959 211.187 64.3897 211.189 64.3858C211.19 64.3839 211.191 64.3817 211.192 64.3808C211.192 64.3804 211.192 64.3809 211.192 64.3808C211.192 64.3809 211.192 64.3808 210.344 63.8507C209.496 63.3205 209.496 63.3206 209.496 63.3207C209.496 63.3205 209.496 63.3208 209.496 63.3207C209.496 63.3212 209.495 63.3225 209.495 63.3232C209.494 63.3247 209.493 63.3268 209.491 63.3294C209.488 63.3347 209.483 63.3422 209.477 63.3518C209.465 63.3711 209.448 63.3989 209.426 63.4342C209.383 63.5049 209.322 63.6059 209.249 63.7291C209.103 63.9749 208.907 64.3129 208.71 64.6782C208.515 65.0402 208.309 65.4448 208.15 65.82C208.013 66.1441 207.836 66.6112 207.836 67.03H209.836ZM211.205 64.3602C211.403 64.0261 211.559 63.6131 211.667 63.2258C211.774 62.839 211.854 62.4009 211.854 62.0066H209.854C209.854 62.161 209.817 62.4103 209.74 62.6912C209.662 62.9714 209.564 63.2061 209.484 63.3412L211.205 64.3602ZM211.854 62.0066V57.9718H209.854V62.0066H211.854ZM211.853 57.9516C211.824 56.4818 210.588 55.3545 209.139 55.3545V57.3545C209.565 57.3545 209.847 57.6752 209.854 57.992L211.853 57.9516ZM209.139 55.3545C208.164 55.3545 207.291 56.1198 207.291 57.1634H209.291C209.291 57.2317 209.26 57.2858 209.229 57.3152C209.199 57.3437 209.165 57.3545 209.139 57.3545V55.3545ZM207.291 57.1634V57.4866H209.291V57.1634H207.291ZM209.291 57.4866C209.291 55.9966 208.038 54.8693 206.595 54.8693V56.8693C207.025 56.8693 207.291 57.19 207.291 57.4866H209.291ZM206.595 54.8693C205.619 54.8693 204.746 55.6346 204.746 56.6782H206.746C206.746 56.7465 206.715 56.8005 206.685 56.8299C206.655 56.8585 206.621 56.8693 206.595 56.8693V54.8693ZM204.746 56.6782V57.0013H206.746V56.6782H204.746ZM206.746 57.0013C206.746 55.5113 205.494 54.3841 204.05 54.3841V56.3841C204.48 56.3841 204.746 56.7047 204.746 57.0013H206.746ZM204.05 54.3841C203.074 54.3841 202.201 55.1494 202.201 56.193H204.201C204.201 56.2613 204.171 56.3153 204.14 56.3447C204.11 56.3733 204.076 56.3841 204.05 56.3841V54.3841ZM202.201 56.193V56.5161H204.201V56.193H202.201ZM204.201 56.5161C204.201 56.3088 204.18 56.0809 204.107 55.8565L202.206 56.4795C202.198 56.4555 202.198 56.4444 202.199 56.4516C202.199 56.4587 202.201 56.4791 202.201 56.5161H204.201ZM204.155 56.106L203.896 51.9392L201.9 52.0632L202.158 56.23L204.155 56.106ZM203.896 51.9392C203.828 50.845 202.912 50 201.836 50V52C201.844 52 201.86 52.0035 201.877 52.0193C201.893 52.0344 201.899 52.0498 201.9 52.0632L203.896 51.9392ZM201.836 50C200.725 50 199.836 50.8977 199.836 51.9998L201.836 52V50ZM199.836 51.9998V56H201.836V52L199.836 51.9998ZM199.836 56V61H201.836V56H199.836ZM207.854 61H208.854V59H207.854V61ZM207.854 60V64H209.854V60H207.854ZM208.854 63H207.854V65H208.854V63ZM208.854 64V60H206.854V64H208.854ZM205.854 61H206.854V59H205.854V61ZM205.854 60V64H207.854V60H205.854ZM206.854 63H205.854V65H206.854V63ZM206.854 64V60H204.854V64H206.854ZM203.854 61H204.854V59H203.854V61ZM203.854 60V64H205.854V60H203.854ZM204.854 63H203.854V65H204.854V63ZM204.854 64V60H202.854V64H204.854Z" fill="black" fill-opacity="0.8"/>
</g>
</g>
<g filter="url(#filter1_d_5101_42387)">
<path fill-rule="evenodd" clip-rule="evenodd" d="M352.836 131L351.949 129.645C351.344 128.72 350.054 128.383 349.068 128.89L349.298 128.772C349.053 128.898 348.935 129.211 349.036 129.472L350.263 132.647C350.458 133.151 350.955 133.863 351.367 134.22C351.367 134.22 353.836 136.264 353.836 137.03V138H357.836L358.836 136L359.836 138H360.836V137.03C360.836 136.264 362.344 133.851 362.344 133.851C362.622 133.382 362.854 132.555 362.854 132.007V127.972C362.836 127.078 362.076 126.355 361.139 126.355C360.671 126.355 360.291 126.717 360.291 127.163V127.487C360.291 126.593 359.532 125.869 358.595 125.869C358.126 125.869 357.746 126.231 357.746 126.678V127.001C357.746 126.108 356.987 125.384 356.05 125.384C355.581 125.384 355.201 125.746 355.201 126.193V126.516C355.201 126.373 355.186 126.258 355.157 126.168L354.898 122.001C354.863 121.438 354.388 121 353.836 121C353.279 121 352.836 121.448 352.836 122V126V131ZM359.854 130H360.854V134H359.854V130ZM357.854 130H358.854V134H357.854V130ZM355.854 130H356.854V134H355.854V130Z" fill="white"/>
<mask id="mask2_5101_42387" style="mask-type:luminance" maskUnits="userSpaceOnUse" x="348" y="120" width="16" height="19">
<path d="M364 120H348V139H364V120Z" fill="white"/>
<path fill-rule="evenodd" clip-rule="evenodd" d="M352.836 131L351.949 129.645C351.344 128.72 350.054 128.383 349.068 128.89L349.298 128.772C349.053 128.898 348.935 129.211 349.036 129.472L350.263 132.647C350.458 133.151 350.955 133.863 351.367 134.22C351.367 134.22 353.836 136.264 353.836 137.03V138H357.836L358.836 136L359.836 138H360.836V137.03C360.836 136.264 362.344 133.851 362.344 133.851C362.622 133.382 362.854 132.555 362.854 132.007V127.972C362.836 127.078 362.076 126.355 361.139 126.355C360.671 126.355 360.291 126.717 360.291 127.163V127.487C360.291 126.593 359.532 125.869 358.595 125.869C358.126 125.869 357.746 126.231 357.746 126.678V127.001C357.746 126.108 356.987 125.384 356.05 125.384C355.581 125.384 355.201 125.746 355.201 126.193V126.516C355.201 126.373 355.186 126.258 355.157 126.168L354.898 122.001C354.863 121.438 354.388 121 353.836 121C353.279 121 352.836 121.448 352.836 122V126V131ZM359.854 130H360.854V134H359.854V130ZM357.854 130H358.854V134H357.854V130ZM355.854 130H356.854V134H355.854V130Z" fill="black"/>
</mask>
<g mask="url(#mask2_5101_42387)">
<path d="M352.836 131L351.999 131.548L353.836 134.354V131H352.836ZM351.367 134.22L350.711 134.975L350.72 134.983L350.729 134.991L351.367 134.22ZM353.836 138H352.836V139H353.836V138ZM357.836 138V139H358.454L358.73 138.447L357.836 138ZM358.836 136L359.73 135.553L358.836 133.764L357.941 135.553L358.836 136ZM359.836 138L358.941 138.447L359.218 139H359.836V138ZM360.836 138V139H361.836V138H360.836ZM362.344 133.851L363.192 134.381L363.199 134.371L363.205 134.36L362.344 133.851ZM362.854 127.972H363.854V127.962L363.853 127.952L362.854 127.972ZM355.157 126.168L354.158 126.23L354.166 126.358L354.206 126.479L355.157 126.168ZM360.854 130H361.854V129H360.854V130ZM360.854 134V135H361.854V134H360.854ZM359.854 134H358.854V135H359.854V134ZM358.854 130H359.854V129H358.854V130ZM358.854 134V135H359.854V134H358.854ZM357.854 134H356.854V135H357.854V134ZM356.854 130H357.854V129H356.854V130ZM356.854 134V135H357.854V134H356.854ZM355.854 134H354.854V135H355.854V134ZM353.672 130.452L352.786 129.098L351.112 130.193L351.999 131.548L353.672 130.452ZM352.786 129.098C351.898 127.742 350.049 127.261 348.61 128.001L349.525 129.779C350.059 129.505 350.789 129.699 351.112 130.193L352.786 129.098ZM349.525 129.779L349.755 129.661L348.84 127.882L348.61 128.001L349.525 129.779ZM348.84 127.882C348.131 128.247 347.822 129.105 348.103 129.833L349.969 129.112C350.014 129.23 350.005 129.34 349.974 129.421C349.944 129.503 349.876 129.599 349.755 129.661L348.84 127.882ZM348.103 129.833L349.331 133.008L351.196 132.287L349.969 129.112L348.103 129.833ZM349.331 133.008C349.583 133.662 350.175 134.51 350.711 134.975L352.022 133.465C351.735 133.216 351.333 132.64 351.196 132.287L349.331 133.008ZM351.367 134.22C350.729 134.991 350.729 134.991 350.729 134.991C350.729 134.991 350.729 134.991 350.73 134.991C350.73 134.992 350.732 134.993 350.734 134.995C350.738 134.998 350.744 135.003 350.752 135.01C350.768 135.024 350.793 135.045 350.825 135.072C350.889 135.126 350.981 135.205 351.092 135.303C351.315 135.499 351.609 135.765 351.9 136.051C352.196 136.342 352.468 136.632 352.659 136.88C352.755 137.004 352.813 137.095 352.843 137.152C352.884 137.23 352.836 137.174 352.836 137.03H354.836C354.836 136.694 354.71 136.407 354.616 136.226C354.511 136.025 354.376 135.831 354.241 135.656C353.969 135.304 353.624 134.941 353.302 134.625C352.976 134.304 352.653 134.012 352.413 133.801C352.292 133.695 352.191 133.608 352.12 133.548C352.085 133.517 352.056 133.494 352.037 133.477C352.027 133.469 352.019 133.462 352.014 133.458C352.011 133.455 352.009 133.454 352.007 133.452C352.006 133.452 352.006 133.451 352.005 133.451V133.45H352.004C352.004 133.45 352.004 133.45 351.367 134.22ZM352.836 137.03V138H354.836V137.03H352.836ZM353.836 139H357.836V137H353.836V139ZM358.73 138.447L359.73 136.447L357.941 135.553L356.941 137.553L358.73 138.447ZM357.941 136.447L358.941 138.447L360.73 137.553L359.73 135.553L357.941 136.447ZM359.836 139H360.836V137H359.836V139ZM361.836 138V137.03H359.836V138H361.836ZM361.836 137.03C361.836 137.066 361.846 136.944 361.992 136.6C362.116 136.307 362.288 135.965 362.47 135.628C362.65 135.294 362.831 134.981 362.968 134.75C363.037 134.635 363.093 134.542 363.133 134.477C363.152 134.445 363.168 134.421 363.178 134.404C363.183 134.396 363.187 134.39 363.189 134.386C363.19 134.384 363.191 134.382 363.192 134.382C363.192 134.381 363.192 134.381 363.192 134.381C363.192 134.381 363.192 134.381 362.344 133.851C361.496 133.321 361.496 133.321 361.496 133.321C361.496 133.322 361.495 133.322 361.495 133.323C361.494 133.325 361.493 133.327 361.491 133.329C361.488 133.335 361.483 133.342 361.477 133.352C361.465 133.371 361.448 133.399 361.426 133.434C361.383 133.505 361.322 133.606 361.249 133.729C361.103 133.975 360.907 134.313 360.71 134.678C360.515 135.04 360.309 135.445 360.15 135.82C360.013 136.144 359.836 136.611 359.836 137.03H361.836ZM363.205 134.36C363.403 134.026 363.559 133.613 363.667 133.226C363.774 132.839 363.854 132.401 363.854 132.007H361.854C361.854 132.161 361.817 132.41 361.74 132.691C361.662 132.971 361.564 133.206 361.484 133.341L363.205 134.36ZM363.854 132.007V127.972H361.854V132.007H363.854ZM363.853 127.952C363.824 126.482 362.588 125.355 361.139 125.355V127.355C361.565 127.355 361.847 127.675 361.854 127.992L363.853 127.952ZM361.139 125.355C360.164 125.355 359.291 126.12 359.291 127.163H361.291C361.291 127.232 361.26 127.286 361.229 127.315C361.199 127.344 361.165 127.355 361.139 127.355V125.355ZM359.291 127.163V127.487H361.291V127.163H359.291ZM361.291 127.487C361.291 125.997 360.038 124.869 358.595 124.869V126.869C359.025 126.869 359.291 127.19 359.291 127.487H361.291ZM358.595 124.869C357.619 124.869 356.746 125.635 356.746 126.678H358.746C358.746 126.746 358.715 126.801 358.685 126.83C358.655 126.859 358.621 126.869 358.595 126.869V124.869ZM356.746 126.678V127.001H358.746V126.678H356.746ZM358.746 127.001C358.746 125.511 357.494 124.384 356.05 124.384V126.384C356.48 126.384 356.746 126.705 356.746 127.001H358.746ZM356.05 124.384C355.074 124.384 354.201 125.149 354.201 126.193H356.201C356.201 126.261 356.171 126.315 356.14 126.345C356.11 126.373 356.076 126.384 356.05 126.384V124.384ZM354.201 126.193V126.516H356.201V126.193H354.201ZM356.201 126.516C356.201 126.309 356.18 126.081 356.107 125.857L354.206 126.479C354.198 126.456 354.198 126.444 354.199 126.452C354.199 126.459 354.201 126.479 354.201 126.516H356.201ZM356.155 126.106L355.896 121.939L353.9 122.063L354.158 126.23L356.155 126.106ZM355.896 121.939C355.828 120.845 354.912 120 353.836 120V122C353.844 122 353.86 122.003 353.877 122.019C353.893 122.034 353.899 122.05 353.9 122.063L355.896 121.939ZM353.836 120C352.725 120 351.836 120.898 351.836 122H353.836V120ZM351.836 122V126H353.836V122H351.836ZM351.836 126V131H353.836V126H351.836ZM359.854 131H360.854V129H359.854V131ZM359.854 130V134H361.854V130H359.854ZM360.854 133H359.854V135H360.854V133ZM360.854 134V130H358.854V134H360.854ZM357.854 131H358.854V129H357.854V131ZM357.854 130V134H359.854V130H357.854ZM358.854 133H357.854V135H358.854V133ZM358.854 134V130H356.854V134H358.854ZM355.854 131H356.854V129H355.854V131ZM355.854 130V134H357.854V130H355.854ZM356.854 133H355.854V135H356.854V133ZM356.854 134V130H354.854V134H356.854Z" fill="black" fill-opacity="0.8"/>
</g>
</g>
<path d="M149.068 116H142.561C142.561 115.394 142.652 114.845 142.834 114.353C143.016 113.856 143.253 113.443 143.545 113.115C143.841 112.787 144.165 112.486 144.516 112.213C144.871 111.939 145.224 111.691 145.575 111.468C145.926 111.24 146.247 111.017 146.539 110.798C146.835 110.579 147.075 110.324 147.257 110.032C147.439 109.736 147.53 109.415 147.53 109.068C147.53 108.572 147.375 108.18 147.065 107.893C146.76 107.605 146.332 107.462 145.78 107.462C145.511 107.462 145.258 107.512 145.021 107.612C144.789 107.708 144.607 107.824 144.475 107.961C144.347 108.093 144.233 108.228 144.133 108.364C144.037 108.501 143.971 108.619 143.935 108.72L143.887 108.863L142.629 108.303C142.647 108.239 142.672 108.157 142.704 108.057C142.741 107.956 142.836 107.779 142.991 107.523C143.151 107.268 143.335 107.043 143.545 106.847C143.755 106.651 144.058 106.471 144.454 106.307C144.851 106.143 145.293 106.061 145.78 106.061C146.742 106.061 147.53 106.35 148.146 106.929C148.761 107.507 149.068 108.221 149.068 109.068C149.068 109.515 148.977 109.93 148.795 110.312C148.613 110.695 148.38 111.017 148.098 111.276C147.82 111.532 147.498 111.796 147.134 112.069C146.774 112.338 146.423 112.584 146.081 112.808C145.739 113.031 145.402 113.3 145.069 113.614C144.741 113.924 144.488 114.252 144.311 114.599H149.068V116Z" fill="#6266EA"/>
<path d="M145.5 122.5C152.127 122.5 157.5 117.127 157.5 110.5C157.5 103.873 152.127 98.5 145.5 98.5C138.873 98.5 133.5 103.873 133.5 110.5C133.5 117.127 138.873 122.5 145.5 122.5Z" stroke="#6266EA"/>
<path d="M261.659 35.1973H262.849V45H261.311V37.583H259.561V36.5303C260.148 36.4665 260.595 36.3275 260.9 36.1133C261.21 35.8945 261.463 35.5892 261.659 35.1973Z" fill="#6266EA"/>
<path d="M261.5 51.5C268.127 51.5 273.5 46.1274 273.5 39.5C273.5 32.8726 268.127 27.5 261.5 27.5C254.873 27.5 249.5 32.8726 249.5 39.5C249.5 46.1274 254.873 51.5 261.5 51.5Z" stroke="#6266EA"/>
<path d="M143.5 93.9817C143.49 94.2577 143.706 94.4896 143.982 94.4997C144.258 94.5098 144.49 94.2942 144.5 94.0183L143.5 93.9817ZM144.5 94.0183C144.512 93.6782 144.528 93.3425 144.547 93.0111L143.549 92.9537C143.529 93.2921 143.513 93.6348 143.5 93.9817L144.5 94.0183ZM144.701 91.0753C144.769 90.41 144.851 89.7639 144.948 89.1365L143.959 88.9845C143.86 89.6292 143.775 90.2921 143.706 90.9736L144.701 91.0753ZM145.291 87.2535C145.431 86.5958 145.587 85.9609 145.761 85.3481L144.798 85.076C144.619 85.7109 144.457 86.3672 144.313 87.0457L145.291 87.2535ZM146.351 83.5171C146.575 82.9014 146.818 82.3108 147.08 81.7445L146.172 81.3255C145.898 81.9177 145.645 82.5339 145.411 83.1748L146.351 83.5171ZM147.97 80.026C148.297 79.4625 148.644 78.9265 149.012 78.4168L148.201 77.8316C147.813 78.3687 147.448 78.9327 147.105 79.5246L147.97 80.026ZM150.21 76.9275C150.638 76.4482 151.089 75.9963 151.561 75.5706L150.891 74.8283C150.393 75.2776 149.917 75.7547 149.464 76.2607L150.21 76.9275ZM153.05 74.3619C153.564 73.987 154.099 73.637 154.654 73.3107L154.147 72.4488C153.565 72.7911 153.002 73.159 152.461 73.5538L153.05 74.3619ZM156.355 72.4126C156.931 72.1404 157.525 71.8895 158.136 71.6589L157.783 70.7232C157.148 70.9628 156.529 71.2242 155.927 71.5085L156.355 72.4126ZM159.969 71.0432C160.577 70.8621 161.2 70.6983 161.838 70.551L161.613 69.5766C160.956 69.7284 160.313 69.8974 159.684 70.0847L159.969 71.0432ZM163.745 70.1656C164.378 70.0551 165.023 69.9588 165.68 69.8759L165.555 68.8837C164.883 68.9685 164.223 69.0672 163.573 69.1805L163.745 70.1656ZM167.608 69.6733C168.249 69.6188 168.9 69.5756 169.56 69.5432L169.51 68.5444C168.839 68.5774 168.177 68.6213 167.524 68.6769L167.608 69.6733ZM171.52 69.478C172.162 69.4665 172.811 69.464 173.468 69.4699L173.477 68.4699C172.812 68.4639 172.153 68.4665 171.502 68.4782L171.52 69.478ZM175.436 69.5117C176.08 69.5329 176.731 69.5614 177.389 69.5968L177.442 68.5982C176.779 68.5625 176.121 68.5337 175.469 68.5122L175.436 69.5117ZM179.348 69.7204C179.996 69.7672 180.649 69.8199 181.308 69.878L181.396 68.8819C180.732 68.8233 180.073 68.7702 179.419 68.723L179.348 69.7204ZM183.258 70.0643C183.908 70.1309 184.563 70.2022 185.221 70.2779L185.336 69.2845C184.673 69.2083 184.014 69.1365 183.36 69.0695L183.258 70.0643ZM187.164 70.5119C187.813 70.5936 188.466 70.679 189.122 70.7677L189.256 69.7767C188.597 69.6876 187.941 69.6018 187.288 69.5197L187.164 70.5119ZM191.063 71.0382C191.711 71.1311 192.362 71.2268 193.016 71.325L193.164 70.3361C192.508 70.2376 191.855 70.1415 191.205 70.0483L191.063 71.0382ZM194.957 71.6225C195.604 71.7234 196.253 71.8265 196.905 71.9313L197.064 70.944C196.411 70.839 195.76 70.7357 195.111 70.6344L194.957 71.6225ZM198.846 72.2472C199.493 72.3536 200.141 72.4614 200.792 72.5703L200.957 71.584C200.306 71.475 199.656 71.3671 199.008 71.2605L198.846 72.2472ZM202.733 72.8972C203.38 73.0067 204.028 73.1169 204.677 73.2276L204.845 72.2418C204.196 72.1311 203.547 72.0208 202.9 71.9112L202.733 72.8972ZM206.619 73.5587C207.267 73.669 207.915 73.7795 208.564 73.8898L208.732 72.9039C208.083 72.7937 207.435 72.6833 206.787 72.5729L206.619 73.5587ZM210.508 74.2187C211.156 74.3279 211.805 74.4365 212.454 74.5444L212.618 73.5579C211.97 73.4502 211.322 73.3417 210.674 73.2326L210.508 74.2187ZM214.4 74.8649C215.05 74.9707 215.699 75.0755 216.348 75.1788L216.506 74.1912C215.858 74.0881 215.209 73.9836 214.561 73.8779L214.4 74.8649ZM218.299 75.4845C218.949 75.585 219.6 75.6837 220.25 75.7803L220.397 74.7912C219.749 74.6949 219.1 74.5964 218.451 74.4962L218.299 75.4845ZM222.205 76.0647C222.857 76.1575 223.509 76.2479 224.16 76.3356L224.294 75.3446C223.645 75.2572 222.996 75.1672 222.345 75.0747L222.205 76.0647ZM226.12 76.5915C226.775 76.6742 227.428 76.7539 228.08 76.8301L228.197 75.8368C227.548 75.761 226.897 75.6818 226.245 75.5994L226.12 76.5915ZM230.046 77.0496C230.703 77.1195 231.359 77.1856 232.012 77.2475L232.107 76.252C231.457 76.1904 230.805 76.1247 230.152 76.0552L230.046 77.0496ZM233.983 77.4217C234.31 77.4485 234.637 77.4741 234.963 77.4986L235.037 76.5014C234.714 76.4771 234.389 76.4516 234.064 76.425L233.983 77.4217ZM234.963 77.4986C235.314 77.525 235.663 77.5484 236.01 77.569L236.069 76.5707C235.728 76.5505 235.384 76.5274 235.037 76.5014L234.963 77.4986ZM238.063 77.6584C238.766 77.6777 239.458 77.6848 240.139 77.6802L240.133 76.6802C239.463 76.6848 238.782 76.6778 238.09 76.6588L238.063 77.6584ZM242.213 77.6289C242.913 77.5987 243.601 77.5557 244.277 77.5005L244.195 76.5039C243.533 76.558 242.858 76.6002 242.17 76.6298L242.213 77.6289ZM246.332 77.2908C247.029 77.205 247.712 77.1059 248.38 76.994L248.215 76.0077C247.561 76.1172 246.893 76.2142 246.21 76.2982L246.332 77.2908ZM250.423 76.6037C251.113 76.455 251.786 76.2923 252.443 76.1165L252.185 75.1505C251.544 75.322 250.886 75.4808 250.212 75.6261L250.423 76.6037ZM254.436 75.5276C255.108 75.3097 255.761 75.0776 256.395 74.8324L256.035 73.8997C255.418 74.1381 254.782 74.3641 254.128 74.5764L254.436 75.5276ZM258.313 74.0266C258.957 73.7335 259.579 73.4264 260.18 73.1069L259.71 72.224C259.128 72.5338 258.524 72.8318 257.899 73.1165L258.313 74.0266ZM261.985 72.0706C262.588 71.6982 263.165 71.313 263.718 70.9167L263.135 70.1039C262.601 70.4869 262.043 70.8596 261.459 71.2201L261.985 72.0706ZM265.372 69.6392C265.92 69.1837 266.439 68.7172 266.93 68.2423L266.234 67.5238C265.762 67.9812 265.261 68.4309 264.733 68.8704L265.372 69.6392ZM268.373 66.7306C268.844 66.1956 269.282 65.6533 269.688 65.1069L268.885 64.511C268.496 65.0349 268.075 65.5554 267.622 66.0696L268.373 66.7306ZM270.863 63.3656C271.237 62.7531 271.572 62.1394 271.868 61.5286L270.968 61.0926C270.687 61.6737 270.367 62.259 270.01 62.8443L270.863 63.3656ZM272.686 59.5828C272.932 58.8947 273.127 58.2159 273.274 57.5529L272.298 57.3368C272.16 57.9574 271.976 58.5962 271.744 59.2468L272.686 59.5828ZM273.581 55.4504C273.63 54.6993 273.61 53.9793 273.52 53.3027L272.529 53.4342C272.609 54.039 272.629 54.6924 272.583 55.3841L273.581 55.4504ZM272.95 51.1939C272.798 50.8463 272.619 50.5198 272.413 50.218L271.587 50.782C271.756 51.0291 271.905 51.3007 272.034 51.5952L272.95 51.1939Z" fill="#6266EA"/>
</g>
<defs>
<filter id="filter0_d_5101_42387" x="193" y="48" width="21.854" height="25" filterUnits="userSpaceOnUse" color-interpolation-filters="sRGB">
<feFlood flood-opacity="0" result="BackgroundImageFix"/>
<feColorMatrix in="SourceAlpha" type="matrix" values="0 0 0 0 0 0 0 0 0 0 0 0 0 0 0 0 0 0 127 0" result="hardAlpha"/>
<feOffset dy="1"/>
<feGaussianBlur stdDeviation="1.5"/>
<feColorMatrix type="matrix" values="0 0 0 0 0 0 0 0 0 0 0 0 0 0 0 0 0 0 0.2 0"/>
<feBlend mode="normal" in2="BackgroundImageFix" result="effect1_dropShadow_5101_42387"/>
<feBlend mode="normal" in="SourceGraphic" in2="effect1_dropShadow_5101_42387" result="shape"/>
</filter>
<filter id="filter1_d_5101_42387" x="345" y="118" width="21.854" height="25" filterUnits="userSpaceOnUse" color-interpolation-filters="sRGB">
<feFlood flood-opacity="0" result="BackgroundImageFix"/>
<feColorMatrix in="SourceAlpha" type="matrix" values="0 0 0 0 0 0 0 0 0 0 0 0 0 0 0 0 0 0 127 0" result="hardAlpha"/>
<feOffset dy="1"/>
<feGaussianBlur stdDeviation="1.5"/>
<feColorMatrix type="matrix" values="0 0 0 0 0 0 0 0 0 0 0 0 0 0 0 0 0 0 0.2 0"/>
<feBlend mode="normal" in2="BackgroundImageFix" result="effect1_dropShadow_5101_42387"/>
<feBlend mode="normal" in="SourceGraphic" in2="effect1_dropShadow_5101_42387" result="shape"/>
</filter>
</defs>
</svg>
