<svg width="20" height="20" viewBox="0 0 20 20" fill="none" xmlns="http://www.w3.org/2000/svg">
<path fill-rule="evenodd" clip-rule="evenodd" d="M16 7V17C16 18.1046 15.1046 19 14 19H6C4.89543 19 4 18.1046 4 17V7L2 7V3H6.5L7.44721 1.10557C7.786 0.428005 8.47852 0 9.23607 0H10.7639C11.5215 0 12.214 0.428004 12.5528 1.10557L13.5 3H18V7L16 7ZM17 4V6L3 6V4H7.11803L8.34164 1.55279C8.51103 1.214 8.8573 1 9.23607 1H10.7639C11.1427 1 11.489 1.214 11.6584 1.55279L12.882 4H17ZM5 17C5 17.5523 5.44772 18 6 18H14C14.5523 18 15 17.5523 15 17V7H5V17Z" fill="#FF2727"/>
</svg>
