<svg width="33" height="29" viewBox="0 0 33 29" fill="none" xmlns="http://www.w3.org/2000/svg">
<g clip-path="url(#clip0_5815_4857)">
<path d="M24.1155 2.9C23.4809 2.08043 22.878 1.19783 22.3386 0.315217C22.2752 0.220652 22.2117 0.126087 22.1165 0C21.9896 0.126087 21.8944 0.252174 21.8309 0.409783C21.7675 0.567391 21.704 0.725 21.6723 0.91413C21.6088 1.22935 21.5771 1.54457 21.6405 1.82826C21.704 2.36413 21.8627 2.86848 22.053 3.37283C22.18 3.75109 22.4656 4.25543 22.6242 4.60217C22.878 4.6337 24.2107 4.88587 24.2107 4.91739C24.2425 4.94891 25.2896 5.26413 25.7338 5.5163C25.829 5.57935 26.0511 5.70543 26.1146 5.70543C25.48 4.75978 24.8136 3.81413 24.1155 2.9ZM24.2107 4.66522C24.2107 4.66522 24.2107 4.69674 24.2107 4.72826C24.2107 4.72826 24.2107 4.69674 24.2107 4.66522Z" fill="#CC2219"/>
<path d="M20.5617 2.5535C20.53 2.58502 20.4983 2.74263 20.4665 2.80567C20.4031 3.08937 20.3713 3.37306 20.4031 3.65676C20.4031 3.94046 20.4983 4.22415 20.5617 4.50785C20.5935 4.63393 22.2435 4.47633 22.2752 4.4448C21.704 3.75132 21.2281 2.9948 20.7838 2.23828C20.6569 2.33285 20.5935 2.42741 20.5617 2.5535Z" fill="#CC2219"/>
<path d="M0.0634766 15.7924C0.0634766 15.6978 0.126937 15.4456 0.190399 15.4141C0.507707 15.0674 0.761553 14.8782 1.14232 14.6261C1.65001 14.2478 2.09425 13.9956 2.6654 13.7435C3.10963 13.5228 3.45867 13.3022 3.93463 13.1445C4.44232 12.9554 5.1404 12.7978 5.67982 12.6717C6.31444 12.5141 6.85386 12.388 7.48848 12.325C7.96444 12.2619 8.47213 12.1043 8.94809 12.0728C9.20194 12.0413 9.55098 12.0413 9.77309 12.0098C9.96348 12.0098 10.7885 12.0098 10.8837 12.0098C10.5346 12.4511 10.2173 12.9869 9.93175 13.4598C9.48752 13.4598 8.88463 13.4913 8.40867 13.5228C7.6154 13.5859 6.82213 13.6804 6.02886 13.838C5.17213 13.9956 4.34713 14.2163 3.52213 14.4685C2.79232 14.6891 2.09425 14.9413 1.4279 15.2565C1.14232 15.3826 0.888477 15.4772 0.6029 15.6032C0.412515 15.6032 0.253861 15.6978 0.0634766 15.7924Z" fill="#202D54"/>
<path d="M8.34553 21.5613C6.85419 20.5841 5.26765 19.9222 3.49072 19.607C3.52245 19.4494 3.61765 19.3548 3.74457 19.2602C4.1888 18.945 4.69649 18.8189 5.26765 18.882C5.87053 18.945 6.37822 19.2287 6.85418 19.5754C7.42534 20.0168 7.9013 20.5526 8.21861 21.2146C8.28207 21.3091 8.34553 21.4668 8.37726 21.5928C8.37726 21.5928 8.37726 21.5928 8.34553 21.5613Z" fill="#2D4691"/>
<path d="M11.3916 9.23633C11.4233 9.23633 11.4233 9.26785 11.4551 9.26785L11.3916 9.23633Z" fill="white"/>
<path d="M20.1809 17.9356C20.1491 17.5888 20.1491 17.1475 20.2126 16.8008C20.2761 16.2334 20.4347 15.5399 20.6886 15.0041C20.8789 14.5943 21.2597 14.216 21.5453 13.8378C21.7357 13.5856 21.9261 13.3649 22.1799 13.1443C22.4972 12.8921 23.0049 12.7975 23.3539 12.6084C23.8299 12.3562 24.3693 12.1986 24.9088 12.1041C25.4165 12.041 25.9876 12.041 26.3049 12.041C26.6222 12.041 27.1299 12.2932 27.4155 12.3878C27.479 12.4193 32.4289 22.6954 32.4289 22.6954L31.6991 24.7128C31.6991 25.2171 31.3184 25.8475 31.1915 26.3519C31.0645 26.8562 30.8424 27.3606 30.4616 27.7073C30.303 27.8649 29.0972 28.6215 26.3366 28.2747C26.4636 27.991 26.4953 27.8019 26.654 27.4236C26.4001 27.4551 24.9405 27.4236 24.6866 27.3921C24.7184 27.266 25.2261 26.4465 25.2261 26.3834C24.3059 26.541 23.4491 26.5095 22.5289 26.1943C23.1953 25.816 24.1472 24.7758 24.0838 24.8073C23.703 24.9019 21.3866 25.091 21.1645 25.028C21.228 24.9334 22.4972 23.5465 22.5607 23.4519C22.4972 23.4204 21.4501 24.3975 21.3866 24.366C21.1645 24.2399 20.7203 23.7986 20.5616 23.578C20.2126 23.1367 19.8953 22.7269 19.6415 22.191C19.4828 21.8128 19.2607 21.403 19.1972 20.9932C19.1655 20.678 19.229 20.2997 19.3241 19.9845C19.3876 19.6693 19.578 19.3225 19.8001 19.1019C19.9905 19.0388 20.2443 18.4084 20.1809 17.9356Z" fill="url(#paint0_linear_5815_4857)"/>
<path d="M14.1838 14.1219C14.0251 14.4686 13.7713 15.3512 13.7078 15.7295C13.4857 15.698 13.0415 15.698 12.8193 15.6349C12.2165 15.5088 11.8992 15.3828 11.328 15.1936C11.328 15.3512 12.2799 16.9273 13.3905 17.9675C12.8193 17.8099 12.3117 17.7784 11.8357 17.4947C11.8357 17.7154 12.3117 18.2512 12.7876 18.7871C13.2636 19.323 14.1838 20.0795 14.7867 20.5208C14.4693 20.5208 14.0568 20.4578 13.7713 20.3632C13.9299 20.6784 14.5963 21.3719 15.4213 22.0338C16.1193 22.6012 20.4982 24.5871 21.228 24.4925C21.0059 24.6817 21.0376 24.9969 20.7838 25.1545C20.8155 25.186 21.7674 25.2806 22.4972 25.2491C22.8463 25.2491 23.5126 25.1545 23.8617 25.1545C23.8934 25.1545 22.7193 26.1632 21.9261 26.7621C21.4184 26.7306 19.2924 26.8252 18.7847 26.6991C18.2453 26.573 17.8328 26.4154 17.3251 26.2262C17.0395 26.1317 16.6905 26.0056 16.4049 25.8795C15.6751 25.5643 15.104 25.123 14.4376 24.6817C14.0568 24.4295 13.6443 24.2088 13.327 23.9252C13.1049 23.736 12.5972 22.7273 12.5338 22.6012C12.5338 22.6012 11.2645 18.3458 11.0424 17.3686C10.979 17.0849 10.9155 16.8012 10.8838 16.5175C10.852 16.2654 10.8203 16.0447 10.8203 15.7925C10.8203 15.6034 10.7886 15.4458 10.7886 15.2567C10.8203 14.7838 10.852 14.3425 10.9155 13.9012C10.979 13.4915 11.0742 13.0817 11.1693 12.6719C11.2328 12.4197 11.328 12.1675 11.4232 11.9154C11.4549 11.8523 11.6453 11.6002 11.677 11.5371C11.677 11.6317 14.2472 13.9958 14.1838 14.1219Z" fill="#232C53"/>
<path d="M7.93271 17.7153C8.05963 18.4403 8.25001 18.9132 8.59905 19.5751C8.82117 19.9849 9.10674 20.3632 9.39232 20.7414C9.74136 21.2143 10.3442 21.5925 10.7567 22.0338C10.9471 22.223 11.1058 22.4751 11.2962 22.6643C11.7721 23.1056 12.1212 23.4838 12.6289 23.8936C13.2317 24.3664 13.8981 24.6501 14.5327 25.0599C15.0087 25.3751 16.151 26.1632 16.1827 26.1947C15.8337 26.2262 15.0404 26.0056 14.7548 25.911C13.4856 25.5012 12.2798 24.9338 11.1058 24.2719C10.1221 23.7045 8.8529 22.8534 7.83751 22.349C3.61732 20.174 2.15771 20.773 2.12598 20.773C2.18944 20.6784 2.22117 20.5523 2.28463 20.4577C2.85578 19.449 4.3154 17.5577 5.26732 16.9588C5.36251 16.8958 5.42598 16.8643 5.5529 16.8643C6.21925 16.9588 6.82213 17.1795 7.42501 17.4632C7.48848 17.4632 7.86925 17.6838 7.93271 17.7153ZM7.96444 21.1827C7.96444 21.1827 7.86925 20.9621 7.80578 20.8675C7.55194 20.3316 7.17117 19.8903 6.69521 19.5121C6.31444 19.2284 5.90194 18.9762 5.39425 18.9447C4.47405 18.8816 4.02982 19.386 3.93463 19.5436C5.36252 19.7958 6.75867 20.3632 7.96444 21.1827Z" fill="#232C53"/>
<path d="M22.2751 26.4149C22.6559 26.604 23.0367 26.7616 23.4492 26.8246C23.7982 26.8877 24.1155 26.8877 24.4646 26.8562C24.528 26.8562 24.5915 26.8562 24.6867 26.8246C24.6549 27.0453 24.3694 27.4551 24.0838 27.5181C15.6751 31.0801 7.67898 22.0964 7.32994 17.3681C7.29821 17.0214 7.20302 15.1931 8.40879 14.5312C8.63091 14.4051 9.01167 14.342 9.26552 14.4996C9.29725 14.4996 9.29725 14.4996 9.29725 14.4681C9.42418 14.0899 9.58283 13.7431 9.77321 13.3964C10.0588 12.9236 10.3761 12.4507 10.6934 12.0094C10.5982 11.9779 10.0588 12.0094 9.8684 12.0094C9.61456 12.0409 9.39244 12.0409 9.1386 12.0725C8.66264 12.1355 8.18667 12.1986 7.71071 12.2616C7.0761 12.3562 6.40975 12.4822 5.80687 12.6399C5.26744 12.7659 4.75975 12.9236 4.25206 13.1127C3.7761 13.2703 3.30014 13.4594 2.8559 13.6801C2.28475 13.9638 1.74533 14.279 1.23764 14.6572C0.856867 14.9094 0.507828 15.1931 0.222251 15.5399C0.158789 15.6029 0.127058 15.6344 0.0953273 15.729C0.0318657 15.6975 0.063597 15.6659 0.063597 15.6029C0.063597 15.1301 0.0953269 12.7659 1.6184 10.0236C6.9809 8.92029 10.5348 9.77138 10.5348 9.8029C10.7251 10.2757 11.5819 11.379 11.7405 11.5996C11.7088 11.6627 11.5184 11.9779 11.4867 12.0409C11.3915 12.2931 11.2963 12.5138 11.2328 12.7659C11.1376 13.1442 11.0424 13.554 11.0107 13.9638C10.9473 14.4051 10.9155 14.8464 10.9155 15.2877C10.9155 15.4768 10.9473 15.6344 10.9473 15.8236C10.9473 16.0757 10.979 16.2964 11.0107 16.5486C11.0742 16.9583 11.1694 17.3681 11.2646 17.7464C11.4867 18.5344 11.8357 19.2909 12.2482 20.0159C12.5021 20.4257 12.7876 20.8355 13.0415 21.2138C13.2953 21.5605 13.5492 21.9072 13.8348 22.2225C14.1838 22.6007 14.5646 22.979 14.9453 23.3257C15.3261 23.6409 15.6751 23.9562 16.0876 24.2083C16.2146 24.2714 16.3098 24.3659 16.4684 24.4605C16.3732 24.492 16.3415 24.4605 16.278 24.429C16.1828 24.3975 16.0559 24.3344 15.9607 24.3029C15.2944 24.1138 14.6598 23.7986 14.0569 23.4518C13.6761 23.2312 13.2953 23.0105 12.9146 22.7583C12.8511 22.7268 12.8194 22.6953 12.7559 22.6638C12.7559 22.6322 12.7559 22.6638 12.7559 22.6638C12.8194 22.7899 12.9146 22.8844 13.0098 23.0105C13.2319 23.2312 13.4223 23.4203 13.6444 23.6094C13.9617 23.8931 14.3107 24.1453 14.6598 24.3659C15.2944 24.7757 15.9607 25.154 16.6588 25.4692C16.9126 25.5953 17.1982 25.6899 17.4521 25.7844C17.928 25.9736 18.4357 26.0996 18.9434 26.2257C19.4511 26.3203 19.9271 26.4149 20.4348 26.4464C21.0059 26.4779 21.5771 26.4779 22.1482 26.4149C22.1799 26.4464 22.2117 26.4464 22.2751 26.4149Z" fill="#3874B8"/>
<path d="M11.2012 21.529C11.1695 21.4345 11.1061 21.3714 11.0426 21.3084C10.5032 20.5519 10.0272 19.7638 9.67817 18.9127C9.36086 18.0932 9.17047 17.2421 9.10701 16.3595C9.07528 15.9497 9.10701 15.729 9.13875 15.3193C9.13875 15.1932 9.07528 15.0986 8.91663 15.1301C7.48874 15.7921 8.37721 18.2823 9.04355 19.291C9.48778 20.016 10.0272 20.6464 10.6936 21.2138C10.8522 21.3084 11.0109 21.4345 11.2012 21.529Z" fill="#202D54"/>
<path d="M30.5569 14.4371C30.6204 14.4055 30.7156 14.3425 30.8108 14.2794C30.7473 14.6577 30.6838 15.0044 30.6838 15.3512C30.8425 15.2881 30.9377 15.1936 31.0963 15.1305C31.0646 15.2881 31.0329 15.7294 31.0011 15.9186C30.9377 16.7697 30.906 17.3371 30.9377 18.3142C30.9377 18.661 30.9694 18.9762 31.0329 19.3229C31.0963 19.7327 31.3185 20.111 31.5406 20.4577C31.731 20.7414 31.9213 21.0566 32.1117 21.3718C32.3973 21.8131 32.5877 22.3175 32.6829 22.8218C32.8098 23.5153 32.8098 24.2088 32.6511 24.9023C32.556 25.3436 32.429 25.7534 32.2704 26.1631C32.1752 26.4153 32.0483 26.636 31.8896 26.8566C31.8579 26.9197 31.7944 26.9827 31.731 27.0457C31.731 26.9197 31.6992 26.8251 31.6992 26.7305C31.2867 27.4555 30.8108 28.149 30.081 28.6218C30.1127 28.4327 30.1444 28.2751 30.1127 28.086C29.3194 28.5903 28.4944 28.8425 27.5425 28.874C27.7011 28.7164 27.8281 28.5903 27.9233 28.4642C27.5108 28.5588 27.0983 28.6218 26.6858 28.6218C26.2733 28.6218 25.829 28.5903 25.4165 28.4327C25.7338 28.2121 26.0511 28.0229 26.305 27.7392C25.3848 27.9284 24.2108 27.6447 24.0838 27.6131C24.1473 27.5501 24.1473 27.5816 24.3694 27.3294C24.4011 27.2979 24.5915 27.0457 24.6867 26.9197C24.5915 26.9197 24.5281 26.9197 24.4646 26.9512C24.1156 26.9827 23.7983 26.9827 23.4492 26.9197C23.0367 26.8566 22.656 26.699 22.2752 26.5099C22.2117 26.4468 22.1483 26.4153 22.0848 26.3838C21.9579 26.2892 21.7992 26.2262 21.6723 26.1001C22.18 25.974 22.6877 25.8164 23.1002 25.5327C21.355 25.6273 20.5935 25.4066 19.8954 25.1544C20.1175 24.9968 20.4031 24.9023 20.6252 24.7131C19.8954 24.7762 19.1973 24.6816 18.4992 24.4925C17.8011 24.3034 17.1348 24.0827 16.5002 23.6414C16.7858 23.5468 17.0713 23.4838 17.3252 23.4208C16.5319 23.074 15.8338 22.5697 15.1675 22.0338C14.3425 21.3718 13.4858 20.4892 13.3588 20.174C13.6761 20.2686 13.9617 20.3001 14.2473 20.2686C13.6761 19.8588 13.1367 19.4175 12.6608 18.8816C12.1848 18.3458 11.5185 17.3686 11.5185 17.1479C11.9944 17.4316 12.5021 17.6208 13.0415 17.7784C11.9944 16.7697 11.2963 15.5718 11.106 15.099C11.1377 15.0675 11.1694 15.099 11.2012 15.099C11.7723 15.2881 12.3435 15.4458 12.9463 15.5718C13.1685 15.6034 13.3588 15.6664 13.581 15.6979C13.581 15.761 26.305 10.3077 26.8127 10.4338C27.4473 10.5914 29.3829 12.9871 29.605 13.3968C29.6685 13.5229 29.7319 13.8066 29.7636 13.7751L29.7954 13.7436C29.9223 13.6805 30.2079 13.5229 30.4617 13.4914C30.43 13.586 30.3983 13.7121 30.3665 13.8066C30.3031 14.0903 30.2713 14.3425 30.2396 14.6262C30.2396 14.6577 30.2396 14.6577 30.2396 14.6892C30.2713 14.6262 30.4617 14.5001 30.5569 14.4371ZM32.0165 22.1284L31.9848 22.0968C31.9531 21.8762 31.8261 21.6871 31.6992 21.4979C31.255 20.836 30.6521 20.3001 30.0175 19.7957C29.6685 19.5121 29.3194 19.1968 29.0021 18.8816C28.6848 18.5664 28.3992 18.1881 28.1136 17.8414C27.606 17.211 27.2252 16.486 27.0348 15.6664C26.9713 15.3827 26.9396 15.099 26.8761 14.8153C26.8444 14.5316 26.781 14.2164 26.8127 13.9012V13.8697C26.8127 13.7121 26.8444 13.5544 26.8444 13.3968C26.9079 13.0816 26.9713 12.7979 27.0983 12.5142C27.13 12.4197 22.8146 11.411 20.879 15.2881C20.6569 15.824 20.4665 16.3599 20.4031 16.9273C20.3713 17.274 20.3713 17.5892 20.4031 17.936C20.4665 18.3773 20.53 18.724 20.7521 19.1338C20.7838 19.1653 20.8156 19.2914 20.8473 19.3544C20.7838 19.3229 20.6252 19.1968 20.4348 19.1653C20.2444 19.1023 20.0858 19.1338 19.9588 19.2914C19.7367 19.5121 19.6098 19.7642 19.5463 20.0794C19.4829 20.3947 19.4511 20.7099 19.5146 21.0251C19.5781 21.4349 19.705 21.8131 19.8954 22.1599C20.1175 22.6642 20.4348 23.1371 20.7838 23.5784C20.9425 23.7675 21.2281 23.9881 21.4502 24.1142C21.4502 24.1142 21.6088 23.9566 21.6723 23.8936C21.8627 23.7044 21.8944 23.6729 21.9579 23.5784C21.9896 23.5468 21.9896 23.5468 21.9261 23.4838C21.7992 23.3892 21.704 23.2947 21.5771 23.1686C21.4502 23.011 21.3233 22.8849 21.1963 22.7273C21.006 22.4436 20.8473 22.1599 20.7204 21.8447C20.6569 21.6555 20.6252 21.4349 20.5935 21.2142C20.5617 20.9936 20.5617 20.6784 20.6252 20.4262C20.6569 20.5208 20.6886 20.6153 20.6886 20.6784C20.8473 21.1512 21.0694 21.5925 21.3867 22.0023C21.7358 22.5066 22.18 22.9479 22.7194 23.2631C22.8146 23.3262 22.7829 23.2947 22.8146 23.3262C22.7511 23.4207 22.5925 23.6099 22.529 23.7044C22.2752 24.0197 21.9896 24.3349 21.6406 24.5871C21.5771 24.6501 21.5136 24.6816 21.4185 24.7762C23.6079 24.8392 24.306 24.524 24.3694 24.5555C24.0204 25.2175 23.4492 25.6588 22.7829 26.0371C23.7031 26.3207 24.6233 26.2892 25.5435 26.1316C25.5752 26.1631 25.3213 26.6044 25.1944 26.7936C25.131 26.8881 25.0675 26.9827 24.9723 27.1088C25.2261 27.1403 25.48 27.1403 25.7338 27.1718C25.9877 27.1718 26.2415 27.1403 26.4954 27.1088C26.7492 27.0773 26.9713 26.9827 27.2569 26.9197C27.1617 27.1403 27.0665 27.3294 26.9396 27.5186C26.8127 27.7077 26.6858 27.8653 26.5271 28.0544C27.3521 28.0544 28.0819 27.9284 28.8117 27.5816C28.78 27.6762 28.7483 27.7708 28.6848 27.8653C28.6531 27.9599 28.5896 28.0544 28.4944 28.149C28.5579 28.1175 31.3185 27.4555 31.0329 24.6186C31.1598 24.6186 31.2233 24.5555 31.2867 24.461C31.4771 24.0827 31.6675 23.7044 31.8896 23.3262C32.0165 23.1371 32.08 22.9164 32.1752 22.7273C32.2704 22.5381 32.2386 22.349 32.1117 22.1599C32.1117 22.1914 32.08 22.1284 32.0165 22.1284Z" fill="url(#paint1_linear_5815_4857)"/>
<path d="M27.923 20.6784C27.8913 20.6153 27.7961 20.5523 27.7326 20.4893C27.3836 20.2056 27.098 19.8588 26.8759 19.4806C26.8441 19.4175 26.749 19.1653 26.7172 19.1023C26.8441 19.1338 27.0663 19.2284 27.1615 19.2914C27.2249 19.3229 27.2566 19.3229 27.3518 19.3229C27.3518 19.3229 27.2566 19.1653 27.1932 19.1023C27.0345 18.8816 26.8441 18.661 26.7172 18.4088C26.5903 18.1566 26.4951 17.9045 26.4634 17.6208V17.5577C26.5903 17.6523 26.749 17.8099 26.9393 17.9045C26.9076 17.7784 26.9076 17.6838 26.8759 17.5892C26.8441 17.3371 26.7807 17.0849 26.7807 16.8012C26.7172 16.1708 26.6855 15.5088 26.6855 14.8784C26.6855 14.5632 26.7172 14.2479 26.8124 13.9327C26.8124 13.9012 26.8441 13.8382 26.8441 13.8066C27.2884 17.9675 29.6999 19.5436 30.049 19.8273C30.6518 20.3316 32.0163 21.4349 32.0163 22.1284C31.8576 22.1284 31.7307 22.1284 31.572 22.1284C30.9374 22.1599 30.3028 22.1914 29.6682 22.1914C29.573 22.1914 29.5095 22.2545 29.3509 22.2229C29.3191 22.2229 29.4143 22.286 29.3509 22.286C29.3509 22.2229 29.1605 22.1284 29.097 22.0969C28.8115 21.9077 28.5259 21.7501 28.272 21.561C28.0182 21.4034 27.7961 21.2143 27.574 20.9936C27.4788 20.8675 27.3836 20.7414 27.2884 20.5838C27.2884 20.5523 27.2566 20.5523 27.2249 20.4262C27.3836 20.4893 27.6691 20.6153 27.8278 20.6784C27.8595 20.6784 27.8913 20.6784 27.923 20.6784C27.9547 20.6784 27.9547 20.6784 27.923 20.6784C27.9547 20.6784 27.9547 20.6784 27.923 20.6784Z" fill="#FCCC81"/>
<path d="M29.5735 17.4311C29.5735 17.5572 29.5735 17.6832 29.5417 17.8093C29.51 17.9039 29.4783 17.9669 29.4148 18.03C29.3513 18.093 29.2562 18.1245 29.161 18.093C28.9706 18.03 28.8437 17.9354 28.7485 17.7778C28.4946 17.3365 28.3677 16.8952 28.4946 16.3909C28.4946 16.3278 28.5263 16.2332 28.5581 16.1702C28.6533 15.9811 28.8437 15.918 29.034 16.0441C29.161 16.1387 29.2562 16.2332 29.3196 16.3593C29.51 16.7061 29.6052 17.0528 29.5735 17.4311Z" fill="#242120"/>
<path d="M28.5576 16.6123C28.5576 16.5492 28.5576 16.4862 28.5893 16.4231C28.6528 16.2971 28.7797 16.2971 28.8749 16.3916C28.9384 16.4862 28.9384 16.5808 28.9384 16.6753C28.9067 16.7699 28.8432 16.8329 28.748 16.8329C28.6528 16.8329 28.5893 16.7699 28.5893 16.6753C28.5576 16.6438 28.5576 16.6438 28.5576 16.6123Z" fill="white"/>
<path d="M23.1636 17.1162C23.1953 16.8641 23.1953 16.5804 23.3857 16.3597C23.5443 16.1706 23.7347 16.076 23.9886 16.1075C24.3376 16.1391 24.5915 16.3597 24.8136 16.6119C25.0674 16.9271 25.2261 17.2738 25.2895 17.6836C25.3213 17.9988 25.2895 18.2825 25.1309 18.5347C24.9722 18.7869 24.6549 18.913 24.3693 18.8184C24.1155 18.7554 23.8934 18.5978 23.7347 18.4086C23.4492 18.0934 23.2588 17.7151 23.1953 17.2738C23.1636 17.2423 23.1636 17.1793 23.1636 17.1162Z" fill="#242120"/>
<path d="M24.2108 16.9901C24.2108 17.1793 24.0204 17.3369 23.83 17.3369C23.6396 17.3369 23.4175 17.1162 23.4175 16.9271C23.4175 16.7064 23.6079 16.5488 23.83 16.5488C24.0521 16.5488 24.2108 16.738 24.2108 16.9901Z" fill="white"/>
<path d="M25.4484 13.933C25.258 14.5319 25.2263 15.0993 25.1945 15.6982C23.7032 14.658 21.958 15.6982 22.3705 17.9362C21.8945 17.8101 21.1013 16.2971 21.2916 15.8873C21.4503 15.9819 21.5772 16.171 21.7676 16.234C21.7359 16.0764 21.6724 15.0362 22.0214 14.3743C22.1484 14.6264 22.4022 15.0993 22.4339 15.0993C22.4974 14.784 22.5291 14.4688 22.6243 14.1536C22.7195 13.8384 22.8147 13.5547 23.0368 13.2395C23.1003 13.7123 23.2907 14.1536 23.4811 14.5634C23.5445 14.4373 23.7349 13.6808 24.4647 12.9873C24.4647 13.5232 24.5599 13.996 24.6234 14.5003C24.8772 14.3112 25.0993 14.0906 25.4484 13.933Z" fill="#A96119"/>
<path d="M16.4683 19.3547C16.849 19.4178 17.5471 19.2601 17.674 19.1025C17.674 19.3232 17.7375 19.5438 17.801 19.7645C18.0548 20.7732 18.499 21.6873 19.0702 22.5699C19.324 22.9482 19.6731 23.2949 20.0221 23.5786C20.3711 23.8623 20.6567 24.083 21.0375 24.3036C21.0375 24.3036 21.1644 24.3667 21.1961 24.3982C21.101 24.4612 21.0375 24.5243 20.9423 24.4928C20.149 24.3667 19.451 23.9569 18.8798 23.4525C18.499 23.1058 18.15 22.696 17.8327 22.2862C17.3885 21.6558 16.9442 20.9938 16.6904 20.2373C16.5952 20.0167 16.5635 19.7645 16.5 19.5438C16.4683 19.4493 16.4683 19.3862 16.4683 19.3547Z" fill="#242120"/>
<path d="M14.5327 17.0531C14.5644 17.0531 14.5327 14.9727 15.4212 13.7748C16.5318 12.2618 18.4991 11.127 18.4991 11.0955C18.626 10.9694 25.7019 9.70854 26.0193 9.86615C26.3048 9.99223 29.2558 10.6227 29.3193 10.6227C29.4144 10.9694 29.5414 11.4738 29.6048 11.8205C29.7318 12.4194 29.7635 13.0183 29.7952 13.6172C29.7952 13.6488 29.7952 13.6488 29.7952 13.6803C29.7952 13.6803 29.6683 13.7433 29.6366 13.8064C28.7164 10.9379 22.275 10.6227 19.5779 15.0672C19.2289 15.6031 18.9433 16.202 18.6894 16.8009C18.5308 17.1792 18.4356 17.5575 18.3404 17.9672C18.2769 18.1564 18.2135 18.3455 18.1183 18.5346C17.9596 18.9129 17.5789 19.1966 17.5471 19.1966C17.3568 19.2911 17.1664 19.3542 16.9443 19.3542C16.7856 19.3542 16.3096 19.4803 15.675 18.8814C15.3577 18.5661 15.1039 18.2194 14.8818 17.8411C14.7231 17.6205 14.6279 17.3368 14.5327 17.0531Z" fill="#363033"/>
<path d="M26.1147 5.70516C26.0512 5.70516 25.8291 5.54755 25.7339 5.51603C25.2897 5.26386 24.2426 4.94864 24.2109 4.91712C24.2109 4.85408 24.2109 4.75951 24.2109 4.69647C24.1157 4.19212 23.9253 3.75081 23.6714 3.34103C23.3859 2.89973 23.0368 2.48995 22.7512 2.04864C22.4974 1.67038 22.2436 1.29212 22.0214 0.882337C21.958 0.75625 21.8945 0.598641 21.8311 0.441033C21.8945 0.283424 21.9897 0.157337 22.1166 0.03125C22.1801 0.157337 22.2753 0.251902 22.3387 0.346467C22.9099 1.22908 23.4811 2.08016 24.1157 2.93125C24.8137 3.81386 25.4801 4.75951 26.1147 5.70516Z" fill="#962118"/>
<path d="M23.8618 4.69711C23.8618 4.50798 23.7666 4.35037 23.7031 4.19277C23.6079 3.97211 23.4493 3.75146 23.3224 3.56233C23.0051 3.05798 22.6878 2.55363 22.3704 2.08081C22.2118 1.82863 22.0531 1.57646 21.8945 1.32429C21.7993 1.1982 21.7358 1.04059 21.7041 0.914504C21.7358 0.725374 21.7676 0.599287 21.8628 0.410156C21.9262 0.536243 21.9897 0.693852 22.0531 0.819939C22.2753 1.22972 22.5291 1.6395 22.7829 2.01777C23.0685 2.45907 23.4176 2.86885 23.7031 3.31016C23.957 3.71994 24.1791 4.16124 24.2426 4.66559C24.2426 4.72863 24.2426 4.76016 24.2426 4.8232C24.0839 4.79168 23.957 4.76016 23.8618 4.69711Z" fill="#DB3221"/>
<path d="M22.2435 4.44453C22.2118 4.47605 22.18 4.47605 22.1483 4.47605C21.9579 4.44453 21.7675 4.44453 21.6089 4.47605C21.5771 4.47605 21.5454 4.47605 21.5454 4.44453C21.5454 4.41301 21.5137 4.38149 21.4819 4.34997C21.1646 3.94018 20.8473 3.62497 20.5935 3.15214C20.53 3.02605 20.4983 2.8054 20.53 2.67931C20.5618 2.52171 20.6252 2.39562 20.7521 2.26953C21.2281 2.99453 21.6723 3.75105 22.2435 4.44453Z" fill="#962118"/>
<path d="M19.7686 13.5859C19.7686 13.649 19.7369 13.649 19.7052 13.6805C19.3561 14.0588 19.0706 14.4685 18.8484 14.9099C18.5946 15.4457 18.3725 16.0131 18.1504 16.549C17.9917 16.9272 17.8331 17.3055 17.6109 17.6522C17.484 17.8099 17.3571 17.9675 17.1667 18.0935C16.9446 18.2196 16.7225 18.2512 16.4686 18.1881C15.834 18.0305 15.5484 17.1794 15.5484 17.1164C15.485 17.0218 15.485 17.0218 15.6436 17.0218C16.1196 17.0533 16.5956 16.9588 16.9763 16.6435C17.1984 16.4859 17.3571 16.2653 17.5475 16.0446C17.8013 15.6979 17.9917 15.3512 18.2138 15.0044C18.4359 14.6892 18.658 14.3425 18.9436 14.0588C19.1657 13.8381 19.4196 13.6805 19.7052 13.5859C19.7052 13.5859 19.7369 13.5859 19.7686 13.5859Z" fill="#4D4D5B"/>
<path d="M26.9396 6.36783C26.5905 6.74609 25.2578 7.88087 25.1309 7.88087C24.7819 7.88087 20.5934 7.15587 20.054 7.37653C19.7684 7.50261 18.0232 9.89827 17.8963 10.1189C17.8646 10.1504 15.6434 7.66022 15.3261 7.31348C15.2944 7.28196 15.3261 7.25044 15.3261 7.21892C15.7069 6.08414 21.228 1.22979 26.9396 6.36783Z" fill="#363033"/>
<path d="M17.8961 9.70831C17.7374 9.58222 16.1509 7.84853 16.1509 7.81701C16.2778 7.69092 16.4047 7.53331 16.4999 7.40722C16.9759 6.83983 18.8797 4.94853 22.2115 5.16918C22.2749 5.16918 22.3066 5.2007 22.3066 5.23222C22.3066 5.26375 22.2749 5.26375 22.2432 5.26375C20.9105 5.38983 19.1653 5.95722 18.372 6.74527C18.0547 7.06049 17.9278 7.40722 17.9595 7.62788C17.9595 7.75396 17.9913 7.88005 18.0865 7.97462C18.1816 8.1007 18.3086 8.19527 18.4355 8.25831C18.372 8.32136 18.372 8.3844 18.3403 8.44744C18.2134 8.73114 18.0547 9.01483 17.9913 9.29853C17.8961 9.45614 17.8961 9.58222 17.8961 9.70831Z" fill="#4D4D5B"/>
<path d="M16.7858 8.47975C17.0079 8.73192 17.23 8.9841 17.4521 9.26779C17.5791 9.4254 17.8646 9.74062 18.055 9.89823C18.0867 10.0243 17.9916 10.0558 17.8964 10.1504C17.5473 10.4026 17.1031 10.6232 16.7858 10.9069C16.5637 11.0961 15.8973 11.6004 15.9291 11.5689C15.9608 11.4113 15.9925 10.6863 15.9925 10.5287C15.9608 10.2134 15.9291 9.96127 15.8339 9.64605C15.6435 8.9841 15.3896 8.35366 15.0089 7.78627C14.7867 7.43953 14.5329 7.15583 14.2791 6.8091C13.9617 6.36779 13.6127 6.02105 13.2954 5.61127C13.105 5.39062 12.9146 5.10692 12.7242 4.88627C12.4704 4.57105 12.1848 4.28736 11.8992 3.94062C11.6137 3.59388 11.3598 3.24714 11.2012 2.77431C11.2964 2.58518 11.3598 2.45909 11.4867 2.33301C11.5185 2.36453 12.7877 3.90909 13.3906 4.63409C14.0569 5.42214 14.755 6.21018 15.4531 6.9667C15.4848 7.02975 16.5954 8.2591 16.7858 8.47975Z" fill="#962118"/>
<path d="M11.5182 11.9472C11.3595 11.7265 11.1692 11.5059 11.0422 11.2852C10.7567 10.8439 10.5028 10.4026 10.3124 9.92979C10.3124 9.89827 10.122 9.42544 10.0586 9.20479C10.0268 9.01566 9.99512 8.85805 9.99512 8.66892C10.122 8.82653 10.3124 8.92109 10.4711 9.0787C10.8518 9.48849 11.2643 9.83522 11.7403 10.1504C11.899 10.245 12.2163 10.1189 12.1528 10.0559C11.772 9.70914 11.4547 9.39392 11.423 9.3624C11.0422 8.79501 10.6297 7.9124 10.3442 7.25044C10.1855 6.87218 10.0586 6.4624 10.0268 6.05262C9.99512 5.80044 9.99512 5.54827 10.0586 5.29609C10.2172 5.51675 10.3759 5.64283 10.5663 5.83196C10.7884 6.08414 11.0422 6.36783 11.2643 6.62001C11.3913 6.77762 11.5182 6.93522 11.6451 7.09283C11.772 7.25044 11.899 7.43957 12.0259 7.59718C12.1211 7.72327 12.248 7.78631 12.3432 7.88088C12.5336 8.03849 12.724 8.22762 12.9461 8.3537C13.073 8.41675 13.1047 8.44827 13.2317 8.47979C13.2951 8.51131 12.7874 7.72327 12.7874 7.72327C12.7557 7.6287 12.597 7.34501 12.5653 7.28196C12.3432 6.9037 12.0893 6.52544 11.8672 6.14718C11.6134 5.70588 11.423 5.23305 11.2326 4.7287C11.1692 4.50805 10.947 4.03522 11.0422 3.12109C11.3278 3.62544 12.1845 4.47653 12.5336 4.91783C12.7874 5.23305 13.0413 5.54827 13.2951 5.86349C13.7076 6.36783 14.0884 6.9037 14.374 7.47109C14.5961 7.9124 14.8182 8.44827 14.9451 8.92109C15.0403 9.26783 15.1355 9.67762 15.1672 10.0244C15.199 10.3711 15.1672 10.7494 15.072 11.0961C14.9451 11.6004 14.6278 12.0102 14.2153 12.3254C13.9297 12.5461 13.5807 12.6091 13.2317 12.6091C13.1365 12.6091 12.0576 12.5146 11.7086 12.1048C11.6768 12.1363 11.6134 12.0102 11.5182 11.9472Z" fill="#CC2219"/>
<path d="M11.2012 2.77344C11.3915 3.18322 11.6771 3.56148 11.931 3.90822C12.1848 4.22344 12.4704 4.57018 12.7242 4.88539C12.9146 5.10605 13.105 5.3267 13.2954 5.54735C13.6444 5.95713 13.9935 6.33539 14.3108 6.7767C14.5646 7.09192 14.8185 7.40713 15.0406 7.75387C15.4213 8.32126 15.6752 8.9517 15.8973 9.61366C15.9925 9.89735 16.0242 10.2126 16.0877 10.5278C16.1194 11.1582 15.9925 11.5365 16.0242 11.568C15.929 11.7256 15.8021 11.9778 15.6752 12.1354C15.231 12.6397 14.9454 13.1126 14.6281 13.7115C14.5329 13.9006 14.3425 14.0897 14.2473 14.2789C14.1838 14.4365 14.0569 14.2789 13.9935 14.2474C13.9617 14.2158 13.8665 14.1528 13.8348 14.1213C13.3906 13.806 12.9781 13.4908 12.5656 13.1126C12.28 12.8289 11.9627 12.5452 11.7406 12.2615C11.8358 12.293 12.3435 12.6397 13.3271 12.6713C13.6761 12.6713 13.9935 12.6082 14.279 12.3876C14.6915 12.0724 14.9771 11.6626 15.104 11.1582C15.1675 10.8115 15.1675 10.4963 15.1675 10.1495C15.1358 9.80279 15.0723 9.45605 14.9771 9.10931C14.8185 8.60496 14.6281 8.16365 14.406 7.69083C14.1204 7.12344 13.7713 6.55605 13.3588 6.0517C13.105 5.73648 12.8511 5.42126 12.5973 5.13757C12.1531 4.66474 11.7406 4.25496 11.4233 3.78213C11.3281 3.62452 11.1377 3.34083 11.106 3.21474C11.106 3.05713 11.1377 2.89952 11.2012 2.77344Z" fill="#DB3221"/>
<path d="M13.581 15.8558C13.5493 15.7928 13.581 15.7297 13.581 15.6352C13.6445 15.2569 13.7714 14.9102 13.93 14.5634C13.9935 14.4373 14.0887 14.1852 14.1204 14.1221C14.2156 13.933 14.3108 13.7439 14.406 13.5547C14.7233 12.9558 15.1041 12.4199 15.5166 11.9156C15.6435 11.758 15.9925 11.4112 16.0243 11.3482C16.2146 11.1591 16.4368 10.9384 16.6589 10.7808C17.0079 10.4971 17.357 10.2449 17.7377 9.99277C17.8329 9.92972 17.8964 9.83516 17.8647 9.70907C17.8647 9.58298 17.8964 9.4569 17.9281 9.33081C17.9916 9.01559 18.1185 8.7319 18.2771 8.47972C18.3089 8.41668 18.4358 8.22755 18.4675 8.19603C18.6262 8.0069 18.7848 7.81776 18.9752 7.66016C19.2291 7.47103 19.4829 7.31342 19.7685 7.18733C20.3079 6.96668 21.7675 6.68298 23.6396 7.21885C23.9887 7.31342 24.3377 7.37646 24.6868 7.34494C24.8137 7.34494 24.9406 7.34494 25.0675 7.31342C25.3214 7.2819 25.5435 7.21885 25.7339 7.06124C26.1146 6.80907 26.4954 6.52537 26.9397 6.36777C27.0031 6.36777 27.0666 6.33624 27.13 6.33624C27.5425 6.24168 27.9233 6.33624 28.2723 6.61994C28.6531 6.90363 28.907 7.31342 29.1291 7.7232C29.4147 8.22755 29.6368 8.79494 29.732 9.36233C29.7954 9.6145 29.8272 9.8982 29.7637 10.1504C29.7002 10.4025 29.605 10.6232 29.4146 10.7808C29.3829 10.8123 29.2877 10.8754 29.2243 10.8754C28.78 11.0645 28.3041 11.096 27.8598 11.033C27.606 11.0015 27.3521 10.9384 27.0983 10.8439C26.8127 10.7493 26.5589 10.5917 26.305 10.4971C25.956 10.371 25.6387 10.371 25.2896 10.4971C25.0358 10.5917 24.8772 10.8123 24.6868 10.9699C24.4012 11.2221 24.1156 11.4428 23.7666 11.6634C23.4493 11.8525 23.1002 11.9471 22.7512 12.0732C22.4339 12.1993 21.0377 12.6091 19.4829 11.9471C19.2291 11.8525 19.0387 11.6949 18.8166 11.5373C18.6897 11.4428 18.6579 11.4428 18.531 11.5689L18.4993 11.6004C18.3406 11.7265 18.2137 11.8525 18.055 11.9786C17.8329 12.1678 17.5791 12.3569 17.357 12.5775C17.0714 12.8612 16.8493 13.1449 16.5954 13.4286C16.3416 13.7439 16.1195 14.0591 15.8973 14.3743C15.7387 14.6265 15.58 14.9102 15.4214 15.1623C15.2945 15.3515 15.1993 15.5406 15.1041 15.7612C14.9137 16.171 14.6916 16.7699 14.5329 17.1797C14.3743 17.2112 13.93 17.0221 13.581 15.8558Z" fill="#231F1D"/>
<path d="M21.6088 7.50195C22.1482 7.50195 22.6559 7.59652 23.1319 7.81717C23.6079 8.03782 23.9886 8.32152 24.2742 8.7313C24.3694 8.88891 24.4646 9.04652 24.4963 9.23565C24.5915 9.67695 24.4329 10.0237 24.1473 10.3389C23.8617 10.6856 23.4809 10.9063 23.0684 11.0954C22.5607 11.3161 22.0213 11.4422 21.4819 11.4422C20.8473 11.4737 20.2444 11.3161 19.7684 10.9063C19.578 10.7487 19.3877 10.5596 19.2607 10.3389C18.9434 9.83456 18.9434 9.29869 19.1655 8.76282C19.4511 8.16391 19.9271 7.84869 20.53 7.65956C20.879 7.565 21.2598 7.50195 21.6088 7.50195Z" fill="#C5C2C1"/>
<path d="M27.9867 10.3387C27.5742 10.3387 27.1299 10.2126 26.7174 10.0235C26.2415 9.80285 25.7338 9.07785 25.8924 8.35285C25.9559 8.06916 26.0828 7.81698 26.3049 7.62785C26.5588 7.4072 26.8444 7.24959 27.1299 7.12351C27.352 7.02894 27.5742 7.06046 27.7645 7.21807C28.0819 7.43872 28.2722 7.72242 28.4626 8.03764C28.7482 8.54198 28.9386 9.04633 29.002 9.61372C29.002 9.73981 29.0338 9.8659 29.002 9.99198C28.9703 10.1181 28.8751 10.2126 28.7482 10.2442C28.5895 10.2757 28.3357 10.3072 27.9867 10.3387Z" fill="#C5C2C1"/>
<path d="M22.4022 10.78C21.8628 11.0007 19.2292 11.0322 19.8003 8.54199C19.8003 8.54199 22.2118 10.6224 22.4022 10.78Z" fill="white"/>
<path d="M28.4308 9.74015C27.8279 9.9608 26.3049 9.6771 26.4318 8.16406C26.7174 8.38471 28.3356 9.6771 28.4308 9.74015Z" fill="white"/>
<path d="M12.8826 7.8177C13.1047 8.06987 13.2951 8.35357 13.4855 8.63726C13.4221 8.66878 12.8192 8.5427 11.9942 7.72313C11.8672 7.56552 11.7086 7.40791 11.5817 7.21878C11.4547 7.06118 11.3278 6.90357 11.2009 6.77748C10.9788 6.52531 10.7567 6.24161 10.5346 5.98944C10.3759 5.80031 10.2172 5.61118 10.0586 5.39052C10.1221 5.23291 10.1855 5.07531 10.249 4.94922C10.3442 5.04378 10.6297 5.32748 10.7884 5.48509C11.3913 6.17857 11.9942 6.84052 12.5971 7.534C12.6288 7.59705 12.7557 7.69161 12.8192 7.75465C12.8192 7.75465 12.8509 7.78618 12.8826 7.8177Z" fill="#962118"/>
<path d="M11.6768 9.58238C11.899 9.80303 12.3749 10.2759 12.597 10.4335C12.4067 10.465 11.8672 10.3389 11.7086 10.2443C11.2326 9.96064 10.7884 9.58238 10.4076 9.1726C10.249 9.01499 10.122 8.85738 9.99512 8.66825C9.99512 8.4476 10.0268 8.25847 10.122 8.06934C10.249 8.19542 10.9153 8.82586 11.2643 9.14108C11.2961 9.1726 11.3913 9.23564 11.3913 9.26716C11.423 9.29868 11.5817 9.48781 11.6768 9.58238Z" fill="#962118"/>
<path d="M29.3192 22.1912C29.3192 22.2228 31.7942 22.1282 31.9846 22.0967C32.048 22.0967 32.1115 22.1912 32.1432 22.2228C32.2702 22.4119 32.3019 22.601 32.2067 22.7902C32.1115 22.9793 32.0163 23.1999 31.9211 23.3891C31.699 23.7673 31.5403 24.1456 31.3182 24.5239C31.2548 24.6184 31.1913 24.6815 31.0644 24.6815C30.9692 24.6815 30.9057 24.6499 30.8423 24.5869C30.1759 24.0195 29.5096 23.4836 28.8432 22.9162C28.7163 22.8217 28.6846 22.6956 28.6846 22.538C28.6846 22.3489 28.7798 22.2228 28.9702 22.1912C29.0653 22.2228 29.2557 22.1912 29.3192 22.1912Z" fill="#231F1D"/>
<path d="M31.9847 22.538C31.9213 22.7586 31.8261 22.8847 31.6039 22.9162C31.2232 22.9793 30.4299 23.0423 30.1443 22.9793C29.9539 22.9478 29.6684 22.4749 29.2876 22.1912C29.4145 22.1912 29.5414 22.1597 29.6366 22.1597C30.2712 22.1597 30.9059 22.1282 31.5405 22.0967C31.6991 22.0967 31.8261 22.0967 31.9847 22.0967C31.9847 22.1282 32.0164 22.4119 31.9847 22.538Z" fill="#4D4D5B"/>
</g>
<defs>
<linearGradient id="paint0_linear_5815_4857" x1="14.1377" y1="14.6842" x2="55.1153" y2="33.0424" gradientUnits="userSpaceOnUse">
<stop stop-color="#F7A639"/>
<stop offset="1" stop-color="#D87711"/>
</linearGradient>
<linearGradient id="paint1_linear_5815_4857" x1="11.1056" y1="19.6084" x2="32.8107" y2="19.6084" gradientUnits="userSpaceOnUse">
<stop stop-color="#D87711"/>
<stop offset="1" stop-color="#AE5818"/>
</linearGradient>
<clipPath id="clip0_5815_4857">
<rect width="33" height="29" fill="white"/>
</clipPath>
</defs>
</svg>
