<svg width="28" height="28" viewBox="0 0 28 28" fill="none" xmlns="http://www.w3.org/2000/svg">
<g clip-path="url(#clip0_2792_21837)">
<path d="M14 19.8333C13.077 19.8333 12.1748 19.5596 11.4073 19.0469C10.6399 18.5341 10.0418 17.8052 9.68856 16.9525C9.33535 16.0998 9.24294 15.1615 9.423 14.2562C9.60307 13.351 10.0475 12.5195 10.7002 11.8668C11.3528 11.2142 12.1843 10.7697 13.0896 10.5897C13.9948 10.4096 14.9331 10.502 15.7859 10.8552C16.6386 11.2084 17.3674 11.8066 17.8802 12.574C18.393 13.3414 18.6667 14.2437 18.6667 15.1667C18.6667 16.4043 18.175 17.5913 17.2998 18.4665C16.4247 19.3417 15.2377 19.8333 14 19.8333ZM21 24.5C21 23.5717 20.6313 22.6815 19.9749 22.0251C19.3185 21.3688 18.4283 21 17.5 21H10.5C9.57174 21 8.6815 21.3688 8.02513 22.0251C7.36875 22.6815 7 23.5717 7 24.5V28H21V24.5ZM21 9.33334C20.077 9.33334 19.1748 9.05964 18.4073 8.54686C17.6399 8.03408 17.0418 7.30525 16.6886 6.45253C16.3354 5.5998 16.2429 4.66149 16.423 3.75625C16.6031 2.851 17.0475 2.01948 17.7002 1.36684C18.3528 0.714192 19.1843 0.269735 20.0896 0.0896708C20.9948 -0.0903936 21.9331 0.00202198 22.7859 0.355231C23.6386 0.70844 24.3674 1.30658 24.8802 2.07401C25.393 2.84144 25.6667 3.74369 25.6667 4.66667C25.6667 5.90435 25.175 7.09133 24.2998 7.9665C23.4247 8.84167 22.2377 9.33334 21 9.33334ZM7 9.33334C6.07702 9.33334 5.17477 9.05964 4.40734 8.54686C3.63991 8.03408 3.04177 7.30525 2.68856 6.45253C2.33535 5.5998 2.24294 4.66149 2.423 3.75625C2.60307 2.851 3.04752 2.01948 3.70017 1.36684C4.35281 0.714192 5.18433 0.269735 6.08958 0.0896708C6.99482 -0.0903936 7.93313 0.00202198 8.78586 0.355231C9.63858 0.70844 10.3674 1.30658 10.8802 2.07401C11.393 2.84144 11.6667 3.74369 11.6667 4.66667C11.6667 5.90435 11.175 7.09133 10.2998 7.9665C9.42466 8.84167 8.23768 9.33334 7 9.33334ZM7 15.1667C6.9994 13.4428 7.63834 11.7799 8.79317 10.5H3.5C2.57174 10.5 1.6815 10.8688 1.02513 11.5251C0.368749 12.1815 0 13.0717 0 14L0 17.5H7.40717C7.13924 16.7512 7.00153 15.962 7 15.1667ZM20.5928 17.5H28V14C28 13.0717 27.6313 12.1815 26.9749 11.5251C26.3185 10.8688 25.4283 10.5 24.5 10.5H19.2068C20.0496 11.4322 20.6237 12.5756 20.8678 13.8083C21.1119 15.0411 21.0168 16.317 20.5928 17.5Z" fill="#D2D8DE"/>
</g>
<defs>
<clipPath id="clip0_2792_21837">
<rect width="28" height="28" fill="white"/>
</clipPath>
</defs>
</svg>
