<svg width="12" height="14" viewBox="0 0 12 14" fill="none" xmlns="http://www.w3.org/2000/svg">
<path fill-rule="evenodd" clip-rule="evenodd" d="M1.94318 1.55556C1.94318 1.1797 2.2637 0.875 2.65909 0.875H9.34092C9.73631 0.875 10.0568 1.1797 10.0568 1.55556C10.0568 1.93142 9.73631 2.23611 9.34092 2.23611H2.65909C2.2637 2.23611 1.94318 1.93142 1.94318 1.55556ZM1.46591 4.95833H0.75V3.59722H11.25V4.95833H10.5341V10.6296C10.5341 12.0078 9.35886 13.125 7.9091 13.125H4.09091C2.64116 13.125 1.46591 12.0078 1.46591 10.6296V4.95833ZM9.10227 4.95833H2.89773V10.6296C2.89773 11.2561 3.43194 11.7639 4.09091 11.7639H7.9091C8.56806 11.7639 9.10227 11.2561 9.10227 10.6296V4.95833Z" fill="#FF2727"/>
</svg>
