<svg width="20" height="20" viewBox="0 0 20 20" fill="none" xmlns="http://www.w3.org/2000/svg">
<g clip-path="url(#clip0_767_17838)">
<path d="M13.332 17.5H17.1578C17.3459 17.4995 17.4982 17.3472 17.4987 17.1592V2.84082C17.4982 2.65277 17.3459 2.50043 17.1578 2.5H13.332C12.6417 2.5 12.082 1.94035 12.082 1.25C12.082 0.559648 12.6417 0 13.332 0H17.1578C18.726 0.00183594 19.9968 1.27266 19.9987 2.84082V17.1591C19.9968 18.7273 18.726 19.9982 17.1578 20H13.332C12.6417 20 12.082 19.4404 12.082 18.75C12.082 18.0596 12.6416 17.5 13.332 17.5Z" fill="white"/>
<path d="M1.2487 8.75L12.6154 8.7725L9.72707 5.88417C9.23875 5.39609 9.23855 4.60457 9.72663 4.11625C10.2147 3.62792 11.0062 3.62773 11.4946 4.11582L14.7271 7.34832C16.1916 8.81277 16.1916 11.1871 14.7271 12.6516L14.7271 12.6516L11.4946 15.8841C11.0062 16.3722 10.2147 16.372 9.72663 15.8837C9.23855 15.3954 9.23875 14.6039 9.72707 14.1158L12.5712 11.2725L1.2487 11.25C0.558353 11.2486 -0.000161171 10.6878 0.0012064 9.9975C0.00257301 9.30714 0.563354 8.74863 1.25371 8.75H1.2487Z" fill="white"/>
</g>
<defs>
<clipPath id="clip0_767_17838">
<rect width="20" height="20" fill="white" transform="matrix(-1 0 0 1 20 0)"/>
</clipPath>
</defs>
</svg>
