<svg width="20" height="20" viewBox="0 0 20 20" fill="none" xmlns="http://www.w3.org/2000/svg">
<path d="M16 6.5C16 7.88071 14.8807 9 13.5 9C12.1193 9 11 7.88071 11 6.5C11 5.11929 12.1193 4 13.5 4C14.8807 4 16 5.11929 16 6.5Z" fill="white"/>
<path d="M7 11H2C0.895431 11 0 11.8954 0 13V18H13V17C13 13.6863 10.3137 11 7 11Z" fill="white"/>
<path d="M20 16C20 13.2386 17.7614 11 15 11H10C13 11 16 13.4558 16 17.2792V18H20V16Z" fill="white"/>
<path d="M9 5.5C9 7.433 7.433 9 5.5 9C3.567 9 2 7.433 2 5.5C2 3.567 3.567 2 5.5 2C7.433 2 9 3.567 9 5.5Z" fill="white"/>
</svg>
