<svg width="15" height="15" viewBox="0 0 15 15" fill="none" xmlns="http://www.w3.org/2000/svg">
<path fill-rule="evenodd" clip-rule="evenodd" d="M3.44318 2.05556C3.44318 1.6797 3.7637 1.375 4.15909 1.375H10.8409C11.2363 1.375 11.5568 1.6797 11.5568 2.05556C11.5568 2.43142 11.2363 2.73611 10.8409 2.73611H4.15909C3.7637 2.73611 3.44318 2.43142 3.44318 2.05556ZM2.96591 5.45833H2.25V4.09722H12.75V5.45833H12.0341V11.1296C12.0341 12.5078 10.8589 13.625 9.4091 13.625H5.59091C4.14116 13.625 2.96591 12.5078 2.96591 11.1296V5.45833ZM10.6023 5.45833H4.39773V11.1296C4.39773 11.7561 4.93194 12.2639 5.59091 12.2639H9.4091C10.0681 12.2639 10.6023 11.7561 10.6023 11.1296V5.45833Z" fill="#AFB6C1"/>
</svg>
