<svg width="17" height="17" viewBox="0 0 17 17" fill="none" xmlns="http://www.w3.org/2000/svg">
<g clip-path="url(#clip0_4153_4007)">
<path d="M6.66225 5.71998C7.20707 5.35912 7.84609 5.16669 8.49958 5.16669C9.15307 5.16669 9.79209 5.35912 10.3369 5.71998L13.6622 2.39464C12.2201 1.17147 10.3906 0.500061 8.49958 0.500061C6.60859 0.500061 4.77903 1.17147 3.33691 2.39464L6.66225 5.71998Z" fill="#6266EA"/>
<path d="M14.6056 3.33734L11.2803 6.66267C11.6411 7.2075 11.8336 7.84652 11.8336 8.50001C11.8336 9.1535 11.6411 9.79252 11.2803 10.3373L14.6056 13.6627C15.8288 12.2206 16.5002 10.391 16.5002 8.50001C16.5002 6.60902 15.8288 4.77945 14.6056 3.33734Z" fill="#6266EA"/>
<path d="M10.3369 11.28C9.79209 11.6409 9.15307 11.8333 8.49958 11.8333C7.84609 11.8333 7.20707 11.6409 6.66225 11.28L3.33691 14.6054C4.77903 15.8285 6.60859 16.4999 8.49958 16.4999C10.3906 16.4999 12.2201 15.8285 13.6622 14.6054L10.3369 11.28Z" fill="#6266EA"/>
<path d="M5.71991 10.3373C5.35906 9.79252 5.16663 9.1535 5.16663 8.50001C5.16663 7.84652 5.35906 7.2075 5.71991 6.66267L2.39458 3.33734C1.17141 4.77945 0.5 6.60902 0.5 8.50001C0.5 10.391 1.17141 12.2206 2.39458 13.6627L5.71991 10.3373Z" fill="#6266EA"/>
</g>
<defs>
<clipPath id="clip0_4153_4007">
<rect width="16" height="16" fill="white" transform="translate(0.5 0.5)"/>
</clipPath>
</defs>
</svg>
