<svg width="16" height="15" viewBox="0 0 16 15" fill="none" xmlns="http://www.w3.org/2000/svg">
<path fill-rule="evenodd" clip-rule="evenodd" d="M4 3.70002V3.30002C4 1.97454 5.07452 0.900024 6.4 0.900024H9.6C10.9255 0.900024 12 1.97454 12 3.30002V3.70002H14.4C15.2837 3.70002 16 4.41637 16 5.30002V13.3C16 14.1837 15.2837 14.9 14.4 14.9H1.6C0.716344 14.9 0 14.1837 0 13.3V5.30002C0 4.41637 0.716344 3.70002 1.6 3.70002H4ZM5.6 3.30002C5.6 2.8582 5.95817 2.50002 6.4 2.50002H9.6C10.0418 2.50002 10.4 2.8582 10.4 3.30002V3.70002H5.6V3.30002ZM8 8.50002C8.66274 8.50002 9.2 7.96277 9.2 7.30002C9.2 6.63728 8.66274 6.10002 8 6.10002C7.33726 6.10002 6.8 6.63728 6.8 7.30002C6.8 7.96277 7.33726 8.50002 8 8.50002Z" fill="#6266EA"/>
</svg>
