<svg width="10" height="3" viewBox="0 0 10 3" fill="none" xmlns="http://www.w3.org/2000/svg">
<path d="M2 1.28571C2 1.83799 1.55228 2.28571 1 2.28571C0.447715 2.28571 0 1.83799 0 1.28571C0 0.733421 0.447715 0.285706 1 0.285706C1.55228 0.285706 2 0.733421 2 1.28571Z" fill="#AFB6C1"/>
<path d="M6 1.28571C6 1.83799 5.55228 2.28571 5 2.28571C4.44772 2.28571 4 1.83799 4 1.28571C4 0.733421 4.44772 0.285706 5 0.285706C5.55228 0.285706 6 0.733421 6 1.28571Z" fill="#AFB6C1"/>
<path d="M10 1.28571C10 1.83799 9.55229 2.28571 9 2.28571C8.44771 2.28571 8 1.83799 8 1.28571C8 0.733421 8.44771 0.285706 9 0.285706C9.55229 0.285706 10 0.733421 10 1.28571Z" fill="#AFB6C1"/>
</svg>
