<svg width="32" height="30" viewBox="0 0 32 30" fill="none" xmlns="http://www.w3.org/2000/svg">
<g id="Clip path group">
<mask id="mask0_1215_29383" style="mask-type:luminance" maskUnits="userSpaceOnUse" x="0" y="0" width="32" height="30">
<g id="clip0_769_27035">
<path id="Vector" d="M31.0577 0H0.942307V30H31.0577V0Z" fill="white"/>
</g>
</mask>
<g mask="url(#mask0_1215_29383)">
<g id="Group">
<path id="Vector_2" d="M31.0577 14.9999C31.0635 11.0217 29.4826 7.20409 26.6628 4.38696C23.8431 1.56983 20.0155 -0.0160599 16.0218 -0.0218348C12.0283 -0.0276096 8.19603 1.54722 5.36806 4.35617C2.5401 7.16513 0.948104 10.9781 0.942307 14.9564C0.942307 14.9564 0.942307 14.9564 0.942307 14.9855C0.942307 15.0144 0.942307 14.9855 0.942307 15.0144V29.9999H16.0437C20.0296 29.9884 23.8484 28.403 26.6629 25.5912C29.4773 22.7794 31.0577 18.9707 31.0577 14.9999Z" fill="#6266EA"/>
<g id="Group_2" style="mix-blend-mode:multiply" opacity="0.4">
<path id="Vector_3" d="M16.0487 29.9999C19.035 29.9905 21.9512 29.0966 24.4263 27.432C26.9014 25.7673 28.8238 23.4072 29.949 20.6514C31.0742 17.8957 31.3513 14.8689 30.7452 11.9559C30.1392 9.04287 28.6773 6.37515 26.5453 4.29187L0.947281 29.9999H16.0487Z" fill="white"/>
</g>
<path id="Vector_4" d="M23.5322 9.74316C23.4323 9.64024 23.2978 9.57847 23.1551 9.56988C23.0125 9.56129 22.8716 9.60649 22.7601 9.69668L14.0542 17.4581L9.38286 15.2881C9.27068 15.1988 9.12952 15.1545 8.98682 15.1642C8.84412 15.1738 8.7101 15.2366 8.61079 15.3405C8.52091 15.4408 8.47115 15.5712 8.47115 15.7064C8.47115 15.8417 8.52091 15.972 8.61079 16.0724L13.0747 20.1188C13.0747 20.1188 13.1208 20.1479 13.1381 20.1653C13.1554 20.1828 13.1669 20.2176 13.19 20.235C13.2431 20.2723 13.2989 20.3052 13.3571 20.3338C13.4262 20.3828 13.4994 20.4256 13.576 20.4616C13.6572 20.4944 13.7425 20.5159 13.8295 20.5254C13.9895 20.5719 14.1592 20.5719 14.3192 20.5254C14.4062 20.5159 14.4915 20.4944 14.5728 20.4616C14.6493 20.4256 14.7227 20.3828 14.7917 20.3338C14.8499 20.3052 14.9057 20.2723 14.9588 20.235C14.9588 20.235 14.9876 20.1885 15.0107 20.1653C15.0337 20.142 15.0568 20.1653 15.0741 20.1188L23.5322 10.4693C23.6141 10.3663 23.6586 10.2382 23.6586 10.1062C23.6586 9.97426 23.6141 9.8462 23.5322 9.74316Z" fill="white"/>
</g>
</g>
</g>
</svg>
