<svg width="14" height="14" viewBox="0 0 20 20" fill="none" xmlns="http://www.w3.org/2000/svg">
<path fill-rule="evenodd" clip-rule="evenodd" d="M13.2929 2.29289C14.788 0.797799 17.212 0.797799 18.7071 2.29289C20.2022 3.78799 20.2022 6.21201 18.7071 7.70711L9.70708 16.7071C7.6597 18.7545 4.34025 18.7545 2.29287 16.7071C0.245272 14.6595 0.24642 11.3393 2.29358 9.29218L5.29239 6.29337L6.70707 7.70712L3.85963 10.5546C3.85963 10.5546 3.89972 10.5145 3.85767 10.5565L3.70779 10.7064C2.44125 11.9729 2.44097 14.0268 3.70708 15.2929C4.97341 16.5592 7.02654 16.5592 8.29287 15.2929L17.2929 6.29289C18.0069 5.57885 18.0069 4.42115 17.2929 3.70711C16.5788 2.99306 15.4211 2.99306 14.7071 3.70711L5.70708 12.7071C5.54532 12.8689 5.54532 13.1311 5.70708 13.2929C5.86884 13.4547 6.13111 13.4547 6.29287 13.2929L13.2929 6.29289L14.7071 7.70711L7.70708 14.7071C6.76427 15.6499 5.23568 15.6499 4.29287 14.7071C3.35006 13.7643 3.35006 12.2357 4.29287 11.2929L13.2929 2.29289Z" fill="#AFB6C1"/>
</svg>
