<svg width="16" height="16" viewBox="0 0 16 16" fill="none" xmlns="http://www.w3.org/2000/svg">
<path d="M1.25 5C1.25 2.44066 2.7056 1.51888 3.75412 1.3033C4.06243 1.23991 4.36115 1.39819 4.55 1.65L5.97962 3.55616C6.27821 3.95428 6.23862 4.51138 5.88673 4.86327L4.75965 5.99035C4.45529 6.29471 4.38168 6.75866 4.60979 7.12367C4.96976 7.69966 5.59983 8.59983 6.5 9.5C7.40017 10.4002 8.30034 11.0302 8.87633 11.3902C9.24134 11.6183 9.70529 11.5447 10.0097 11.2403L11.1367 10.1133C11.4886 9.76138 12.0457 9.72179 12.4438 10.0204L14.35 11.45C14.6018 11.6389 14.7601 11.9376 14.6967 12.2459C14.4811 13.2944 13.5593 14.75 11 14.75C8 14.75 5.75 12.5 4.625 11.375C3.5 10.25 1.25 8 1.25 5Z" fill="#535C69"/>
</svg>
