<svg width="16" height="17" viewBox="0 0 16 17" fill="none" xmlns="http://www.w3.org/2000/svg">
<path d="M8 2.1C4.48183 2.1 1.6 4.98183 1.6 8.5C1.6 12.0182 4.48183 14.9 8 14.9V16.5C3.59817 16.5 0 12.9018 0 8.5C0 4.09817 3.59817 0.5 8 0.5C12.4018 0.5 16 4.09817 16 8.5C16 12.7506 14 15.7 11.2 15.7C8.8 15.7 7.2 13.46 7.2 10.9H6.39998C5.51632 10.9 4.79998 10.1836 4.79998 9.29997L4.79999 6.89998H5.93488V4.66746C5.93488 4.31809 6.21808 4.03489 6.56744 4.03489C6.91679 4.03489 7.19999 4.31809 7.19999 4.66746V6.89998H8.79999V4.66746C8.79999 4.31809 9.08319 4.03489 9.43256 4.03489C9.7819 4.03489 10.0651 4.31809 10.0651 4.66746V6.89998H11.2V9.29998C11.2 10.1836 10.4836 10.9 9.59999 10.9H8.8C8.8 13.3 10 14.1 11.2 14.1C12.8 14.1 14.4 12.3854 14.4 8.5C14.4 4.98183 11.5182 2.1 8 2.1Z" fill="#6266EA"/>
</svg>
