<svg width="95" height="95" viewBox="0 0 95 95" fill="none" xmlns="http://www.w3.org/2000/svg">
<path d="M19.7917 23.75C26.3387 23.75 31.6667 18.4221 31.6667 11.875C31.6667 5.32792 26.3387 0 19.7917 0C13.2446 0 7.91667 5.32792 7.91667 11.875C7.91667 18.4221 13.2446 23.75 19.7917 23.75ZM19.7917 3.95833C24.1577 3.95833 27.7083 7.50896 27.7083 11.875C27.7083 16.241 24.1577 19.7917 19.7917 19.7917C15.4256 19.7917 11.875 16.241 11.875 11.875C11.875 7.50896 15.4256 3.95833 19.7917 3.95833ZM21.7708 35.625C11.9502 35.625 3.95833 43.6169 3.95833 53.4375C3.95833 54.53 3.07167 55.4167 1.97917 55.4167C0.886667 55.4167 0 54.53 0 53.4375C0 41.4358 9.76521 31.6667 21.7708 31.6667C23.2354 31.6667 24.7 31.8131 26.121 32.0981C27.1937 32.3158 27.8865 33.3569 27.6687 34.4335C27.451 35.5023 26.3902 36.199 25.3373 35.9813C24.1735 35.7438 22.9742 35.625 21.7708 35.625ZM55.4167 23.75C61.9637 23.75 67.2917 18.4221 67.2917 11.875C67.2917 5.32792 61.9637 0 55.4167 0C48.8696 0 43.5417 5.32792 43.5417 11.875C43.5417 18.4221 48.8696 23.75 55.4167 23.75ZM55.4167 3.95833C59.7827 3.95833 63.3333 7.50896 63.3333 11.875C63.3333 16.241 59.7827 19.7917 55.4167 19.7917C51.0506 19.7917 47.5 16.241 47.5 11.875C47.5 7.50896 51.0506 3.95833 55.4167 3.95833ZM53.4375 31.6667C65.4431 31.6667 75.2083 41.4358 75.2083 53.4375C75.2083 54.53 74.3217 55.4167 73.2292 55.4167C72.1367 55.4167 71.25 54.53 71.25 53.4375C71.25 43.6169 63.2581 35.625 53.4375 35.625C52.2342 35.625 51.0348 35.7438 49.871 35.9813C48.8142 36.2148 47.7573 35.5023 47.5396 34.4335C47.3219 33.3608 48.0185 32.3158 49.0873 32.0981C50.5083 31.8131 51.9729 31.6667 53.4375 31.6667ZM25.7292 51.4583C25.7292 58.0054 31.0571 63.3333 37.6042 63.3333C44.1512 63.3333 49.4792 58.0054 49.4792 51.4583C49.4792 44.9112 44.1512 39.5833 37.6042 39.5833C31.0571 39.5833 25.7292 44.9112 25.7292 51.4583ZM37.6042 43.5417C41.9702 43.5417 45.5208 47.0923 45.5208 51.4583C45.5208 55.8244 41.9702 59.375 37.6042 59.375C33.2381 59.375 29.6875 55.8244 29.6875 51.4583C29.6875 47.0923 33.2381 43.5417 37.6042 43.5417ZM59.375 93.0208C59.375 94.1133 58.4883 95 57.3958 95C56.3033 95 55.4167 94.1133 55.4167 93.0208C55.4167 83.2002 47.4248 75.2083 37.6042 75.2083C27.7835 75.2083 19.7917 83.2002 19.7917 93.0208C19.7917 94.1133 18.905 95 17.8125 95C16.72 95 15.8333 94.1133 15.8333 93.0208C15.8333 81.0192 25.5985 71.25 37.6042 71.25C49.6098 71.25 59.375 81.0192 59.375 93.0208ZM95 77.1875C95 78.28 94.1133 79.1667 93.0208 79.1667H79.1667V93.0208C79.1667 94.1133 78.28 95 77.1875 95C76.095 95 75.2083 94.1133 75.2083 93.0208V79.1667H61.3542C60.2617 79.1667 59.375 78.28 59.375 77.1875C59.375 76.095 60.2617 75.2083 61.3542 75.2083H75.2083V61.3542C75.2083 60.2617 76.095 59.375 77.1875 59.375C78.28 59.375 79.1667 60.2617 79.1667 61.3542V75.2083H93.0208C94.1133 75.2083 95 76.095 95 77.1875Z" fill="#535C69"/>
</svg>
