<svg width="14" height="14" viewBox="0 0 20 20" fill="none" xmlns="http://www.w3.org/2000/svg">
<path fill-rule="evenodd" clip-rule="evenodd" d="M11.6 2.5C8.34152 2.5 5.7 5.14152 5.7 8.4C5.7 10.051 6.37747 11.5429 7.47088 12.6143C8.53552 13.6576 9.99224 14.3 11.6 14.3C14.8585 14.3 17.5 11.6585 17.5 8.4C17.5 5.14152 14.8585 2.5 11.6 2.5ZM4.7 8.4C4.7 4.58924 7.78923 1.5 11.6 1.5C15.4108 1.5 18.5 4.58924 18.5 8.4C18.5 12.2108 15.4108 15.3 11.6 15.3C9.89679 15.3 8.33702 14.6823 7.1337 13.6596L2.35032 18.3568L1.64967 17.6432L6.42028 12.9587C5.34993 11.7433 4.7 10.1472 4.7 8.4Z" fill="#D2D8DE"/>
</svg>
