<svg width="108" height="30" viewBox="0 0 108 30" fill="none" xmlns="http://www.w3.org/2000/svg">
<g clip-path="url(#clip0_1211_29222)">
<path d="M42.4744 19.1431C41.2386 19.1431 40.0544 18.9818 38.9215 18.6594C37.7887 18.3223 36.8767 17.89 36.1852 17.3625L37.3989 14.6806C38.0609 15.1496 38.8407 15.5379 39.738 15.8456C40.6502 16.1388 41.5696 16.2853 42.4964 16.2853C43.2026 16.2853 43.7689 16.2194 44.1956 16.0875C44.637 15.9409 44.9606 15.7431 45.1666 15.4939C45.3726 15.2447 45.4755 14.959 45.4755 14.6366C45.4755 14.2263 45.3136 13.9038 44.99 13.6694C44.6664 13.4202 44.2397 13.2223 43.7101 13.0758C43.1805 12.9146 42.5921 12.7681 41.9447 12.6362C41.3122 12.4896 40.6722 12.3138 40.0249 12.1086C39.3923 11.9034 38.8112 11.6396 38.2816 11.3172C37.752 10.9948 37.318 10.5698 36.9796 10.0422C36.656 9.51461 36.4941 8.84048 36.4941 8.01978C36.4941 7.14047 36.7295 6.34176 37.2003 5.62366C37.6858 4.8909 38.4066 4.31203 39.3629 3.88702C40.3338 3.44737 41.5475 3.22754 43.004 3.22754C43.9749 3.22754 44.9312 3.34478 45.8727 3.57926C46.8142 3.79909 47.6455 4.13616 48.3663 4.59047L47.263 7.29435C46.5421 6.88401 45.8212 6.58357 45.1004 6.39306C44.3795 6.18788 43.6734 6.0853 42.9819 6.0853C42.2904 6.0853 41.7241 6.1659 41.2827 6.32711C40.8414 6.48832 40.525 6.70082 40.3338 6.96461C40.1426 7.21375 40.047 7.50685 40.047 7.84392C40.047 8.23961 40.2088 8.56202 40.5324 8.81116C40.856 9.04564 41.2827 9.23616 41.8123 9.38271C42.342 9.52926 42.9231 9.67582 43.5557 9.82237C44.203 9.96891 44.843 10.1375 45.4755 10.328C46.1229 10.5185 46.7113 10.775 47.2409 11.0974C47.7705 11.4198 48.1972 11.8448 48.5208 12.3724C48.8592 12.9 49.0284 13.5668 49.0284 14.3728C49.0284 15.2375 48.7856 16.0289 48.3001 16.7469C47.8147 17.465 47.0864 18.0439 46.1155 18.4836C45.1592 18.9232 43.9455 19.1431 42.4744 19.1431ZM57.6499 15.362L57.4513 11.2512L64.8439 3.49133H68.816L62.1517 10.6357L60.1656 12.7461L57.6499 15.362ZM54.4502 18.8793V3.49133H58.003V18.8793H54.4502ZM65.0204 18.8793L59.5256 12.1745L61.8648 9.6465L69.1911 18.8793H65.0204ZM91.5483 18.8793V3.49133H98.5657C100.243 3.49133 101.721 3.81374 103.001 4.45857C104.281 5.08874 105.281 5.97538 106.002 7.11849C106.723 8.26159 107.084 9.61719 107.084 11.1853C107.084 12.7387 106.723 14.0944 106.002 15.2521C105.281 16.3952 104.281 17.2891 103.001 17.934C101.721 18.5641 100.243 18.8793 98.5657 18.8793H91.5483ZM95.1232 15.9556H98.3892C99.4189 15.9556 100.309 15.7651 101.059 15.384C101.824 14.9883 102.413 14.4314 102.825 13.7133C103.251 12.9953 103.465 12.1525 103.465 11.1853C103.465 10.2034 103.251 9.36073 102.825 8.65728C102.413 7.93918 101.824 7.38961 101.059 7.00857C100.309 6.61288 99.4189 6.41504 98.3892 6.41504H95.1232V15.9556Z" fill="#535C69"/>
<path d="M77.0523 9.69047H84.489V12.4603H77.0523V9.69047ZM77.3171 16.0215H85.7248V18.8793H73.7643V3.49133H85.4379V6.34909H77.3171V16.0215Z" fill="#6266EA"/>
<path d="M38.4393 26.6728C38.1316 26.6728 37.8454 26.6224 37.5806 26.5215C37.3197 26.4168 37.0919 26.2713 36.8972 26.0851C36.7064 25.895 36.5564 25.6758 36.4474 25.4276C36.3422 25.1754 36.2897 24.9 36.2897 24.6013C36.2897 24.3026 36.3422 24.0291 36.4474 23.7808C36.5564 23.5286 36.7064 23.3095 36.8972 23.1232C37.0919 22.9332 37.3197 22.7877 37.5806 22.6868C37.8415 22.5821 38.1277 22.5297 38.4393 22.5297C38.7469 22.5297 39.0312 22.5821 39.2921 22.6868C39.553 22.7877 39.7789 22.9312 39.9697 23.1174C40.1644 23.3036 40.3144 23.5228 40.4195 23.775C40.5285 24.0271 40.5831 24.3026 40.5831 24.6013C40.5831 24.9 40.5285 25.1754 40.4195 25.4276C40.3144 25.6797 40.1644 25.8989 39.9697 26.0851C39.7789 26.2713 39.553 26.4168 39.2921 26.5215C39.0312 26.6224 38.7469 26.6728 38.4393 26.6728ZM38.4393 26.2888C38.6846 26.2888 38.9105 26.248 39.1169 26.1666C39.3272 26.0812 39.5083 25.9629 39.6601 25.8116C39.8159 25.6564 39.9366 25.478 40.0223 25.2763C40.108 25.0707 40.1508 24.8457 40.1508 24.6013C40.1508 24.3569 40.108 24.1338 40.0223 23.9321C39.9366 23.7265 39.8159 23.548 39.6601 23.3967C39.5083 23.2416 39.3272 23.1232 39.1169 23.0418C38.9105 22.9564 38.6846 22.9138 38.4393 22.9138C38.194 22.9138 37.9661 22.9564 37.7558 23.0418C37.5456 23.1232 37.3625 23.2416 37.2068 23.3967C37.0549 23.548 36.9342 23.7265 36.8446 23.9321C36.7589 24.1338 36.7161 24.3569 36.7161 24.6013C36.7161 24.8418 36.7589 25.0648 36.8446 25.2704C36.9342 25.476 37.0549 25.6564 37.2068 25.8116C37.3625 25.9629 37.5456 26.0812 37.7558 26.1666C37.9661 26.248 38.194 26.2888 38.4393 26.2888ZM45.832 22.5646H46.2584V26.6379H45.832V22.5646ZM43.2735 26.6379H42.8412V22.5646H43.2735V26.6379ZM45.8729 24.7584H43.2267V24.3801H45.8729V24.7584ZM48.5047 26.6728C48.4502 26.6728 48.3976 26.6689 48.347 26.6612C48.2964 26.6573 48.2399 26.6476 48.1776 26.6321L48.2126 26.248C48.2788 26.2635 48.3431 26.2713 48.4054 26.2713C48.5806 26.2713 48.7208 26.2034 48.826 26.0676C48.935 25.928 49.0168 25.7146 49.0713 25.4276C49.1258 25.1366 49.1609 24.7642 49.1765 24.3103L49.2349 22.5646H52.0095V26.6379H51.5831V22.8207L51.6941 22.937H49.5094L49.6146 22.8148L49.562 24.2987C49.5464 24.706 49.5172 25.059 49.4744 25.3577C49.4315 25.6526 49.3692 25.8989 49.2874 26.0967C49.2057 26.2907 49.1005 26.4362 48.972 26.5332C48.8435 26.6263 48.6877 26.6728 48.5047 26.6728ZM54.014 26.6379L55.8832 22.5646H56.3097L58.1789 26.6379H57.7233L56.0059 22.8148H56.1811L54.4638 26.6379H54.014ZM54.75 25.5498L54.8785 25.2006H57.256L57.3845 25.5498H54.75ZM60.1891 26.6379V22.5646H60.6155V25.9396L63.2324 22.5646H63.6238V26.6379H63.1974V23.2687L60.5805 26.6379H60.1891ZM61.8948 22.2679C61.6027 22.2679 61.371 22.2019 61.1996 22.07C61.0322 21.9381 60.9465 21.7538 60.9426 21.5172H61.2639C61.2678 21.6724 61.3262 21.7946 61.4391 21.8838C61.556 21.973 61.7078 22.0176 61.8948 22.0176C62.0817 22.0176 62.2316 21.973 62.3445 21.8838C62.4614 21.7946 62.5217 21.6724 62.5256 21.5172H62.8469C62.843 21.7538 62.7554 21.9381 62.584 22.07C62.4127 22.2019 62.1829 22.2679 61.8948 22.2679ZM69.2211 22.5646H69.6475V26.6379H69.2211V22.5646ZM66.6626 26.6379H66.2303V22.5646H66.6626V26.6379ZM69.262 24.7584H66.6159V24.3801H69.262V24.7584ZM71.9157 25.2414V24.8806H73.4461V25.2414H71.9157ZM75.1412 26.1491L75.299 25.8407C75.4781 25.9959 75.6786 26.1123 75.9006 26.1898C76.1265 26.2635 76.3523 26.3023 76.5782 26.3062C76.8041 26.3062 77.0105 26.2732 77.1974 26.2073C77.3882 26.1414 77.542 26.0444 77.6589 25.9164C77.7757 25.7845 77.8341 25.6254 77.8341 25.4392C77.8341 25.2026 77.7387 25.0202 77.5479 24.8922C77.361 24.7642 77.1 24.7002 76.7651 24.7002H75.8889V24.351H76.7418C77.0299 24.351 77.2539 24.2909 77.4135 24.1707C77.5771 24.0465 77.6589 23.8758 77.6589 23.6586C77.6589 23.5034 77.6121 23.3715 77.5187 23.2629C77.4291 23.1504 77.3045 23.0651 77.1448 23.0069C76.9891 22.9448 76.8138 22.9118 76.6191 22.9079C76.4244 22.9002 76.2219 22.9254 76.0116 22.9836C75.8052 23.0379 75.6047 23.1252 75.4099 23.2454L75.2698 22.8905C75.5112 22.747 75.7624 22.648 76.0233 22.5937C76.2842 22.5355 76.5373 22.5161 76.7827 22.5355C77.028 22.5549 77.248 22.6112 77.4427 22.7043C77.6413 22.7974 77.7991 22.9196 77.9159 23.0709C78.0327 23.2222 78.0911 23.4026 78.0911 23.612C78.0911 23.806 78.0405 23.9767 77.9392 24.1241C77.8419 24.2715 77.7036 24.386 77.5245 24.4674C77.3493 24.545 77.1409 24.5838 76.8995 24.5838L76.9229 24.4558C77.1954 24.4558 77.431 24.4985 77.6297 24.5838C77.8322 24.6692 77.9879 24.7914 78.097 24.9504C78.2099 25.1056 78.2664 25.2879 78.2664 25.4974C78.2664 25.6952 78.2157 25.8717 78.1145 26.0269C78.0171 26.1782 77.8808 26.3062 77.7056 26.411C77.5342 26.5118 77.3415 26.5855 77.1273 26.6321C76.9131 26.6748 76.6892 26.6864 76.4555 26.667C76.2219 26.6476 75.9921 26.5972 75.7663 26.5157C75.5404 26.4304 75.3321 26.3082 75.1412 26.1491ZM79.9646 26.6379L81.8339 22.5646H82.2603L84.1295 26.6379H83.6739L81.9565 22.8148H82.1318L80.4144 26.6379H79.9646ZM80.7006 25.5498L80.8292 25.2006H83.2066L83.3351 25.5498H80.7006ZM86.1397 26.6379V22.5646H89.5803V26.6379H89.1539V22.8207L89.2648 22.937H86.4552L86.5661 22.8207V26.6379H86.1397ZM92.1867 26.6379V22.5646H92.6131V25.9396L95.23 22.5646H95.6214V26.6379H95.195V23.2687L92.578 26.6379H92.1867ZM100.015 26.6728C99.7077 26.6728 99.4235 26.6224 99.1625 26.5215C98.9016 26.4168 98.6758 26.2713 98.4849 26.0851C98.2941 25.8989 98.1442 25.6797 98.0352 25.4276C97.93 25.1754 97.8774 24.9 97.8774 24.6013C97.8774 24.3026 97.93 24.0271 98.0352 23.775C98.1442 23.5228 98.2941 23.3036 98.4849 23.1174C98.6797 22.9312 98.9075 22.7877 99.1684 22.6868C99.4293 22.5821 99.7136 22.5297 100.021 22.5297C100.317 22.5297 100.596 22.5801 100.857 22.681C101.117 22.778 101.337 22.9254 101.517 23.1232L101.242 23.3967C101.075 23.226 100.89 23.1039 100.687 23.0301C100.485 22.9526 100.267 22.9138 100.033 22.9138C99.7876 22.9138 99.5598 22.9564 99.3495 23.0418C99.1392 23.1232 98.9562 23.2416 98.8004 23.3967C98.6446 23.548 98.5219 23.7265 98.4324 23.9321C98.3467 24.1338 98.3039 24.3569 98.3039 24.6013C98.3039 24.8457 98.3467 25.0707 98.4324 25.2763C98.5219 25.478 98.6446 25.6564 98.8004 25.8116C98.9562 25.9629 99.1392 26.0812 99.3495 26.1666C99.5598 26.248 99.7876 26.2888 100.033 26.2888C100.267 26.2888 100.485 26.25 100.687 26.1724C100.89 26.0948 101.075 25.9707 101.242 25.8L101.517 26.0735C101.337 26.2713 101.117 26.4207 100.857 26.5215C100.596 26.6224 100.315 26.6728 100.015 26.6728ZM105.347 24.0194C105.83 24.0194 106.198 24.128 106.451 24.3452C106.709 24.5586 106.837 24.8767 106.837 25.2995C106.837 25.7379 106.701 26.0715 106.428 26.3004C106.156 26.5254 105.766 26.6379 105.26 26.6379H103.636V22.5646H104.062V24.0194H105.347ZM105.248 26.2946C105.626 26.2946 105.912 26.2112 106.107 26.0444C106.305 25.8776 106.405 25.6332 106.405 25.3112C106.405 24.9892 106.307 24.7526 106.113 24.6013C105.918 24.4461 105.63 24.3685 105.248 24.3685H104.062V26.2946H105.248Z" fill="#535C69"/>
<mask id="mask0_1211_29222" style="mask-type:luminance" maskUnits="userSpaceOnUse" x="0" y="0" width="31" height="30">
<path d="M30.1154 0H0V30H30.1154V0Z" fill="white"/>
</mask>
<g mask="url(#mask0_1211_29222)">
<path d="M30.1154 14.9999C30.1212 11.0217 28.5403 7.20409 25.7205 4.38696C22.9008 1.56983 19.0732 -0.0160599 15.0795 -0.0218348C11.086 -0.0276096 7.25372 1.54722 4.42575 4.35617C1.59779 7.16513 0.00579717 10.9781 0 14.9564C0 14.9564 0 14.9564 0 14.9855C0 15.0144 0 14.9855 0 15.0144V29.9999H15.1014C19.0873 29.9884 22.9061 28.403 25.7206 25.5912C28.535 22.7794 30.1154 18.9707 30.1154 14.9999Z" fill="#6266EA"/>
<g style="mix-blend-mode:multiply" opacity="0.4">
<path d="M15.1064 29.9999C18.0928 29.9905 21.0089 29.0966 23.4841 27.432C25.9591 25.7673 27.8815 23.4072 29.0067 20.6514C30.1319 17.8957 30.409 14.8689 29.803 11.9559C29.1969 9.04287 27.735 6.37515 25.603 4.29187L0.00500488 29.9999H15.1064Z" fill="white"/>
</g>
<path d="M22.5899 9.74316C22.49 9.64024 22.3555 9.57847 22.2128 9.56988C22.0702 9.56129 21.9293 9.60649 21.8178 9.69668L13.1119 17.4581L8.44059 15.2881C8.32841 15.1988 8.18724 15.1545 8.04454 15.1642C7.90185 15.1738 7.76782 15.2366 7.66852 15.3405C7.57864 15.4408 7.52887 15.5712 7.52887 15.7064C7.52887 15.8417 7.57864 15.972 7.66852 16.0724L12.1325 20.1188C12.1325 20.1188 12.1786 20.1479 12.1958 20.1653C12.2131 20.1828 12.2246 20.2176 12.2477 20.235C12.3008 20.2723 12.3567 20.3052 12.4148 20.3338C12.4839 20.3828 12.5571 20.4256 12.6337 20.4616C12.7149 20.4944 12.8002 20.5159 12.8872 20.5254C13.0473 20.5719 13.2169 20.5719 13.377 20.5254C13.4639 20.5159 13.5492 20.4944 13.6305 20.4616C13.7071 20.4256 13.7804 20.3828 13.8495 20.3338C13.9076 20.3052 13.9634 20.2723 14.0165 20.235C14.0165 20.235 14.0453 20.1885 14.0685 20.1653C14.0914 20.142 14.1145 20.1653 14.1318 20.1188L22.5899 10.4693C22.6718 10.3663 22.7164 10.2382 22.7164 10.1062C22.7164 9.97426 22.6718 9.8462 22.5899 9.74316Z" fill="white"/>
</g>
</g>
<defs>
<clipPath id="clip0_1211_29222">
<rect width="108" height="30" fill="white"/>
</clipPath>
</defs>
</svg>
