<svg width="18" height="17" viewBox="0 0 18 17" fill="none" xmlns="http://www.w3.org/2000/svg">
<path fill-rule="evenodd" clip-rule="evenodd" d="M12.2575 5.95727C11.7944 5.95727 11.3874 5.66134 11.2602 5.2321L11.2426 5.1728C11.2405 5.16555 11.2382 5.15833 11.2359 5.15112L9.7288 0.469756C9.7288 0.469756 9.7288 0.469756 9.7288 0.469756C9.53202 -0.141467 8.64216 -0.1614 8.41615 0.440352C8.41615 0.440352 8.41615 0.440352 8.41615 0.440352L6.65496 5.12944C6.64683 5.15109 6.63948 5.17301 6.63292 5.19515L6.62196 5.23211C6.49474 5.66134 6.08776 5.95727 5.62468 5.95727H5.582H0.693556C0.693556 5.95727 0.693556 5.95727 0.693556 5.95727C0.0294735 5.95727 -0.253536 6.77131 0.276429 7.15708C0.276429 7.15708 0.27643 7.15708 0.276429 7.15708L4.37907 10.1434C4.39527 10.1552 4.41183 10.1666 4.42873 10.1774L4.48064 10.2108C4.85591 10.452 5.02647 10.8993 4.90256 11.3174L4.87737 11.4024C4.87568 11.4081 4.87393 11.4138 4.87213 11.4195L3.37747 16.1422C3.18269 16.7577 3.92148 17.2519 4.45137 16.8606L8.27591 14.0367C8.28719 14.0284 8.29829 14.0198 8.30921 14.011L8.33601 13.9895C8.72065 13.6805 9.27936 13.6805 9.66399 13.9895L9.6908 14.011C9.70171 14.0198 9.71282 14.0284 9.7241 14.0367L13.5486 16.8606C14.0785 17.2519 14.8173 16.7577 14.6225 16.1422L13.1279 11.4195C13.1261 11.4138 13.1243 11.4081 13.1226 11.4024L13.0974 11.3174C12.9735 10.8993 13.1441 10.452 13.5194 10.2108L13.5713 10.1774C13.5882 10.1666 13.6047 10.1552 13.6209 10.1434L17.7236 7.15708C17.7236 7.15708 17.7236 7.15708 17.7236 7.15708C18.2535 6.77131 17.9705 5.95727 17.3064 5.95727H12.3001H12.2575Z" fill="#F7D37D"/>
</svg>
