<svg width="18" height="17" viewBox="0 0 18 17" fill="none" xmlns="http://www.w3.org/2000/svg">
<path fill-rule="evenodd" clip-rule="evenodd" d="M13.1279 11.4195L14.6225 16.1422C14.8173 16.7577 14.0785 17.2519 13.5486 16.8606L9.7241 14.0367C9.33946 13.7277 8.66054 13.7277 8.27591 14.0367L4.45137 16.8606C3.92148 17.2519 3.18269 16.7577 3.37747 16.1422L4.87213 11.4195C4.99604 11.0014 4.75434 10.3846 4.37907 10.1434L0.276429 7.15708C-0.253536 6.77131 0.0294735 5.95727 0.693556 5.95727H5.582C6.04508 5.95727 6.52774 5.55867 6.65496 5.12944L8.41615 0.440352C8.64216 -0.1614 9.53202 -0.141467 9.7288 0.469756L11.2426 5.1728C11.3698 5.60204 11.8371 5.95727 12.3001 5.95727H17.3064C17.9705 5.95727 18.2535 6.77131 17.7236 7.15708L13.6209 10.1434C13.2457 10.3846 13.004 11.0014 13.1279 11.4195ZM13.0512 9.32131L16.2989 6.95727H12.3001C11.398 6.95727 10.5455 6.3166 10.2878 5.47017L9.04518 1.60965L7.60128 5.45397C7.46294 5.88503 7.17789 6.24179 6.86355 6.48962C6.53959 6.74502 6.09137 6.95727 5.582 6.95727H1.70114L4.94884 9.32131C5.34504 9.58694 5.6032 9.98792 5.74502 10.3532C5.88916 10.7246 5.97464 11.2187 5.83091 11.7036L5.8283 11.7124L4.63541 15.4817L7.66859 13.2421C8.07252 12.926 8.5664 12.8049 9 12.8049C9.43362 12.8049 9.9275 12.926 10.3314 13.2421L13.3646 15.4817L12.1717 11.7124L12.1691 11.7036C12.0254 11.2187 12.1108 10.7246 12.255 10.3532C12.3968 9.9879 12.655 9.58693 13.0512 9.32131Z" fill="#AFB6C1"/>
</svg>
