<svg width="45" height="45" viewBox="0 0 45 45" fill="none" xmlns="http://www.w3.org/2000/svg">
<circle cx="22.5" cy="22.5" r="22.5" fill="#28CCF0" fill-opacity="0.35"/>
<g clip-path="url(#clip0_959_27490)">
<path d="M30.7086 19.8316L31.3428 19.5272C31.5369 19.434 31.5884 19.1827 31.4451 19.022C30.9475 18.4638 29.7875 17.3152 28.1257 16.603L28.603 16.2848C28.8205 16.1398 28.7866 15.8098 28.5428 15.7156C27.0559 15.1416 22.8654 14.0386 19.7313 18.2173L29.5317 25.9545C30.5311 26.7435 32.0001 26.0316 32.0001 24.7583V23.5831C32.0001 21.1231 30.7086 19.8316 30.7086 19.8316Z" fill="#E6646E"/>
<path d="M31.0314 23.4884C30.4995 22.2328 30.2883 21.8593 29.7745 21.0469C28.9684 19.7726 26.8272 16.3873 23.688 16.3873C23.2819 16.3873 22.87 16.4448 22.4636 16.558C21.9217 16.7091 21.4041 16.9938 20.9253 17.4042L19.8841 18.3376C19.884 18.3378 19.884 18.3379 19.8841 18.338L29.1196 24.9975C30.3857 25.966 31.5257 24.6555 31.0314 23.4884Z" fill="#DC4655"/>
<path d="M12.2516 13.3977L19.0856 21.1231L21.3456 18.5402L12.4257 13.1883C12.2906 13.1072 12.1472 13.2797 12.2516 13.3977Z" fill="#E6646E"/>
<path d="M31.8727 27.3457C31.4907 26.1814 30.1645 22.8715 29.2288 21.3922C28.1834 19.7394 25.8656 16.2802 22.637 17.1801C22.1862 17.3057 21.753 17.5452 21.3455 17.8945L12.1743 26.117C12.0451 26.2328 11.9755 26.4083 12.0079 26.5788C12.0827 26.9727 12.3131 27.1558 12.5573 27.2357C12.6638 27.2705 12.7514 27.3439 12.8011 27.4442C12.9262 27.6969 13.1468 28.1423 13.1468 28.1423C13.3085 28.4719 13.7108 28.6025 14.033 28.4265C14.152 28.3615 14.2823 28.2819 14.4161 28.1968L15.5431 28.8835C15.7362 29.0005 15.9743 29.0091 16.1744 28.9046C17.1404 28.4003 20.1123 26.9219 22.3141 26.6118C22.7733 26.5471 23.2 26.4246 23.595 26.2619L26.0192 32.6246C26.1004 32.8377 26.3709 32.9018 26.539 32.7477L31.6949 28.0215C31.8819 27.8501 31.9517 27.5868 31.8727 27.3457Z" fill="white"/>
<path d="M22.4149 14.3465V17.5664C22.4149 17.918 22.6964 18.2181 23.0804 18.2759L23.8318 18.389C24.346 18.4664 24.8071 18.0819 24.7573 17.6134C24.5314 15.4848 23.5403 14.519 22.922 14.1166C22.7099 13.9786 22.4149 14.1104 22.4149 14.3465Z" fill="#DBD9DC"/>
<path d="M25.6561 26.0992C25.5307 25.8753 25.5529 25.6005 25.7063 25.3948C25.878 25.1645 26.0248 24.9183 26.1421 24.6575C26.6166 23.6026 26.609 22.4175 26.1203 21.2304C26.0525 21.0656 25.8646 20.987 25.6988 21.0548C25.5339 21.1227 25.4554 21.3114 25.5231 21.4764C25.9428 22.4951 25.9532 23.5036 25.5531 24.3927C25.1888 25.2026 24.4948 25.8607 23.5938 26.2589L26.0191 32.6246C26.1003 32.8377 26.3708 32.9018 26.5389 32.7477L28.4157 31.0273L25.6561 26.0992Z" fill="#DBD9DC"/>
<path d="M13.4623 26.6992C13.3651 26.5017 13.046 26.4865 12.83 26.7867C12.7245 26.9332 12.632 27.0714 12.3397 27.1272C12.4072 27.1739 12.4793 27.2096 12.5535 27.2342C12.6339 27.2608 12.6976 27.3155 12.7484 27.3813C13.3681 27.3315 13.5738 26.926 13.4623 26.6992Z" fill="#9C969E"/>
<path d="M15.0535 28.5887C15.6047 28.2422 16.2212 27.7826 16.7247 27.2745C16.8503 27.1479 16.8493 26.9434 16.7228 26.8179C16.5958 26.692 16.3916 26.6933 16.2661 26.8199C15.7078 27.3832 14.9354 27.8628 14.4094 28.2009L15.0535 28.5887Z" fill="#C0BCC1"/>
<path d="M21.3455 21.7728C20.8839 21.7728 20.4526 21.6238 20.1619 21.3638C20.0288 21.245 20.0175 21.041 20.136 20.9079C20.2552 20.775 20.4595 20.7638 20.5919 20.8824C20.7634 21.0356 21.045 21.1271 21.3455 21.1271C21.6459 21.1271 21.9275 21.0356 22.099 20.8824C22.2314 20.7638 22.4357 20.775 22.5549 20.9079C22.6735 21.041 22.6621 21.245 22.5291 21.3638C22.2384 21.6238 21.8071 21.7728 21.3455 21.7728Z" fill="#4B3F4E"/>
<path d="M16.8254 18.5683L18.4397 20.3932V16.7968L16.8254 15.8282V18.5683Z" fill="#00C3FF"/>
<path d="M15.2112 16.7434L16.8255 18.5683V15.8282L15.2112 14.8596V16.7434Z" fill="#D4F582"/>
<path d="M13.5968 14.9185L15.2111 16.7434V14.8596L13.5968 13.891V14.9185Z" fill="#FFC850"/>
<path d="M13.5969 13.891L12.4257 13.1883C12.2906 13.1072 12.1472 13.2797 12.2516 13.3978L13.5969 14.9186V13.891H13.5969Z" fill="#E6646E"/>
</g>
<defs>
<clipPath id="clip0_959_27490">
<rect width="20" height="20" fill="white" transform="translate(12 13)"/>
</clipPath>
</defs>
</svg>
